<?xml version="1.0" encoding="UTF-8"?>
<svg version="1.1" xmlns="http://www.w3.org/2000/svg" width="512" height="512">
<path d="M0 0 C1.14941338 -0.00311998 2.29882676 -0.00623996 3.48307085 -0.00945449 C7.29569311 -0.01736731 11.10815321 -0.01113717 14.92077637 -0.00482178 C17.67004217 -0.00643541 20.41930131 -0.01102549 23.16856384 -0.01544189 C29.83740791 -0.02429704 36.50620675 -0.02243128 43.17505252 -0.01661661 C48.59892894 -0.01208478 54.02279276 -0.01149378 59.44667053 -0.01366425 C60.22103227 -0.01397071 60.99539402 -0.01427718 61.79322127 -0.01459293 C63.36672382 -0.01523243 64.94022637 -0.01588086 66.51372892 -0.01653811 C81.24016902 -0.02223004 95.96658416 -0.01570141 110.69302016 -0.00493738 C123.30654905 0.00399709 135.92004111 0.00244473 148.53356934 -0.0067749 C163.2102613 -0.01749767 177.88693143 -0.02168083 192.56362677 -0.01555037 C194.13107649 -0.01491333 195.69852622 -0.01428459 197.26597595 -0.01366425 C198.42255228 -0.01320142 198.42255228 -0.01320142 199.60249379 -0.01272924 C205.01471009 -0.01100832 210.42691245 -0.01390436 215.83912659 -0.01862335 C222.44216476 -0.02425453 229.04515544 -0.02266896 235.64818823 -0.01206186 C239.01187655 -0.00683507 242.37542103 -0.0057884 245.73911858 -0.01136017 C249.39703894 -0.01685894 253.05473994 -0.00992906 256.71264648 0 C257.75926846 -0.00446144 258.80589044 -0.00892289 259.88422823 -0.01351953 C270.10306158 0.03995317 280.23612714 0.74923619 289.35632324 5.62896729 C290.48038574 6.21420166 291.60444824 6.79943604 292.76257324 7.40240479 C310.3171532 17.90855491 315.51196342 39.70277074 322.08917236 57.79989624 C323.6529583 62.10120591 325.22649862 66.39892646 326.79946899 70.69688416 C327.60998381 72.91167488 328.42010174 75.12661088 329.22982788 77.34169006 C333.03141492 87.74099594 336.84892965 98.13430088 340.69549561 108.51705933 C341.38017362 110.36745702 342.06310701 112.21850129 342.74420166 114.07022095 C343.69132856 116.64480574 344.64420386 119.21719298 345.59851074 121.78912354 C345.87070435 122.53286224 346.14289795 123.27660095 346.42333984 124.0428772 C349.34410812 131.87247618 352.25363937 138.25725088 358.54382324 143.94146729 C371.11299584 155.93695119 380.65921338 171.10449063 381.10117614 188.88718367 C381.15428291 192.72797499 381.16164638 196.5681346 381.16271973 200.40924072 C381.17035075 202.14315138 381.17877986 203.87705868 381.1879425 205.61096191 C381.20980052 210.30124154 381.21867458 214.99145602 381.22376895 219.68178082 C381.22742264 222.61788126 381.2336679 225.5539649 381.24077034 228.4900589 C381.26523399 238.7495854 381.27831019 249.00906155 381.28186035 259.26861572 C381.28549388 268.80546211 381.31538414 278.34198636 381.35726494 287.87873435 C381.3920453 296.08882861 381.40741012 304.29881648 381.40810639 312.50898385 C381.40889651 317.40268755 381.4175133 322.29606261 381.44610405 327.18968964 C381.47241813 331.79622898 381.47441609 336.40217025 381.45844841 341.00875092 C381.45664452 342.69004631 381.4632278 344.37137719 381.47926712 346.05259705 C381.59324433 358.78557853 379.92864054 369.838074 371.85632324 380.25396729 C371.05194824 381.46052979 371.05194824 381.46052979 370.23132324 382.69146729 C360.17313525 393.54372275 346.69613472 397.67553788 332.28308105 398.44464111 C328.49292608 398.52133355 324.70963759 398.52702343 320.91882324 398.50396729 C319.01713379 398.51556885 319.01713379 398.51556885 317.07702637 398.52740479 C302.52396848 398.49756766 289.78531078 397.07104503 277.85632324 388.25396729 C277.30331543 387.8582251 276.75030762 387.46248291 276.18054199 387.05474854 C265.88105316 379.08463412 261.63528236 367.70668111 259.85632324 355.25396729 C259.85632324 347.00396729 259.85632324 338.75396729 259.85632324 330.25396729 C170.75632324 330.25396729 81.65632324 330.25396729 -10.14367676 330.25396729 C-10.14367676 338.50396729 -10.14367676 346.75396729 -10.14367676 355.25396729 C-11.48986266 364.75205669 -13.4923328 371.53877468 -19.14367676 379.25396729 C-19.60773926 379.8997876 -20.07180176 380.54560791 -20.54992676 381.21099854 C-28.47321427 391.31319011 -40.12539829 396.05848662 -52.47424316 397.8526001 C-58.71943419 398.53570682 -64.92990419 398.5422567 -71.20617676 398.50396729 C-72.47783691 398.51170166 -73.74949707 398.51943604 -75.05969238 398.52740479 C-92.17715252 398.49227403 -105.92263149 395.59820802 -119.14367676 384.25396729 C-126.76568184 376.53548112 -131.25895178 365.07309877 -131.28411865 354.36151123 C-131.28708977 353.65617107 -131.2900609 352.95083091 -131.29312205 352.2241168 C-131.30181131 349.85449773 -131.30331752 347.48492916 -131.30480957 345.11529541 C-131.30943779 343.41843559 -131.31446246 341.72157681 -131.31985474 340.02471924 C-131.33298522 335.40860344 -131.33942561 330.79250219 -131.34386539 326.17637062 C-131.34679665 323.2902418 -131.35090169 320.40411694 -131.35536957 317.51799011 C-131.36904969 308.48217935 -131.37871235 299.44637767 -131.38257146 290.41055727 C-131.38704577 279.99196674 -131.40456231 269.57350782 -131.43357205 259.15495729 C-131.4552289 251.09619013 -131.46527797 243.03745986 -131.46661258 234.97866392 C-131.46765826 230.16885539 -131.47351482 225.3591705 -131.49143219 220.5493927 C-131.50798089 216.01857071 -131.51003555 211.48796435 -131.50129318 206.9571228 C-131.50052628 205.30080078 -131.50481936 203.64446686 -131.51475143 201.98817444 C-131.58372638 189.7611043 -130.1276539 179.20568868 -124.51867676 168.19146729 C-124.00144043 167.16968384 -124.00144043 167.16968384 -123.47375488 166.1272583 C-118.14763023 156.03798132 -109.88811356 148.46957831 -100.94552612 141.55409241 C-94.75877039 136.53960049 -92.08316765 131.92173293 -89.55773926 124.45318604 C-89.17786865 123.40341583 -88.79799805 122.35364563 -88.40661621 121.27206421 C-87.16938078 117.8367756 -85.96959617 114.38959904 -84.76867676 110.94146729 C-83.90885 108.53960584 -83.04601169 106.13882053 -82.18029785 103.73907471 C-80.61390789 99.39055925 -79.05436423 95.03979679 -77.50730324 90.68436527 C-73.43345399 79.2164063 -69.23436567 67.79544854 -64.99786377 56.38668823 C-63.79355261 53.13366076 -62.60191947 49.87620185 -61.41174316 46.61798096 C-54.57176932 28.02714082 -48.43168887 13.22195129 -29.89367676 4.00396729 C-20.48434863 0.14951633 -10.03527973 -0.04277746 0 0 Z M-28.63487244 30.41004944 C-33.77112337 36.68708923 -36.37353925 45.10316482 -39.07727051 52.64849854 C-39.4322612 53.62291901 -39.78725189 54.59733948 -40.15299988 55.60128784 C-41.30090171 58.75449377 -42.44097716 61.91046913 -43.58117676 65.06646729 C-45.17823501 69.4608653 -46.77974099 73.8536354 -48.38195801 78.24615479 C-48.98116058 79.89094063 -48.98116058 79.89094063 -49.59246826 81.56895447 C-53.9692686 93.56026514 -58.50406201 105.49061844 -63.07897949 117.40753174 C-63.49540459 118.49764053 -63.49540459 118.49764053 -63.92024231 119.60977173 C-64.65896048 121.54351234 -65.40141307 123.47582521 -66.14416504 125.40802002 C-67.2541312 128.06574137 -67.2541312 128.06574137 -67.14367676 130.25396729 C4.46632324 130.25396729 76.07632324 130.25396729 149.85632324 130.25396729 C150.89767907 127.1298998 151.93083411 124.00184329 152.86413574 120.84381104 C158.59927722 102.09431005 170.0599451 86.44138101 187.07507324 76.34381104 C205.34109126 66.65541634 226.97579742 63.36164422 247.10632324 69.31646729 C260.24109233 73.66449643 270.22550236 80.5379179 279.85632324 90.25396729 C280.52405762 90.88818604 281.19179199 91.52240479 281.87976074 92.17584229 C291.79057106 102.31087909 296.06586396 116.98735981 299.85632324 130.25396729 C307.77632324 130.25396729 315.69632324 130.25396729 323.85632324 130.25396729 C321.57859171 122.53674721 321.57859171 122.53674721 318.97790527 114.97662354 C318.63923935 114.06491394 318.30057343 113.15320435 317.9516449 112.21386719 C317.41332787 110.77965424 317.41332787 110.77965424 316.86413574 109.31646729 C316.29034935 107.77614838 316.29034935 107.77614838 315.70497131 106.20471191 C314.46753397 102.88637055 313.22504402 99.56995836 311.98132324 96.25396729 C311.55791656 95.12390259 311.13450989 93.99383789 310.69827271 92.82952881 C308.97733805 88.23695495 307.25571324 83.64464596 305.53041077 79.05371094 C303.28020492 73.06431546 301.04471572 67.07005924 298.8369751 61.06488037 C297.68034262 57.92384987 296.51234539 54.78713595 295.34136963 51.65142822 C294.81593669 50.2366557 294.29550155 48.82001545 293.78045654 47.40142822 C290.80053464 39.20461004 288.04302847 31.91186066 280.69616699 26.73052979 C280.06839355 26.44951416 279.44062012 26.16849854 278.79382324 25.87896729 C278.16347168 25.58248291 277.53312012 25.28599854 276.88366699 24.98052979 C272.90185837 23.55352323 269.05967309 23.12869675 264.84930134 23.12253952 C263.85971214 23.11869838 262.87012293 23.11485723 261.85054618 23.11089969 C260.77079322 23.11176617 259.69104025 23.11263265 258.5785675 23.11352539 C257.42570572 23.11055427 256.27284394 23.10758315 255.08504695 23.10452199 C251.88899582 23.09735104 248.69297746 23.0946634 245.49691951 23.09392452 C242.04824338 23.0920709 238.59957884 23.084522 235.15090942 23.07778931 C227.61151992 23.06421775 220.07213575 23.05818306 212.53273606 23.05377865 C207.82309434 23.05101415 203.11345466 23.0467764 198.40381432 23.04227448 C185.35852214 23.03008318 172.3132316 23.0197837 159.26793385 23.01639938 C158.43329109 23.01617982 157.59864833 23.01596025 156.73871337 23.01573403 C155.90209818 23.01551575 155.06548299 23.01529748 154.20351583 23.01507258 C152.5082765 23.01462912 150.81303718 23.01418256 149.11779785 23.01373291 C148.27690448 23.01351148 147.43601111 23.01329005 146.56963613 23.01306191 C132.94848041 23.00911509 119.32737824 22.99166397 105.70624319 22.96837339 C91.71422094 22.9446422 77.72222553 22.93219672 63.73018283 22.93103147 C55.87717344 22.93011568 48.02423381 22.92438775 40.17124367 22.90621185 C33.48337685 22.89078697 26.79560135 22.88570444 20.10772011 22.89394996 C16.697854 22.89784808 13.28817165 22.89696814 9.87832832 22.88289261 C6.17506041 22.87018361 2.47226198 22.87604489 -1.23100281 22.88647461 C-2.29960216 22.8784182 -3.36820152 22.8703618 -4.46918267 22.86206126 C-13.34829499 22.92041987 -21.9628787 24.07634031 -28.63487244 30.41004944 Z M182.04772949 109.47662354 C177.69344004 115.63343679 173.85632324 122.61050241 173.85632324 130.25396729 C207.51632324 130.25396729 241.17632324 130.25396729 275.85632324 130.25396729 C272.57212329 115.4750675 265.97104698 105.13511938 253.31335449 96.78521729 C252.50253418 96.27990479 251.69171387 95.77459229 250.85632324 95.25396729 C250.22081543 94.85177979 249.58530762 94.44959229 248.93054199 94.03521729 C226.22671974 81.20050835 197.79015069 90.13010591 182.04772949 109.47662354 Z M-89.14367676 162.25396729 C-90.5308836 163.49601039 -91.94286027 164.71185743 -93.39367676 165.87896729 C-103.0962007 174.25130649 -107.69916743 184.67137271 -109.14367676 197.25396729 C-109.51702132 203.90302534 -109.45006767 210.56954567 -109.44445801 217.22662354 C-109.44835257 219.15992829 -109.45268879 221.0932322 -109.45744324 223.02653503 C-109.46487015 227.0617654 -109.46463906 231.0969082 -109.45935059 235.13214111 C-109.45354811 240.28198729 -109.47052302 245.43147474 -109.49369526 250.58126163 C-109.50848014 254.56802943 -109.50929805 258.55471164 -109.50618553 262.541502 C-109.50669594 264.43955638 -109.51188047 266.3376159 -109.52199745 268.23564339 C-109.84353706 286.39477855 -109.84353706 286.39477855 -100.97570801 301.62896729 C-95.00558247 306.92443045 -88.55888029 307.37797954 -80.90057755 307.38539505 C-79.81709748 307.388474 -79.81709748 307.388474 -78.71172893 307.39161515 C-76.28458847 307.39728213 -73.8575048 307.39582828 -71.43035889 307.39440918 C-69.67529223 307.39699298 -67.92022615 307.40000619 -66.16516089 307.40341258 C-61.33675977 307.41148395 -56.50837352 307.41327223 -51.67996645 307.41401005 C-46.47464887 307.41586035 -41.269339 307.42340753 -36.06402588 307.43014526 C-24.67978426 307.44372973 -13.29554617 307.44975338 -1.9112978 307.45415592 C5.19573478 307.45691795 12.30276601 307.46115522 19.40979767 307.4656601 C39.08359059 307.47785253 58.75738243 307.48815214 78.43117905 307.49153519 C79.69044178 307.49175475 80.94970451 307.49197432 82.24712671 307.49220054 C83.50941492 307.49241882 84.77170313 307.49263709 86.0722425 307.49286199 C88.63015223 307.49330545 91.18806195 307.49375202 93.74597168 307.49420166 C95.01478527 307.49442309 96.28359886 307.49464452 97.59086135 307.49487266 C118.15450041 307.49882147 138.71810405 307.51627815 159.28172943 307.53956118 C180.38943422 307.56326755 201.49712124 307.5757367 222.60483956 307.5769031 C234.4579513 307.57782023 246.31101688 307.58358198 258.16411591 307.60172272 C268.25633021 307.61711399 278.34848409 307.62224988 288.44070789 307.61398461 C293.59013072 307.61007478 298.73943183 307.61102407 303.88883972 307.62504196 C308.60406001 307.63776057 313.31906686 307.63660125 318.03428677 307.62445125 C319.73886424 307.62249073 321.44345672 307.62558905 323.14801309 307.63429561 C334.67115623 307.68942107 344.34403118 307.49417889 353.19616699 299.15240479 C358.81178032 292.73078578 359.0061224 284.67064689 359.00158691 276.52325439 C359.00494553 275.65422485 359.00830414 274.78519531 359.01176453 273.88983154 C359.02125238 271.02031009 359.02321695 268.15084719 359.02429199 265.28131104 C359.02750748 263.27696204 359.03087177 261.27261328 359.03437805 259.26826477 C359.04036491 255.06435605 359.04221855 250.86046786 359.04162598 246.65655518 C359.0415247 241.29606945 359.05514301 235.93571721 359.07239819 230.57526302 C359.08357646 226.43229073 359.08554335 222.28935003 359.08501625 218.14636421 C359.0861889 216.17181503 359.09057008 214.19726484 359.09834862 212.22273064 C359.17195359 191.59807444 357.41535817 176.36156921 342.53991699 161.04302979 C339.85632324 158.25396729 339.85632324 158.25396729 337.62940472 155.12753963 C335.1169115 152.00243865 335.1169115 152.00243865 331.59225732 151.49726963 C330.34194292 151.49412723 329.09162851 151.49098482 327.80342579 151.48774719 C327.10166583 151.47782816 326.39990586 151.46790913 325.67688045 151.45768952 C323.31895417 151.43172523 320.96328383 151.4485567 318.6053009 151.46514893 C316.90042882 151.45537317 315.19557001 151.4429945 313.4907338 151.42823315 C308.80088662 151.39535864 304.11171013 151.4000847 299.42178786 151.41098309 C294.36565642 151.41631448 289.30970563 151.38727706 284.25364685 151.36279297 C274.34546564 151.32063845 264.43751838 151.31160595 254.52925811 151.31516874 C246.47546693 151.31778215 238.42174884 151.31018512 230.36797142 151.2953186 C228.04962785 151.29112027 225.73128427 151.28692507 223.41294068 151.28273296 C222.25908146 151.28064591 221.10522224 151.27855885 219.91639759 151.27640855 C198.08196483 151.23858399 176.24766637 151.24070971 154.41321441 151.25434721 C134.4385101 151.26549489 114.4643191 151.22386486 94.48973475 151.15762627 C73.98427889 151.09015476 53.4790689 151.05981558 32.97349995 151.06906033 C21.45944683 151.07355061 9.94586791 151.06305175 -1.56809044 151.01327515 C-11.37246911 150.9712509 -21.17611374 150.9640614 -30.98052254 151.00187433 C-35.98267095 151.02019425 -40.98345085 151.02246653 -45.98549271 150.98116302 C-50.5677081 150.94374507 -55.14743449 150.95273681 -59.72955499 150.99825466 C-61.38435407 151.00662801 -63.03934389 150.99821911 -64.69394132 150.97106278 C-76.14861138 150.79591009 -81.73012273 153.03613761 -89.14367676 162.25396729 Z M-109.14367676 324.25396729 C-109.202239 328.7330781 -109.23746158 333.21208898 -109.26867676 337.69146729 C-109.28543457 338.95152588 -109.30219238 340.21158447 -109.31945801 341.50982666 C-109.37728121 352.58296902 -108.97875574 360.96794851 -101.14367676 369.25396729 C-93.07157779 376.07040641 -82.80091663 375.60186606 -72.76940918 375.56964111 C-70.71328782 375.56647822 -68.65860597 375.59002243 -66.60266113 375.61529541 C-57.58922549 375.65982013 -47.87390851 375.50550511 -40.76867676 369.19146729 C-35.00643919 363.41190205 -32.93667388 356.89942938 -32.75305176 348.80865479 C-32.7792506 346.58175302 -32.82637791 344.35500608 -32.89367676 342.12896729 C-32.91172363 340.98170166 -32.92977051 339.83443604 -32.94836426 338.65240479 C-32.99503729 335.85202305 -33.06049178 333.05346165 -33.14367676 330.25396729 C-34.13727203 330.24183701 -34.13727203 330.24183701 -35.15093994 330.22946167 C-42.09515375 330.14286898 -49.03909987 330.04334689 -55.98303223 329.93658447 C-58.56859818 329.89849023 -61.15421361 329.86360464 -63.73986816 329.83209229 C-67.47360828 329.78601451 -71.20701348 329.72809298 -74.94055176 329.66802979 C-76.08167419 329.65647858 -77.22279663 329.64492737 -78.39849854 329.63302612 C-89.14824051 329.43889119 -99.03959118 327.95879867 -109.14367676 324.25396729 Z M348.97351074 327.28131104 C341.22637424 329.69865062 333.08485078 329.45470012 325.04382324 329.57037354 C323.83436035 329.59115463 322.62489746 329.61193573 321.37878418 329.63334656 C317.53801834 329.69841772 313.6971876 329.75752881 309.85632324 329.81646729 C307.24303544 329.8596929 304.62975406 329.90330845 302.01647949 329.94732666 C295.62982815 330.05405532 289.24311311 330.1558984 282.85632324 330.25396729 C282.73871181 334.21204444 282.66860443 338.16966349 282.60632324 342.12896729 C282.57280762 343.23756104 282.53929199 344.34615479 282.50476074 345.48834229 C282.40913947 353.61615064 283.23279187 361.02523113 288.69519043 367.39996338 C295.80117276 374.52731417 304.55180203 375.58601591 314.29205322 375.62528992 C315.64839015 375.61858986 317.0047109 375.60682083 318.36096191 375.59014893 C320.4190579 375.56646458 322.47585873 375.56962121 324.53405762 375.57623291 C335.55294204 375.55447041 344.54987653 375.10836247 352.85632324 367.25396729 C359.982881 358.81462258 359.12008448 348.12524475 358.98132324 337.69146729 C358.9722998 336.396604 358.96327637 335.10174072 358.95397949 333.76763916 C358.93057418 330.59621958 358.89778552 327.42519355 358.85632324 324.25396729 C355.35942407 324.25396729 352.19559785 326.00799333 348.97351074 327.28131104 Z " fill="#000000" transform="translate(131.1436767578125,56.74603271484375)"/>
<path d="M0 0 C0.81883163 -0.00525696 1.63766327 -0.01051392 2.48130798 -0.01593018 C5.16937731 -0.02905937 7.85684725 -0.0204174 10.54492188 -0.01025391 C12.42386996 -0.01227668 14.30281728 -0.01518981 16.1817627 -0.01895142 C20.11229963 -0.02336518 24.0426315 -0.01697427 27.97314453 -0.00292969 C33.00011775 0.01416159 38.02661037 0.00431533 43.05356598 -0.01364708 C46.93129061 -0.02451054 50.80890213 -0.02102682 54.68663025 -0.0132637 C56.53970904 -0.01126878 58.39279825 -0.013696 60.24586487 -0.02070236 C62.83996613 -0.02835912 65.43329938 -0.01665395 68.02734375 0 C68.78599228 -0.00607269 69.54464081 -0.01214539 70.32627869 -0.0184021 C75.42427024 0.04193894 79.04395268 0.85645742 83.51367188 3.38818359 C86.57615989 7.05690841 86.89482109 10.03977658 86.91772461 14.7355957 C86.93040878 15.99718002 86.94309296 17.25876434 86.9561615 18.55857849 C86.95410984 19.92756312 86.95112164 21.29654661 86.94726562 22.66552734 C86.95183029 24.07890574 86.95713671 25.49228193 86.96315002 26.90565491 C86.97207025 29.86370883 86.96967083 32.82149262 86.9597168 35.77954102 C86.94823069 39.56030134 86.96843726 43.34012714 86.99763393 47.12076473 C87.01602812 50.03855764 87.01569714 52.95612794 87.00999641 55.87396431 C87.00984358 57.26735304 87.01585682 58.66075722 87.02828789 60.0540905 C87.12196263 72.27489766 87.12196263 72.27489766 84.79516602 76.16381836 C80.15648343 80.68634774 75.26321238 80.68240709 69.05493164 80.6628418 C67.79545212 80.67050819 67.79545212 80.67050819 66.51052856 80.67832947 C63.74197207 80.69220061 60.97366519 80.69127062 58.20507812 80.68896484 C56.27603564 80.69285303 54.34699401 80.69718795 52.41795349 80.70195007 C48.37715885 80.70940687 44.33645158 80.70912483 40.2956543 80.70385742 C35.12282166 80.69806239 29.95034703 80.71499728 24.77757359 80.7382021 C20.79438696 80.75294827 16.8112864 80.75380994 12.82807732 80.75069237 C10.92113473 80.7512051 9.01418726 80.75643375 7.10727119 80.76650429 C4.43854765 80.77886898 1.77051942 80.77207698 -0.89819336 80.76049805 C-1.68228073 80.76814178 -2.4663681 80.77578552 -3.2742157 80.78366089 C-8.03414005 80.73811497 -11.46404111 80.19803537 -15.48632812 77.38818359 C-18.18584952 73.30128759 -18.86348647 70.06517345 -18.87451172 65.21850586 C-18.8839682 64.02028702 -18.89342468 62.82206818 -18.90316772 61.58753967 C-18.89709503 60.30616623 -18.89102234 59.02479279 -18.88476562 57.70458984 C-18.88678948 56.362298 -18.88970351 55.02000722 -18.89346313 53.67771912 C-18.89787342 50.87105796 -18.89149875 48.06468424 -18.87744141 45.25805664 C-18.86036638 41.67596018 -18.87018754 38.09453901 -18.8881588 34.51246738 C-18.8990462 31.74219255 -18.89552748 28.9720754 -18.88777542 26.20179558 C-18.88482469 24.2437839 -18.89387372 22.28576589 -18.90316772 20.32777405 C-18.80843965 8.29332324 -18.80843965 8.29332324 -15.48632812 3.38818359 C-10.19090495 0.55591036 -5.93941077 -0.04754272 0 0 Z M4.51367188 23.38818359 C4.51367188 34.60818359 4.51367188 45.82818359 4.51367188 57.38818359 C23.98367188 57.38818359 43.45367187 57.38818359 63.51367188 57.38818359 C63.51367188 46.16818359 63.51367188 34.94818359 63.51367188 23.38818359 C44.04367187 23.38818359 24.57367188 23.38818359 4.51367188 23.38818359 Z " fill="#000000" transform="translate(374.486328125,251.61181640625)"/>
<path d="M0 0 C0.81883163 -0.00525696 1.63766327 -0.01051392 2.48130798 -0.01593018 C5.16937731 -0.02905937 7.85684725 -0.0204174 10.54492188 -0.01025391 C12.42386996 -0.01227668 14.30281728 -0.01518981 16.1817627 -0.01895142 C20.11229963 -0.02336518 24.0426315 -0.01697427 27.97314453 -0.00292969 C33.00011775 0.01416159 38.02661037 0.00431533 43.05356598 -0.01364708 C46.93129061 -0.02451054 50.80890213 -0.02102682 54.68663025 -0.0132637 C56.53970904 -0.01126878 58.39279825 -0.013696 60.24586487 -0.02070236 C62.83996613 -0.02835912 65.43329938 -0.01665395 68.02734375 0 C68.78599228 -0.00607269 69.54464081 -0.01214539 70.32627869 -0.0184021 C75.4170919 0.04185397 79.00220428 0.97521139 83.51367188 3.38818359 C87.73822155 9.62578458 86.94672247 16.9125632 86.91210938 24.20458984 C86.91413367 25.54784808 86.91704806 26.89110524 86.92080688 28.23435974 C86.92521206 31.03924094 86.91885708 33.84383411 86.90478516 36.64868164 C86.88767727 40.23196821 86.89755533 43.81458133 86.91550255 47.39784336 C86.92637554 50.16807574 86.92287835 52.93815007 86.91511917 55.70838737 C86.91216438 57.6681093 86.92122404 59.62783753 86.93051147 61.58753967 C86.91632675 63.38486794 86.91632675 63.38486794 86.90185547 65.21850586 C86.89946869 66.2677272 86.89708191 67.31694855 86.8946228 68.39796448 C86.43021113 72.04329661 85.54180651 74.31772253 83.51367188 77.38818359 C78.76918975 80.69952547 74.51095416 80.81958949 68.94140625 80.77636719 C68.10160721 80.78162415 67.26180817 80.7868811 66.39656067 80.79229736 C63.63332262 80.80545136 60.87066532 80.79677566 58.10742188 80.78662109 C56.17980845 80.78864315 54.25219577 80.79155569 52.32458496 80.7953186 C48.28972064 80.79973572 44.25505592 80.79333057 40.22021484 80.77929688 C35.05523541 80.76220541 29.8907237 80.77204986 24.72576141 80.79001427 C20.74685153 80.80086861 16.76805205 80.79739818 12.78913879 80.78963089 C10.88499394 80.78763345 8.98083898 80.7900721 7.07670593 80.79706955 C4.41284739 80.80471117 1.74974026 80.79304201 -0.9140625 80.77636719 C-1.69657883 80.78243988 -2.47909515 80.78851257 -3.2853241 80.79476929 C-8.04962943 80.73968038 -11.42106135 80.1296608 -15.48632812 77.38818359 C-18.4977487 73.66235445 -18.86437465 70.74253329 -18.87451172 66.02490234 C-18.8839682 64.76009033 -18.89342468 63.49527832 -18.90316772 62.19213867 C-18.89779768 60.81998378 -18.89164465 59.44783175 -18.88476562 58.07568359 C-18.88678817 56.65991059 -18.88970112 55.2441386 -18.89346313 53.82836914 C-18.89787803 50.8661097 -18.89148269 47.90412227 -18.87744141 44.94189453 C-18.86034963 41.15219977 -18.87019535 37.36314247 -18.8881588 33.57347107 C-18.89901945 30.65144074 -18.89553992 27.72956058 -18.88777542 24.80752563 C-18.8857797 23.41053186 -18.88821058 22.01352428 -18.89521408 20.61654663 C-18.90286523 18.66152216 -18.88912834 16.70644964 -18.87451172 14.75146484 C-18.87212494 13.6406958 -18.86973816 12.52992676 -18.86727905 11.38549805 C-18.41827386 7.852734 -17.77350002 6.12550804 -15.48632812 3.38818359 C-10.26707864 0.43191052 -5.91530802 -0.04734979 0 0 Z M4.51367188 23.38818359 C4.51367188 34.60818359 4.51367188 45.82818359 4.51367188 57.38818359 C23.98367187 57.38818359 43.45367187 57.38818359 63.51367188 57.38818359 C63.51367188 46.16818359 63.51367188 34.94818359 63.51367188 23.38818359 C44.04367188 23.38818359 24.57367188 23.38818359 4.51367188 23.38818359 Z " fill="#000000" transform="translate(69.486328125,251.61181640625)"/>
<path d="M0 0 C1.59597771 -0.0076664 1.59597771 -0.0076664 3.22419739 -0.01548767 C6.73944736 -0.02938169 10.25450123 -0.02842707 13.76977539 -0.02612305 C16.21448337 -0.03000995 18.65919067 -0.0343446 21.10389709 -0.03910828 C26.22749013 -0.04656999 31.35101425 -0.04627943 36.47460938 -0.04101562 C43.03969816 -0.03521976 49.60450493 -0.05215535 56.16954708 -0.0753603 C61.21816151 -0.09009289 66.26670793 -0.09096999 71.31534004 -0.08785057 C73.73584108 -0.08836397 76.1563459 -0.09360525 78.5768261 -0.10366249 C81.96156006 -0.11600062 85.34574357 -0.10925057 88.73046875 -0.09765625 C89.72962311 -0.10529999 90.72877747 -0.11294373 91.75820923 -0.12081909 C97.99222237 -0.07362688 102.42953613 0.67431543 107.30493164 4.8996582 C109.089189 8.66642374 109.19896889 12.19664415 108.42993164 16.2746582 C106.49651615 19.8451803 104.34637265 21.96917787 100.42993164 23.2746582 C98.90582659 23.36984786 97.37792521 23.40953785 95.8508606 23.4151001 C94.91157715 23.42081024 93.9722937 23.42652039 93.00454712 23.43240356 C91.97590546 23.43352142 90.94726379 23.43463928 89.88745117 23.43579102 C88.26024139 23.44323837 88.26024139 23.44323837 86.60015869 23.45083618 C83.00434744 23.4654653 79.40858029 23.47226073 75.81274414 23.4777832 C73.31794228 23.48353359 70.82314045 23.48929134 68.32833862 23.49505615 C63.76365737 23.50422394 59.19898881 23.51052369 54.6342994 23.5135529 C48.58742924 23.51758801 42.54071425 23.52987442 36.49389648 23.5559082 C30.00653449 23.58341015 23.51930575 23.59629908 17.03188705 23.59822845 C14.55752326 23.60125875 12.0831604 23.60929989 9.6088295 23.62241364 C6.1494625 23.63944062 2.6905929 23.63760192 -0.76879883 23.63110352 C-1.79339203 23.6403183 -2.81798523 23.64953308 -3.87362671 23.6590271 C-10.11000856 23.62227134 -13.63981206 22.90178454 -18.38256836 18.6496582 C-20.2488415 14.91711193 -20.22646204 11.35888556 -19.57006836 7.2746582 C-15.0644421 -0.56846899 -8.11262278 -0.02007469 0 0 Z " fill="#000000" transform="translate(211.570068359375,297.725341796875)"/>
<path d="M0 0 C1.5645266 -0.0076664 1.5645266 -0.0076664 3.16065979 -0.01548767 C6.60073622 -0.02936213 10.04061184 -0.02842856 13.48071289 -0.02612305 C15.87675552 -0.03001098 18.27279745 -0.03434585 20.6688385 -0.03910828 C25.68810257 -0.04656575 30.7072963 -0.04628247 35.7265625 -0.04101562 C42.15364297 -0.03521987 48.58043538 -0.05215712 55.00746822 -0.0753603 C59.95489684 -0.09010234 64.90225614 -0.09096871 69.84970284 -0.08785057 C72.21913791 -0.08836348 74.5885769 -0.09359557 76.95799065 -0.10366249 C80.27296475 -0.11601913 83.58737841 -0.1092395 86.90234375 -0.09765625 C87.87763031 -0.10529999 88.85291687 -0.11294373 89.85775757 -0.12081909 C95.51340802 -0.07720982 99.522735 0.55090802 104.51586914 3.2746582 C107.47507562 6.61569778 108.10225431 9.8115598 107.94165039 14.2746582 C107.16421284 17.92647496 105.18975142 19.72514254 102.51586914 22.2746582 C99.66611626 23.22457583 97.89239282 23.40433451 94.9367981 23.4151001 C93.99751465 23.42081024 93.0582312 23.42652039 92.09048462 23.43240356 C91.06184296 23.43352142 90.03320129 23.43463928 88.97338867 23.43579102 C87.34617889 23.44323837 87.34617889 23.44323837 85.68609619 23.45083618 C82.09028494 23.4654653 78.49451779 23.47226073 74.89868164 23.4777832 C72.40387978 23.48353359 69.90907795 23.48929134 67.41427612 23.49505615 C62.84959487 23.50422394 58.28492631 23.51052369 53.7202369 23.5135529 C47.67336674 23.51758801 41.62665175 23.52987442 35.57983398 23.5559082 C29.09247199 23.58341015 22.60524325 23.59629908 16.11782455 23.59822845 C13.64346076 23.60125875 11.1690979 23.60929989 8.694767 23.62241364 C5.2354 23.63944062 1.7765304 23.63760192 -1.68286133 23.63110352 C-2.70745453 23.6403183 -3.73204773 23.64953308 -4.78768921 23.6590271 C-11.0231011 23.62227706 -14.61850867 22.94265128 -19.29663086 18.5871582 C-21.05290367 15.16704799 -21.11951335 11.98700533 -20.48413086 8.2746582 C-18.76013759 4.6940568 -17.63000166 2.80177434 -13.99095154 1.12776184 C-9.2837466 -0.01735906 -4.82777221 -0.01223808 0 0 Z " fill="#000000" transform="translate(212.484130859375,263.725341796875)"/>
</svg>
