<?xml version="1.0" encoding="UTF-8"?>
<svg version="1.1" xmlns="http://www.w3.org/2000/svg" width="512" height="512">
<path d="M0 0 C1.58554687 0.56074219 1.58554687 0.56074219 3.203125 1.1328125 C16.19715665 6.16383501 26.14855729 13.39268926 36 23 C36.65742188 23.58394531 37.31484375 24.16789062 37.9921875 24.76953125 C51.34073945 36.91855895 59.24055119 56.55921188 62 74 C62.07368876 76.43718741 62.13520935 78.87475961 62.1875 81.3125 C62.4617374 87.06183889 63.35887222 90.49850146 67.2421875 94.78515625 C69.60036822 97.75646395 71.15642198 101.01968344 72.75 104.4375 C73.04342285 105.04658203 73.3368457 105.65566406 73.63916016 106.28320312 C81.50535007 123.38796272 79.16202066 143.8760887 75 161.625 C70.56779438 177.59152716 70.56779438 177.59152716 73.1953125 193.41796875 C74.96270864 195.62507939 76.77814507 197.25096195 79 199 C79.86882812 199.69996094 80.73765625 200.39992188 81.6328125 201.12109375 C83.51163488 202.63095519 85.39317691 204.13743825 87.27734375 205.640625 C92.52196873 210.18546501 97.27262666 215.45151974 99.625 222.0625 C100.305625 223.5165625 100.305625 223.5165625 101 225 C104.08369887 226.05749557 104.08369887 226.05749557 107 226 C109.40986841 222.38519738 109.29525485 220.60834032 109.38574219 216.30053711 C109.40209717 215.62365845 109.41845215 214.94677979 109.43530273 214.24938965 C109.48492693 212.00874307 109.51802923 209.76835024 109.546875 207.52734375 C109.56284603 206.37522494 109.56284603 206.37522494 109.57913971 205.19983101 C109.63258234 201.12943647 109.67132697 197.05916377 109.70019531 192.98852539 C109.72680783 189.63258986 109.78236779 186.27910666 109.86425781 182.92407227 C109.96340713 178.86132331 110.01249419 174.80078616 110.02664948 170.73687935 C110.0400004 169.19584546 110.07025414 167.6548538 110.11843109 166.1145153 C110.44941142 157.03355542 110.44941142 157.03355542 106.81262207 148.90774536 C104.3177959 146.4236752 101.71622352 144.23391276 99 142 C93.87037398 135.72337981 93.15924962 129.69197647 93.45703125 121.66796875 C94.41880105 115.1708332 97.00878817 110.43728371 102.109375 106.28125 C107.10416667 103 107.10416667 103 110 103 C109.95359375 102.3709375 109.9071875 101.741875 109.859375 101.09375 C109.59291919 94.77494076 110.17306749 90.14876992 114 85 C118.72048383 80.00357974 123.15594546 76.34959304 130.19458008 75.70947266 C133.38147941 75.66899166 136.56793165 75.6286325 139.75512695 75.62939453 C141.79659286 75.62503398 143.8358708 75.58871134 145.87695312 75.55078125 C154.66265239 75.52474955 160.46403122 76.02510053 167.2421875 81.96484375 C168.05042969 82.94130859 168.05042969 82.94130859 168.875 83.9375 C169.42929687 84.58589844 169.98359375 85.23429687 170.5546875 85.90234375 C173.53366354 90.22588465 174.25123356 93.96606186 174.26742554 99.17041016 C174.28022049 101.03310295 174.28022049 101.03310295 174.29327393 102.9334259 C174.29257494 104.30197156 174.2916519 105.67051712 174.29052734 107.0390625 C174.29651483 108.48667242 174.30332089 109.93427916 174.31088257 111.38188171 C174.32853626 115.31003629 174.33323793 119.23810369 174.33451414 123.1662941 C174.33593768 125.62530671 174.34021131 128.08429731 174.34550858 130.54330444 C174.36401306 139.13646851 174.37217945 147.72957058 174.37060547 156.32275391 C174.36940684 164.30761231 174.3904532 172.2921992 174.4220928 180.27698898 C174.448345 187.14943577 174.4589689 194.02179445 174.45769465 200.89429092 C174.45718725 204.99100538 174.46274531 209.08747895 174.48405075 213.18414307 C174.50358225 217.04532908 174.50345728 220.90604836 174.48901749 224.76725197 C174.48694597 226.17440291 174.49152985 227.5815842 174.5037384 228.9886837 C174.64195336 246.04128019 169.51511517 261.08215575 157.67578125 273.578125 C144.06525629 285.89714029 128.25240384 290.87543647 110 290 C103.03932949 289.37228312 96.1144581 288.41789065 89.1875 287.5 C82.855625 286.675 76.52375 285.85 70 285 C70 311.07 70 337.14 70 364 C6.64 364 -56.72 364 -122 364 C-122 337.93 -122 311.86 -122 285 C-134.5796917 286.63637177 -134.5796917 286.63637177 -147.15698242 288.29101562 C-168.67128127 291.07624642 -187.1830481 290.90365067 -205.25 277.25 C-215.95840723 268.17187912 -223.68871114 256.00874225 -226 242 C-226.298705 237.18177429 -226.29450214 232.36665387 -226.29052734 227.54101562 C-226.29651982 226.08485065 -226.30332701 224.62868883 -226.31088257 223.17253113 C-226.32847165 219.23662565 -226.33323479 215.30080725 -226.33451414 211.36486626 C-226.33593975 208.9023588 -226.34021698 206.43987322 -226.34550858 203.97737122 C-226.36398181 195.37698978 -226.37218214 186.77667015 -226.37060547 178.17626953 C-226.36940317 170.17364078 -226.39052966 162.17128132 -226.4220928 154.16872072 C-226.44827621 147.28355284 -226.45897198 140.39847286 -226.45769465 133.5132556 C-226.45718584 129.40724413 -226.46282459 125.30147249 -226.48405075 121.19551086 C-226.50346948 117.33430007 -226.50353319 113.47355716 -226.48901749 109.61232948 C-226.48693312 108.19985073 -226.49160809 106.78734238 -226.5037384 105.37491417 C-226.57644824 96.31856616 -226.20499364 89.79854144 -220.03515625 82.7578125 C-219.38417969 82.21898437 -218.73320312 81.68015625 -218.0625 81.125 C-217.41410156 80.57070312 -216.76570313 80.01640625 -216.09765625 79.4453125 C-209.89118423 75.16897238 -203.53562693 75.62765137 -196.24487305 75.62939453 C-194.20340714 75.62503398 -192.1641292 75.58871134 -190.12304688 75.55078125 C-181.33734761 75.52474955 -175.53596878 76.02510053 -168.7578125 81.96484375 C-162.81864445 89.14015443 -161.67600952 93.73027228 -162 103 C-160.6696875 103.37125 -160.6696875 103.37125 -159.3125 103.75 C-153.3172279 106.01236683 -149.87434132 109.55700369 -146.9609375 115.1796875 C-144.6879198 121.85090204 -144.62620141 129.28325037 -147.07421875 135.90625 C-148.9647429 139.26257781 -150.76201851 142.10581403 -153.92700195 144.39186096 C-157.75983952 147.41572425 -159.74491549 149.70885767 -160.70690918 154.57810974 C-161.02968031 159.04229841 -160.90063526 163.4986984 -160.78125 167.96875 C-160.76630943 169.61638632 -160.75493099 171.26405844 -160.74694824 172.91174316 C-160.71655535 177.22648061 -160.63810978 181.53902727 -160.54931641 185.85290527 C-160.46714317 190.26361458 -160.43087009 194.67468164 -160.390625 199.0859375 C-160.30509726 207.72495829 -160.16875326 216.36220584 -160 225 C-156.89442091 225.84752339 -154.74960596 226.00233303 -151.55859375 225.4765625 C-150.72779297 225.3425 -149.89699219 225.2084375 -149.04101562 225.0703125 C-148.18185547 224.92335938 -147.32269531 224.77640625 -146.4375 224.625 C-145.57447266 224.48578125 -144.71144531 224.3465625 -143.82226562 224.203125 C-140.43008574 223.644351 -137.26851295 223.08950432 -134 222 C-134.45890625 221.31035156 -134.9178125 220.62070312 -135.390625 219.91015625 C-145.25800776 204.79813517 -148.95520884 190.15205797 -145.3515625 172.046875 C-142.15166967 160.7241773 -135.75725257 150.74530954 -126 144 C-124.67562149 143.63269841 -123.34260806 143.29375583 -122 143 C-122.00888245 142.17109253 -122.01776489 141.34218506 -122.0269165 140.48815918 C-122.10768357 132.60534784 -122.16827581 124.72267915 -122.20724869 116.8395462 C-122.2279599 112.78851911 -122.25596827 108.73783913 -122.30175781 104.68701172 C-122.34581371 100.76417219 -122.36926019 96.84166254 -122.37950897 92.91859436 C-122.38679496 91.4357434 -122.40101572 89.95290666 -122.42292023 88.47019958 C-122.76297172 64.45640974 -114.40881031 42.02636023 -97.61328125 24.6796875 C-96.75089844 23.79539063 -95.88851562 22.91109375 -95 22 C-94.41605469 21.34257812 -93.83210937 20.68515625 -93.23046875 20.0078125 C-71.26330488 -4.12826122 -29.75511952 -10.68669786 0 0 Z M-84.3359375 35.23828125 C-102.98649762 54.68451373 -106.19469993 77.97117683 -106.09765625 103.828125 C-106.09578602 105.31313021 -106.09436498 106.79813604 -106.09336853 108.28314209 C-106.08959091 112.14965587 -106.07980257 116.01613075 -106.06866455 119.88262939 C-106.05834687 123.84492466 -106.05384895 127.80722636 -106.04882812 131.76953125 C-106.03817493 139.51303837 -106.02115733 147.25651369 -106 155 C-107.41925781 155.21257446 -107.41925781 155.21257446 -108.8671875 155.42944336 C-115.06752092 156.55866555 -119.44991412 161.02020982 -123.3125 165.8125 C-129.51773912 174.82446853 -129.9710078 184.36255503 -129 195 C-128.13868959 198.38198154 -126.84635712 201.05270944 -125 204 C-124.56429687 204.74507812 -124.12859375 205.49015625 -123.6796875 206.2578125 C-112.57140715 224.16460323 -91.38416595 236.79905482 -72 244 C-72.72724594 249.52706913 -74.33445973 254.69960141 -76 260 C-87.0464668 255.51004983 -97.22157945 250.20969015 -107.3527832 243.92041016 C-109.16174401 242.84236501 -109.16174401 242.84236501 -112 242 C-114.37078154 246.74156308 -113.8986684 254.245386 -112.28125 259.203125 C-111.20012926 261.23165611 -111.20012926 261.23165611 -109 264 C-108.2575 264.99 -107.515 265.98 -106.75 267 C-103.51984852 270.71956837 -99.73371659 273.80328157 -96 277 C-89.23371599 282.86086759 -83.18399331 288.67517669 -78 296 C-65.2464004 288.10491453 -56.0514918 277.97786825 -51.6640625 263.30859375 C-49.85161758 254.27835346 -49.40076113 244.56603549 -54.15234375 236.37890625 C-56.90551026 232.83413161 -60.06613455 229.72242855 -63.42895508 226.75268555 C-64.8671875 225.4453125 -64.8671875 225.4453125 -67 223 C-66.94520449 218.71812232 -63.63454247 216.14859953 -61 213 C-59.23677979 209.55752245 -58.46937611 206.85431196 -59 203 C-61.14317926 200.95347086 -61.14317926 200.95347086 -64 199.25 C-72.18368565 193.60210427 -77.53684167 187.33519474 -82.3125 178.6875 C-82.63822998 178.10798584 -82.96395996 177.52847168 -83.29956055 176.93139648 C-91.63306186 160.99912909 -90.65020926 141.05289999 -91.0625 123.5 C-91.0832748 122.67893013 -91.10404961 121.85786026 -91.12545395 121.01190948 C-91.85437487 88.51564278 -91.85437487 88.51564278 -84.37245178 79.54962158 C-77.60604227 73.07221596 -68.29810441 68.30535681 -59 67 C-56.28051758 67.77270508 -56.28051758 67.77270508 -54 69 C-53.39720215 69.32137939 -52.7944043 69.64275879 -52.17333984 69.97387695 C-51.60824707 70.30863037 -51.0431543 70.64338379 -50.4609375 70.98828125 C-42.92329053 75.30878725 -35.61910638 78.79634273 -27.1875 81 C-26.44870605 81.19505127 -25.70991211 81.39010254 -24.94873047 81.59106445 C-11.32246836 84.87090544 2.83954983 84.12159377 16.75 84.0625 C18.81510308 84.05747502 20.88020735 84.05291388 22.9453125 84.04882812 C27.9635713 84.03790143 32.98177235 84.02069175 38 84 C37.96175799 93.68489388 37.90213061 103.36936238 37.81609726 113.05395031 C37.77678992 117.55217517 37.74452015 122.05020916 37.72900391 126.54858398 C37.71372595 130.89956407 37.67908672 135.25001883 37.63169098 139.60076332 C37.61699095 141.25066848 37.60896561 142.9006487 37.60811615 144.55061913 C37.58822043 163.8394473 32.42694266 179.74849306 19.015625 194.07421875 C17 196 17 196 14 198 C13.77862607 200.62697064 13.71837975 203.00893964 13.8125 205.625 C13.82603516 206.33140625 13.83957031 207.0378125 13.85351562 207.765625 C13.8888896 209.51074128 13.94269779 211.25546608 14 213 C21.45779106 214.17885935 28.91635089 215.3527439 36.37590981 216.52036285 C39.84002355 217.06274692 43.30385553 217.60681152 46.76708984 218.15478516 C50.75279492 218.78535041 54.73963169 219.40848142 58.7265625 220.03125 C59.96427399 220.22811401 61.20198547 220.42497803 62.47720337 220.62780762 C63.6379538 220.80799438 64.79870422 220.98818115 65.99462891 221.17382812 C67.52018906 221.41365417 67.52018906 221.41365417 69.0765686 221.6583252 C72.07820974 222.00914073 74.98078544 222.05939784 78 222 C73.73206099 216.53170314 68.73252326 210.24417442 62 208 C61.0625 206.3125 61.0625 206.3125 60 204 C59.319375 202.989375 58.63875 201.97875 57.9375 200.9375 C52.39675663 192.53701811 53.94532238 179.08414442 55.59326172 169.57763672 C56.35058385 166.03966941 57.15997431 162.51922233 58 159 C62.5101397 139.87987956 64.03742863 122.22975645 53.4375 104.9375 C51.22025045 101.53625789 51.22025045 101.53625789 48.43164062 98.63012695 C46.61381324 96.56027132 46.56134252 95.36712225 46.41015625 92.640625 C46.35069824 91.77969238 46.29124023 90.91875977 46.22998047 90.03173828 C46.14707764 88.65477783 46.14707764 88.65477783 46.0625 87.25 C44.17746784 63.77714735 35.64142187 44.66977698 17.625 29.09765625 C-13.59530284 4.14928924 -55.91923621 8.00956914 -84.3359375 35.23828125 Z M-58 86 C-60.4800977 87.64444504 -62.95911092 89.29048351 -65.4375 90.9375 C-66.14455078 91.40607422 -66.85160156 91.87464844 -67.58007812 92.35742188 C-68.25361328 92.80537109 -68.92714844 93.25332031 -69.62109375 93.71484375 C-70.2442749 94.12855225 -70.86745605 94.54226074 -71.50952148 94.96850586 C-72.98019886 95.9205145 -72.98019886 95.9205145 -74 97 C-74.10369181 98.52687174 -74.13851648 100.05849345 -74.14526367 101.58886719 C-74.15164352 102.56789001 -74.15802338 103.54691284 -74.16459656 104.55560303 C-74.16570938 105.62522278 -74.1668222 106.69484253 -74.16796875 107.796875 C-74.17129715 108.89662659 -74.17462555 109.99637817 -74.17805481 111.12945557 C-74.18313361 113.46992575 -74.18546284 115.81040322 -74.18530273 118.15087891 C-74.1874653 121.69316047 -74.20554385 125.23511838 -74.22460938 128.77734375 C-74.27678765 149.33285072 -73.94611976 166.66886553 -58.8984375 182.1640625 C-48.00753322 192.43922661 -36.15058708 195.6436902 -21.51953125 195.30859375 C-8.7598406 194.66728292 1.76533495 188.06752345 10.40625 178.9375 C20.7692978 166.33928502 22.17868241 152.37471305 22.09765625 136.62109375 C22.0962413 135.56841812 22.09482635 134.51574249 22.09336853 133.4311676 C22.08781296 130.09991501 22.07526888 126.76873196 22.0625 123.4375 C22.05747925 121.1660166 22.05291735 118.89453214 22.04882812 116.62304688 C22.03785812 111.0820079 22.02116483 105.54100892 22 100 C20.81672119 99.9906543 19.63344238 99.98130859 18.41430664 99.97167969 C13.93901659 99.93119723 9.46437289 99.86529142 4.98950195 99.79248047 C3.06868927 99.76460313 1.14776895 99.74322713 -0.77319336 99.72900391 C-16.34458249 99.60693919 -30.71203391 98.07117207 -45.1875 91.9375 C-46.35667969 91.45152344 -47.52585938 90.96554688 -48.73046875 90.46484375 C-51.86767767 89.0592842 -54.93961727 87.56502121 -58 86 Z M-208 95 C-210.57726456 99.55351343 -210.25701905 104.16224059 -210.1953125 109.23828125 C-210.1924826 110.11904831 -210.18965271 110.99981537 -210.18673706 111.90727234 C-210.17557833 114.70915545 -210.15048171 117.51071416 -210.125 120.3125 C-210.11496463 122.21679225 -210.10583975 124.12108952 -210.09765625 126.02539062 C-210.07565309 130.68371797 -210.04115294 135.34180406 -210 140 C-205.07490843 140.27466192 -200.15438286 140.47271023 -195.22338867 140.60424805 C-193.5516997 140.65912876 -191.88052797 140.73387405 -190.21069336 140.82983398 C-178.67652205 141.56432542 -178.67652205 141.56432542 -168.78974915 136.35762024 C-165.20661957 132.76128829 -163.14996276 130.41405353 -162.60424805 125.26831055 C-162.68913903 121.91454053 -162.68913903 121.91454053 -165 119.8125 C-171.11412957 115.74954427 -171.11412957 115.74954427 -178 114 C-177.96519531 113.05898437 -177.93039063 112.11796875 -177.89453125 111.1484375 C-177.85392578 109.28058594 -177.85392578 109.28058594 -177.8125 107.375 C-177.77769531 106.14523438 -177.74289063 104.91546875 -177.70703125 103.6484375 C-178.02981997 99.62864195 -178.74587925 97.33472961 -181 94 C-185.01013822 91.51957583 -189.34422209 91.66617559 -193.9375 91.6875 C-194.62779297 91.67138672 -195.31808594 91.65527344 -196.02929688 91.63867188 C-200.75546453 91.6341921 -204.08505143 92.32196514 -208 95 Z M128 95 C125.5800281 98.9480113 125.79009935 102.77031499 125.875 107.3125 C125.90207031 109.19388672 125.90207031 109.19388672 125.9296875 111.11328125 C125.95289063 112.06589844 125.97609375 113.01851562 126 114 C124.64841797 114.41572266 124.64841797 114.41572266 123.26953125 114.83984375 C120.41349186 115.85327708 118.20920774 116.92216584 115.6875 118.5625 C115.01074219 118.99691406 114.33398438 119.43132812 113.63671875 119.87890625 C112.03934165 120.89939697 112.03934165 120.89939697 111 122 C110.56813487 126.13926117 110.66655316 128.4156187 112.74926758 132.06567383 C117.59730556 137.37564794 121.21747481 140.53095845 128.58273315 141.03903198 C132.63217348 141.09924224 136.64581501 140.91976243 140.6875 140.6875 C142.37158338 140.63221239 144.0558429 140.58204173 145.74023438 140.53710938 C149.83124098 140.41697234 153.91363754 140.22788777 158 140 C158.07436251 134.41327806 158.12870254 128.82684661 158.16479492 123.23974609 C158.17984691 121.34060647 158.20029316 119.44150141 158.22631836 117.54248047 C158.26285992 114.80687919 158.27976238 112.071739 158.29296875 109.3359375 C158.30845261 108.49195404 158.32393646 107.64797058 158.33988953 106.77841187 C158.34130685 101.77211754 157.80214102 98.33000524 155 94 C150.98986178 91.51957583 146.65577791 91.66617559 142.0625 91.6875 C141.37220703 91.67138672 140.68191406 91.65527344 139.97070312 91.63867188 C135.24453547 91.6341921 131.91494857 92.32196514 128 95 Z M-210 156 C-210.05828922 169.01268677 -210.05828922 169.01268677 -210.09765625 182.02539062 C-210.10955533 187.34224501 -210.12354507 192.65902971 -210.15087891 197.97583008 C-210.17280499 202.26820953 -210.18460975 206.56051414 -210.18975449 210.85294533 C-210.19341512 212.48058053 -210.20056198 214.10821221 -210.21146011 215.73581505 C-210.32577653 233.53639638 -209.27484458 248.23427521 -196.44921875 261.73828125 C-187.86747621 269.66304828 -177.69579626 273.29854156 -166.09521484 273.16015625 C-160.13749265 272.85188478 -154.22699286 272.09279231 -148.3112793 271.34594727 C-146.04362354 271.06012072 -143.77491001 270.78427707 -141.50585938 270.50976562 C-134.1522653 269.73664748 -134.1522653 269.73664748 -127 268 C-127.32742187 266.8965625 -127.65484375 265.793125 -127.9921875 264.65625 C-129.26012023 259.58451908 -129.22325309 254.69985606 -129.125 249.5 C-129.11597656 248.5821875 -129.10695313 247.664375 -129.09765625 246.71875 C-129.07432432 244.47888444 -129.04159235 242.23958817 -129 240 C-135.63198716 240.41246401 -142.13938935 240.97128527 -148.6875 242.125 C-157.17451072 243.46451615 -163.78670994 243.32309387 -171.2109375 238.7421875 C-174.91159036 235.13849498 -176.80363632 231.38144496 -177.51898193 226.34889221 C-177.52786438 225.04983444 -177.53674683 223.75077667 -177.54589844 222.41235352 C-177.55623611 221.68956711 -177.56657379 220.9667807 -177.57722473 220.22209167 C-177.60648067 217.85746448 -177.60814816 215.4936996 -177.609375 213.12890625 C-177.62436839 211.47979619 -177.64109797 209.83070108 -177.65948486 208.18162537 C-177.70304092 203.8596627 -177.72313124 199.53790257 -177.73822021 195.21575928 C-177.76128759 190.02010285 -177.81370367 184.82466844 -177.86116028 179.62918854 C-177.92983962 171.75273462 -177.96139712 163.87691725 -178 156 C-188.56 156 -199.12 156 -210 156 Z M126 156 C125.98582031 161.2490625 125.97164063 166.498125 125.95703125 171.90625 C125.9369615 175.24225401 125.91543233 178.57812182 125.88867188 181.9140625 C125.8463841 187.20285328 125.80934714 192.49129863 125.80444336 197.78027344 C125.80014803 202.0470258 125.77158404 206.31300337 125.72656822 210.57951355 C125.71363246 212.20285012 125.7092716 213.82627959 125.71384621 215.44966125 C125.75004251 232.20285153 125.75004251 232.20285153 120 238 C115.00914962 242.31155173 109.41895876 242.9450898 103 243 C97.44190558 242.47509398 91.95725933 241.58988379 86.44921875 240.69140625 C84.861419 240.4421568 83.27342754 240.19412593 81.68525696 239.94725037 C77.53119924 239.29871389 73.37953863 238.63599859 69.22833252 237.96948242 C62.56856245 236.90274176 55.90529161 235.85808745 49.24210548 234.8129406 C46.92320671 234.44716179 44.60531676 234.07547295 42.28752136 233.70277405 C40.86446862 233.47695048 39.44139923 233.25123176 38.01831055 233.02563477 C36.78050339 232.82720474 35.54269623 232.62877472 34.26737976 232.42433167 C30.72274289 231.89267702 30.72274289 231.89267702 26 232 C21.05 254.11 16.1 276.22 11 299 C7.33228155 297.16614077 5.53165004 295.74937171 2.75 292.875 C1.69039062 291.78832031 1.69039062 291.78832031 0.609375 290.6796875 C-0.18726563 289.84824219 -0.18726563 289.84824219 -1 289 C-2.10096538 292.30289614 -1.92331761 293.95598942 -1.48681641 297.37353516 C-1.3498233 298.47122223 -1.2128302 299.5689093 -1.07168579 300.69985962 C-0.9165451 301.88429657 -0.76140442 303.06873352 -0.6015625 304.2890625 C-0.44714691 305.50322845 -0.29273132 306.71739441 -0.13363647 307.96835327 C0.19444127 310.53596037 0.52586128 313.10314228 0.86035156 315.66992188 C1.37367938 319.61485105 1.87514915 323.56115551 2.375 327.5078125 C2.69460985 329.99748614 3.01489914 332.48707266 3.3359375 334.9765625 C3.48702972 336.16504791 3.63812195 337.35353333 3.79379272 338.57803345 C3.93709015 339.6694162 4.08038757 340.76079895 4.22802734 341.88525391 C4.41575211 343.3339537 4.41575211 343.3339537 4.60726929 344.81192017 C4.77965155 346.97000657 4.77965155 346.97000657 6 348 C7.50418739 348.09311889 9.01271356 348.11746028 10.51977539 348.11352539 C11.49418579 348.11340454 12.46859619 348.11328369 13.47253418 348.11315918 C14.50382446 348.10804321 15.53511475 348.10292725 16.59765625 348.09765625 C17.54024292 348.09664917 18.48282959 348.09564209 19.45397949 348.09460449 C22.99016529 348.08935477 26.52633381 348.07539364 30.0625 348.0625 C37.961875 348.041875 45.86125 348.02125 54 348 C54 321.6 54 295.2 54 268 C82.54762838 269.14190514 82.54762838 269.14190514 95.9375 271.0625 C112.16789627 273.3518318 126.89361273 275.03843765 140.94140625 264.75390625 C151.97505556 255.35332078 156.56242055 245.24332867 158 231 C158.31190911 225.11269016 158.23477199 219.21737205 158.1953125 213.32421875 C158.19157247 211.66128206 158.18873019 209.99834314 158.18673706 208.33540344 C158.17917839 204.00360806 158.15959872 199.67195135 158.1373291 195.34020996 C158.11306091 190.11870437 158.10405263 184.89715187 158.09242249 179.67560577 C158.07316812 171.78364136 158.03479198 163.89197995 158 156 C147.44 156 136.88 156 126 156 Z M-5.828125 208.65625 C-17.05510578 212.56758524 -31.39151622 212.41114236 -43 210 C-44.28989948 214.1115546 -45.40180647 217.68228299 -45 222 C-43.88929327 223.81066068 -43.88929327 223.81066068 -42.3125 225.4375 C-37.8862384 230.89410277 -36.09688136 237.39389589 -34 244 C-28.83793433 243.650182 -26.10331354 240.74762067 -22.60546875 237.27734375 C-22.01325027 236.69843887 -21.4210318 236.119534 -20.81086731 235.52308655 C-19.56438781 234.29682095 -18.32325025 233.06510473 -17.0871582 231.82836914 C-15.19685635 229.94681306 -13.27694269 228.09955585 -11.35351562 226.25195312 C-10.14387859 225.05405401 -8.93613058 223.85424374 -7.73046875 222.65234375 C-7.15556198 222.10617905 -6.58065521 221.56001434 -5.98832703 220.99729919 C-2.97645681 217.91474993 -1.65519771 215.98163068 -1.6418457 211.58422852 C-1.76003662 210.40143311 -1.87822754 209.2186377 -2 208 C-4.00999265 207.88737842 -4.00999265 207.88737842 -5.828125 208.65625 Z M8 230 C1.07 236.93 -5.86 243.86 -13 251 C-10.96986589 255.06026821 -8.57604446 257.65457376 -5.375 260.75 C-4.859375 261.25660156 -4.34375 261.76320313 -3.8125 262.28515625 C-2.54616661 263.52803902 -1.2736856 264.76465276 0 266 C0.99 265.505 0.99 265.505 2 265 C2.68932897 262.66194513 3.2552112 260.38670794 3.76171875 258.0078125 C3.91663284 257.30606903 4.07154694 256.60432556 4.2311554 255.88131714 C4.55711052 254.39427789 4.87878473 252.90629488 5.1965332 251.41748047 C5.68455707 249.13874148 6.18987807 246.86433968 6.69726562 244.58984375 C7.01146622 243.14606134 7.32465097 241.70205741 7.63671875 240.2578125 C7.78872238 239.57647247 7.94072601 238.89513245 8.09733582 238.19314575 C8.77865104 234.94760779 9.0697697 233.2093091 8 230 Z M-34 260 C-35.93375701 276.69677466 -37.18588326 293.44587442 -38.45513916 310.20300293 C-38.68391517 313.21252132 -38.91587964 316.22179062 -39.1478672 319.23106289 C-39.3721117 322.14344729 -39.59479885 325.05594904 -39.81696701 327.96849251 C-39.92263808 329.35238645 -40.02869399 330.73625106 -40.13515091 332.12008476 C-40.28254265 334.0401452 -40.42769928 335.96037682 -40.57275391 337.88061523 C-40.65554596 338.96914291 -40.73833801 340.05767059 -40.82363892 341.17918396 C-40.96555808 343.44911703 -41 345.72563477 -41 348 C-31.43 348 -21.86 348 -12 348 C-12.86915773 333.73212326 -14.39050086 319.57952418 -16.10888672 305.39135742 C-16.45801625 302.49449938 -16.79040548 299.59642952 -17.10888672 296.69604492 C-17.49867005 293.1480241 -17.91772871 289.60458692 -18.35734177 286.06240654 C-18.59541492 284.08618666 -18.80452345 282.10654529 -19.0128479 280.12696838 C-20.05151832 272.07652025 -21.88260601 267.40832285 -28 262 C-28.66 261.34 -29.32 260.68 -30 260 C-31.32 260 -32.64 260 -34 260 Z M-106 291 C-106 309.81 -106 328.62 -106 348 C-90.16 348 -74.32 348 -58 348 C-56.76261963 336.24488649 -55.60345625 324.59319005 -54.875 312.8125 C-54.7881157 311.45375328 -54.70087636 310.09502921 -54.61328125 308.73632812 C-54.4054011 305.49108797 -54.20097651 302.24567369 -54 299 C-55.23833039 299.92831987 -56.47659926 300.85672181 -57.71484375 301.78515625 C-58.81481689 302.60910889 -58.81481689 302.60910889 -59.93701172 303.44970703 C-61.44432815 304.58242411 -62.94488129 305.72415702 -64.44140625 306.87109375 C-71.45803847 312.05280558 -79.05209484 315.51351894 -87 319 C-87.29132813 318.154375 -87.58265625 317.30875 -87.8828125 316.4375 C-91.67653645 305.93914441 -96.6182346 298.3888841 -105 291 C-105.33 291 -105.66 291 -106 291 Z " fill="#000000" transform="translate(282,140)"/>
<path d="M0 0 C14.35546434 11.70990834 26.06794902 27.89121936 28.30664062 46.72021484 C29.76540525 68.43149507 26.98673588 88.68958143 12.32470703 105.62963867 C7.79912338 110.59382164 2.87054504 114.96545304 -2.50195312 119.00146484 C-7.63658647 123.02862825 -9.76849743 126.16335774 -10.69335938 132.72021484 C-11.01340571 137.27956351 -11.0586345 141.84230544 -11.08398438 146.41162109 C-11.31169195 155.48197297 -13.69898579 163.4528805 -19.99023438 170.18896484 C-28.23520346 177.60187283 -36.97174874 179.30305391 -47.77539062 179.03271484 C-52.87378616 178.62606316 -56.42438402 177.46943498 -60.69335938 174.72021484 C-61.75296875 174.06666016 -61.75296875 174.06666016 -62.83398438 173.39990234 C-69.68219582 168.75833681 -73.60890678 162.70303111 -75.69335938 154.72021484 C-76.07721551 150.16864538 -76.10661044 145.6039858 -76.171875 141.03857422 C-76.37336474 133.89797454 -76.96471668 127.07001198 -81.61523438 121.36083984 C-82.64390625 120.54873047 -82.64390625 120.54873047 -83.69335938 119.72021484 C-84.37914063 119.17880859 -85.06492187 118.63740234 -85.77148438 118.07958984 C-86.8465625 117.28294922 -86.8465625 117.28294922 -87.94335938 116.47021484 C-99.64287723 107.41747316 -107.36379655 96.5419382 -112.69335938 82.72021484 C-113.17482422 81.47498047 -113.17482422 81.47498047 -113.66601562 80.20458984 C-119.37823492 62.03176196 -116.62353861 40.7617465 -108.13085938 24.03271484 C-98.45977191 6.24280365 -81.37313874 -6.27370949 -62.19335938 -12.27978516 C-40.8466211 -16.74770712 -17.56549074 -13.27541846 0 0 Z M-82.69335938 18.72021484 C-94.43291957 30.77599214 -99.12793221 44.59822428 -99.05688477 61.06762695 C-98.74940792 75.95907216 -92.65207363 87.79591348 -82.77929688 98.76318359 C-80.22672934 101.15800819 -77.47767092 103.12277178 -74.63085938 105.15771484 C-65.08244472 112.15192858 -61.90862619 119.2358053 -59.69335938 130.72021484 C-57.05335937 130.72021484 -54.41335937 130.72021484 -51.69335938 130.72021484 C-51.46480768 123.85237751 -51.30741489 116.98552241 -51.19897461 110.11474609 C-51.15376514 107.77876139 -51.09238333 105.44303065 -51.0144043 103.10791016 C-50.90497221 99.7462709 -50.85414065 96.38799999 -50.81445312 93.02490234 C-50.76800156 91.98405487 -50.72154999 90.9432074 -50.6736908 89.87081909 C-50.67162754 86.894628 -50.76654087 84.55144274 -51.69335938 81.72021484 C-53.8264562 79.62407998 -55.88225569 78.28751635 -58.51747131 76.88552856 C-63.08704989 74.43825533 -65.10863961 70.46768757 -66.69335938 65.72021484 C-67.49930194 57.87633194 -67.79007827 50.12837017 -62.69335938 43.72021484 C-58.24203606 39.0157357 -54.00271421 36.06024413 -47.42382812 35.38427734 C-39.14963941 35.29305145 -33.10907922 35.54211221 -26.95117188 41.36865234 C-21.01938669 47.86807248 -20.23039492 53.5808335 -20.38476562 62.27099609 C-20.97304363 68.84630591 -23.34290528 72.7350217 -28.19335938 77.09521484 C-30.66757024 79.10832278 -32.75685195 80.25196113 -35.69335938 81.72021484 C-35.69335938 97.89021484 -35.69335938 114.06021484 -35.69335938 130.72021484 C-33.05335937 130.72021484 -30.41335937 130.72021484 -27.69335938 130.72021484 C-27.54640625 129.95837891 -27.39945312 129.19654297 -27.24804688 128.41162109 C-24.58699161 116.16159084 -19.70242351 110.22071903 -9.94799805 102.87402344 C1.02861621 94.5021529 8.91313601 82.45899296 11.30664062 68.72021484 C12.88687677 52.12245614 10.30607298 38.33055333 0.30664062 24.72021484 C-0.19351563 24.01251953 -0.69367188 23.30482422 -1.20898438 22.57568359 C-10.31764685 10.91383542 -24.79605573 4.73137322 -39.13085938 2.84521484 C-55.9684155 1.86628716 -70.21068864 7.65201105 -82.69335938 18.72021484 Z M-49.06835938 53.34521484 C-51.18042443 56.43207916 -51.30531082 58.04850615 -50.69335938 61.72021484 C-49.19335938 64.22021484 -49.19335938 64.22021484 -46.69335938 65.72021484 C-43.02165068 66.33216629 -41.40522369 66.2072799 -38.31835938 64.09521484 C-36.20629432 61.00835053 -36.08140793 59.39192354 -36.69335938 55.72021484 C-38.19335938 53.22021484 -38.19335938 53.22021484 -40.69335938 51.72021484 C-44.36506807 51.10826339 -45.98149506 51.23314979 -49.06835938 53.34521484 Z M-58.69335938 146.72021484 C-57.62783245 154.17890333 -57.50067465 154.91289957 -52.69335938 159.72021484 C-48.23846644 162.45665851 -43.77387458 162.36331803 -38.69335938 161.72021484 C-33.84313751 159.38492284 -31.20876312 156.46078344 -28.69335938 151.72021484 C-28.69335938 150.07021484 -28.69335938 148.42021484 -28.69335938 146.72021484 C-38.59335938 146.72021484 -48.49335937 146.72021484 -58.69335938 146.72021484 Z " fill="#000000" transform="translate(123.693359375,21.27978515625)"/>
<path d="M0 0 C15.18 0 30.36 0 46 0 C51 15 51 15 51 18 C52.18078125 17.41089844 53.3615625 16.82179688 54.578125 16.21484375 C56.13511383 15.45510823 57.69242236 14.69602765 59.25 13.9375 C60.02730469 13.54755859 60.80460937 13.15761719 61.60546875 12.75585938 C62.35957031 12.39169922 63.11367188 12.02753906 63.890625 11.65234375 C64.92751465 11.14175415 64.92751465 11.14175415 65.98535156 10.62084961 C68.47019104 9.8551023 69.55732872 10.16527194 72 11 C73.58869934 12.18756104 73.58869934 12.18756104 75.13208008 13.69628906 C75.71560745 14.26067688 76.29913483 14.8250647 76.90034485 15.40655518 C77.51717636 16.02004822 78.13400787 16.63354126 78.76953125 17.265625 C79.40992844 17.89603699 80.05032562 18.52644897 80.71012878 19.17596436 C82.05964138 20.51030231 83.40512058 21.84873015 84.74682617 23.19091797 C86.80685784 25.24437585 88.88966991 27.27265681 90.97460938 29.30078125 C92.28271601 30.60008822 93.58940646 31.90082285 94.89453125 33.203125 C95.52148392 33.80852112 96.14843658 34.41391724 96.79438782 35.03765869 C101.00422303 39.31593103 101.00422303 39.31593103 100.98339844 42.68920898 C100.65887695 43.45177002 100.33435547 44.21433105 100 45 C99.62572876 45.96256714 99.62572876 45.96256714 99.24389648 46.94458008 C98.95587158 47.54681396 98.66784668 48.14904785 98.37109375 48.76953125 C97.90219727 49.76049805 97.90219727 49.76049805 97.42382812 50.77148438 C97.09833984 51.44501953 96.77285156 52.11855469 96.4375 52.8125 C96.10814453 53.50537109 95.77878906 54.19824219 95.43945312 54.91210938 C94.63127749 56.61044948 93.81631623 58.30555769 93 60 C93.81791016 60.16435547 93.81791016 60.16435547 94.65234375 60.33203125 C95.40644531 60.49058594 96.16054688 60.64914063 96.9375 60.8125 C97.66839844 60.96332031 98.39929688 61.11414063 99.15234375 61.26953125 C103.1628607 62.29829211 107.072108 63.69070267 111 65 C111 80.18 111 95.36 111 111 C96 116 96 116 93 116 C93.58910156 117.18078125 94.17820312 118.3615625 94.78515625 119.578125 C95.54489177 121.13511383 96.30397235 122.69242236 97.0625 124.25 C97.45244141 125.02730469 97.84238281 125.80460937 98.24414062 126.60546875 C98.79038086 127.73662109 98.79038086 127.73662109 99.34765625 128.890625 C99.85824585 129.92751465 99.85824585 129.92751465 100.37915039 130.98535156 C101.1448977 133.47019104 100.83472806 134.55732872 100 137 C98.81243896 138.58869934 98.81243896 138.58869934 97.30371094 140.13208008 C96.45712921 141.00737114 96.45712921 141.00737114 95.59344482 141.90034485 C94.97995178 142.51717636 94.36645874 143.13400787 93.734375 143.76953125 C93.10396301 144.40992844 92.47355103 145.05032562 91.82403564 145.71012878 C90.48969769 147.05964138 89.15126985 148.40512058 87.80908203 149.74682617 C85.75562415 151.80685784 83.72734319 153.88966991 81.69921875 155.97460938 C80.39991178 157.28271601 79.09917715 158.58940646 77.796875 159.89453125 C77.19147888 160.52148392 76.58608276 161.14843658 75.96234131 161.79438782 C71.68406897 166.00422303 71.68406897 166.00422303 68.31079102 165.98339844 C67.54822998 165.65887695 66.78566895 165.33435547 66 165 C65.35828857 164.75048584 64.71657715 164.50097168 64.05541992 164.24389648 C63.15206909 163.81185913 63.15206909 163.81185913 62.23046875 163.37109375 C61.23950195 162.90219727 61.23950195 162.90219727 60.22851562 162.42382812 C59.55498047 162.09833984 58.88144531 161.77285156 58.1875 161.4375 C57.49462891 161.10814453 56.80175781 160.77878906 56.08789062 160.43945312 C54.38955052 159.63127749 52.69444231 158.81631623 51 158 C50.83564453 158.81791016 50.83564453 158.81791016 50.66796875 159.65234375 C50.50941406 160.40644531 50.35085938 161.16054687 50.1875 161.9375 C49.96126953 163.03384766 49.96126953 163.03384766 49.73046875 164.15234375 C48.70170789 168.1628607 47.30929733 172.072108 46 176 C30.82 176 15.64 176 0 176 C-5 161 -5 161 -5 158 C-6.18078125 158.58910156 -7.3615625 159.17820313 -8.578125 159.78515625 C-10.13511383 160.54489177 -11.69242236 161.30397235 -13.25 162.0625 C-14.02730469 162.45244141 -14.80460937 162.84238281 -15.60546875 163.24414062 C-16.73662109 163.79038086 -16.73662109 163.79038086 -17.890625 164.34765625 C-18.58188477 164.68804932 -19.27314453 165.02844238 -19.98535156 165.37915039 C-22.47019104 166.1448977 -23.55732872 165.83472806 -26 165 C-27.58869934 163.81243896 -27.58869934 163.81243896 -29.13208008 162.30371094 C-29.71560745 161.73932312 -30.29913483 161.1749353 -30.90034485 160.59344482 C-31.51717636 159.97995178 -32.13400787 159.36645874 -32.76953125 158.734375 C-33.40992844 158.10396301 -34.05032562 157.47355103 -34.71012878 156.82403564 C-36.05964138 155.48969769 -37.40512058 154.15126985 -38.74682617 152.80908203 C-40.80685784 150.75562415 -42.88966991 148.72734319 -44.97460938 146.69921875 C-46.28271601 145.39991178 -47.58940646 144.09917715 -48.89453125 142.796875 C-49.83496025 141.88878082 -49.83496025 141.88878082 -50.79438782 140.96234131 C-55.00422303 136.68406897 -55.00422303 136.68406897 -54.98339844 133.31079102 C-54.65887695 132.54822998 -54.33435547 131.78566895 -54 131 C-53.75048584 130.35828857 -53.50097168 129.71657715 -53.24389648 129.05541992 C-52.95587158 128.45318604 -52.66784668 127.85095215 -52.37109375 127.23046875 C-51.90219727 126.23950195 -51.90219727 126.23950195 -51.42382812 125.22851562 C-50.9355957 124.21821289 -50.9355957 124.21821289 -50.4375 123.1875 C-49.9434668 122.14819336 -49.9434668 122.14819336 -49.43945312 121.08789062 C-48.63127749 119.38955052 -47.81631623 117.69444231 -47 116 C-47.54527344 115.89042969 -48.09054687 115.78085938 -48.65234375 115.66796875 C-49.78349609 115.43013672 -49.78349609 115.43013672 -50.9375 115.1875 C-52.03384766 114.96126953 -52.03384766 114.96126953 -53.15234375 114.73046875 C-57.1628607 113.70170789 -61.072108 112.30929733 -65 111 C-65 95.82 -65 80.64 -65 65 C-50 60 -50 60 -47 60 C-47.58910156 58.81921875 -48.17820312 57.6384375 -48.78515625 56.421875 C-49.54489177 54.86488617 -50.30397235 53.30757764 -51.0625 51.75 C-51.64741211 50.58404297 -51.64741211 50.58404297 -52.24414062 49.39453125 C-52.60830078 48.64042969 -52.97246094 47.88632812 -53.34765625 47.109375 C-53.68804932 46.41811523 -54.02844238 45.72685547 -54.37915039 45.01464844 C-55.1448977 42.52980896 -54.83472806 41.44267128 -54 39 C-52.81243896 37.41130066 -52.81243896 37.41130066 -51.30371094 35.86791992 C-50.73932312 35.28439255 -50.1749353 34.70086517 -49.59344482 34.09965515 C-48.97995178 33.48282364 -48.36645874 32.86599213 -47.734375 32.23046875 C-47.10396301 31.59007156 -46.47355103 30.94967438 -45.82403564 30.28987122 C-44.48969769 28.94035862 -43.15126985 27.59487942 -41.80908203 26.25317383 C-39.75562415 24.19314216 -37.72734319 22.11033009 -35.69921875 20.02539062 C-34.39991178 18.71728399 -33.09917715 17.41059354 -31.796875 16.10546875 C-31.19147888 15.47851608 -30.58608276 14.85156342 -29.96234131 14.20561218 C-25.68406897 9.99577697 -25.68406897 9.99577697 -22.31079102 10.01660156 C-21.54822998 10.34112305 -20.78566895 10.66564453 -20 11 C-19.35828857 11.24951416 -18.71657715 11.49902832 -18.05541992 11.75610352 C-17.15206909 12.18814087 -17.15206909 12.18814087 -16.23046875 12.62890625 C-15.23950195 13.09780273 -15.23950195 13.09780273 -14.22851562 13.57617188 C-13.55498047 13.90166016 -12.88144531 14.22714844 -12.1875 14.5625 C-11.49462891 14.89185547 -10.80175781 15.22121094 -10.08789062 15.56054688 C-8.38955052 16.36872251 -6.69444231 17.18368377 -5 18 C-4.89042969 17.45472656 -4.78085937 16.90945312 -4.66796875 16.34765625 C-4.50941406 15.59355469 -4.35085938 14.83945312 -4.1875 14.0625 C-4.03667969 13.33160156 -3.88585937 12.60070312 -3.73046875 11.84765625 C-2.70170789 7.8371393 -1.30929733 3.927892 0 0 Z M13 16 C12.195625 18.8875 11.39125 21.775 10.5625 24.75 C7.98832842 33.05848714 7.98832842 33.05848714 4.7734375 36.12109375 C0.52517783 38.06051664 -2.49520296 38.29868023 -7 37 C-10.10970653 35.45127625 -13.12755301 33.77615891 -16.16015625 32.08203125 C-18.82877292 30.76152274 -18.82877292 30.76152274 -21.01171875 31.47265625 C-23.82357689 33.63264944 -26.29099695 36.08209396 -28.75 38.625 C-29.25660156 39.140625 -29.76320313 39.65625 -30.28515625 40.1875 C-31.52803902 41.45383339 -32.76465276 42.7263144 -34 44 C-32.4834308 48.89146966 -30.42158916 53.08488468 -27.92578125 57.53515625 C-26.7707211 60.61044297 -27.01322903 61.88217435 -28 65 C-28.32613281 66.18722656 -28.65226562 67.37445313 -28.98828125 68.59765625 C-31.82912249 73.40226348 -34.99780008 74.01829464 -40.1875 75.4375 C-44.5496875 76.7059375 -44.5496875 76.7059375 -49 78 C-49 84.6 -49 91.2 -49 98 C-46.1125 98.804375 -43.225 99.60875 -40.25 100.4375 C-31.94151286 103.01167158 -31.94151286 103.01167158 -28.87890625 106.2265625 C-26.93948336 110.47482217 -26.70131977 113.49520296 -28 118 C-29.54872375 121.10970653 -31.22384109 124.12755301 -32.91796875 127.16015625 C-34.23847726 129.82877292 -34.23847726 129.82877292 -33.52734375 132.01171875 C-31.36735056 134.82357689 -28.91790604 137.29099695 -26.375 139.75 C-25.859375 140.25660156 -25.34375 140.76320313 -24.8125 141.28515625 C-23.54616661 142.52803902 -22.2736856 143.76465276 -21 145 C-16.10853034 143.4834308 -11.91511532 141.42158916 -7.46484375 138.92578125 C-4.38955703 137.7707211 -3.11782565 138.01322903 0 139 C1.18722656 139.32613281 2.37445313 139.65226562 3.59765625 139.98828125 C8.40226348 142.82912249 9.01829464 145.99780008 10.4375 151.1875 C11.283125 154.095625 12.12875 157.00375 13 160 C19.6 160 26.2 160 33 160 C33.804375 157.1125 34.60875 154.225 35.4375 151.25 C38.01167158 142.94151286 38.01167158 142.94151286 41.2265625 139.87890625 C45.47482217 137.93948336 48.49520296 137.70131977 53 139 C56.10970653 140.54872375 59.12755301 142.22384109 62.16015625 143.91796875 C64.82877292 145.23847726 64.82877292 145.23847726 67.01171875 144.52734375 C69.82357689 142.36735056 72.29099695 139.91790604 74.75 137.375 C75.25660156 136.859375 75.76320313 136.34375 76.28515625 135.8125 C77.52803902 134.54616661 78.76465276 133.2736856 80 132 C78.4834308 127.10853034 76.42158916 122.91511532 73.92578125 118.46484375 C72.7707211 115.38955703 73.01322903 114.11782565 74 111 C74.32613281 109.81277344 74.65226562 108.62554687 74.98828125 107.40234375 C77.82912249 102.59773652 80.99780008 101.98170536 86.1875 100.5625 C89.095625 99.716875 92.00375 98.87125 95 98 C95 91.4 95 84.8 95 78 C92.1125 77.195625 89.225 76.39125 86.25 75.5625 C77.94151286 72.98832842 77.94151286 72.98832842 74.87890625 69.7734375 C72.93948336 65.52517783 72.70131977 62.50479704 74 58 C75.54872375 54.89029347 77.22384109 51.87244699 78.91796875 48.83984375 C80.23847726 46.17122708 80.23847726 46.17122708 79.52734375 43.98828125 C77.36735056 41.17642311 74.91790604 38.70900305 72.375 36.25 C71.859375 35.74339844 71.34375 35.23679687 70.8125 34.71484375 C69.54616661 33.47196098 68.2736856 32.23534724 67 31 C62.10853034 32.5165692 57.91511532 34.57841084 53.46484375 37.07421875 C50.38955703 38.2292789 49.11782565 37.98677097 46 37 C44.81277344 36.67386719 43.62554687 36.34773438 42.40234375 36.01171875 C37.59773652 33.17087751 36.98170536 30.00219992 35.5625 24.8125 C34.716875 21.904375 33.87125 18.99625 33 16 C26.4 16 19.8 16 13 16 Z " fill="#000000" transform="translate(393,8)"/>
<path d="M0 0 C2.44225447 1.66159248 4.74768159 3.38773224 7.0390625 5.25 C7.87179687 5.87648438 8.70453125 6.50296875 9.5625 7.1484375 C18.76036546 14.95356624 26.15845232 28.59050337 27.26025391 40.67626953 C27.73579386 51.65011278 27.93683722 62.18235196 23.0390625 72.25 C22.58015625 73.21164063 22.12125 74.17328125 21.6484375 75.1640625 C13.91897924 90.25684678 1.74462952 98.78970206 -14.12109375 104.359375 C-26.20509403 107.16217466 -40.75813646 106.70001132 -51.9609375 101.25 C-52.92257813 100.79109375 -53.88421875 100.3321875 -54.875 99.859375 C-69.96778428 92.12991674 -78.50063956 79.95556702 -84.0703125 64.08984375 C-86.87311216 52.00584347 -86.41094882 37.45280104 -80.9609375 26.25 C-80.50203125 25.28835937 -80.043125 24.32671875 -79.5703125 23.3359375 C-71.84651061 8.25419803 -59.66331626 -0.32293942 -43.7890625 -5.85546875 C-29.15360965 -9.27538579 -12.98077044 -7.67201208 0 0 Z M-60.7734375 25.5 C-67.86771815 35.31650462 -69.11450278 45.46460626 -67.9609375 57.25 C-65.70335841 68.03027414 -59.21637602 76.36109065 -50.38671875 82.7421875 C-40.41077851 88.94301348 -29.1889132 89.97308289 -17.80859375 87.58984375 C-6.62384645 83.96617387 1.84161302 76.06122995 7.359375 65.79296875 C11.41050101 56.34506299 11.6392523 45.07439536 8.4765625 35.3125 C3.89997856 24.63913815 -4.35007565 16.38908394 -15.0234375 11.8125 C-32.44033139 6.16971951 -49.16703539 11.72509814 -60.7734375 25.5 Z " fill="#000000" transform="translate(284.9609375,14.75)"/>
<path d="M0 0 C8.80288754 6.34043826 15.4186507 14.72648904 17.58203125 25.4921875 C18.92007691 37.90936834 17.85729499 48.88109459 10.39453125 59.2421875 C3.58210875 67.3274193 -4.72289951 73.55522767 -15.48876953 74.71533203 C-28.40007937 75.61089799 -39.16843729 74.04490094 -49.3515625 65.46484375 C-57.86959925 57.33325857 -62.42046403 48.68416257 -62.88867188 36.85693359 C-63.04371176 24.34263074 -60.22647828 14.71931927 -51.41796875 5.4921875 C-37.63784493 -7.66275112 -16.31305228 -10.17259803 0 0 Z M-42.19140625 21.6484375 C-46.12351302 27.55912028 -46.11660152 33.61334174 -45.41796875 40.4921875 C-43.64454442 47.13691664 -38.97130405 51.66586709 -33.41796875 55.4921875 C-27.41909871 58.43281007 -20.53513345 58.59102538 -14.10546875 56.875 C-7.97664014 54.16969675 -3.17844083 49.08355055 -0.24609375 43.1015625 C1.66008982 37.09528598 1.64641812 29.98927192 -0.91796875 24.1796875 C-4.39834133 18.24695275 -9.85358805 13.56055006 -16.41796875 11.4921875 C-28.14191837 10.06609888 -34.72539236 12.80600765 -42.19140625 21.6484375 Z " fill="#000000" transform="translate(438.41796875,61.5078125)"/>
<path d="M0 0 C3.63303084 1.69586126 5.94549046 3.73800488 8.75 6.625 C9.54921875 7.44226562 10.3484375 8.25953125 11.171875 9.1015625 C11.77515625 9.72804688 12.3784375 10.35453125 13 11 C11.60919475 14.13738154 9.98977796 16.25475281 7.56005859 18.66699219 C6.85948334 19.36741638 6.15890808 20.06784058 5.43710327 20.78948975 C4.68184357 21.53442688 3.92658386 22.27936401 3.1484375 23.046875 C2.37440582 23.81807678 1.60037415 24.58927856 0.80288696 25.3838501 C-1.66841923 27.84396856 -4.14659183 30.29703848 -6.625 32.75 C-8.30254052 34.41750894 -9.97962945 36.08547232 -11.65625 37.75390625 C-15.76560919 41.8412237 -19.88062647 45.92277696 -24 50 C-27.52344644 48.3413812 -29.79901878 46.43342692 -32.546875 43.6484375 C-33.39121094 42.79765625 -34.23554688 41.946875 -35.10546875 41.0703125 C-35.97816406 40.18085937 -36.85085937 39.29140625 -37.75 38.375 C-39.08224609 37.02921875 -39.08224609 37.02921875 -40.44140625 35.65625 C-42.63216969 33.44192996 -44.81812763 31.22307565 -47 29 C-45.30413874 25.36696916 -43.26199512 23.05450954 -40.375 20.25 C-39.55773437 19.45078125 -38.74046875 18.6515625 -37.8984375 17.828125 C-37.27195313 17.22484375 -36.64546875 16.6215625 -36 16 C-31.70621187 17.92287034 -29.22846299 20.62478869 -26 24 C-22.13671373 22.4152642 -19.71123077 19.94043113 -16.796875 16.9921875 C-16.3142218 16.50670441 -15.8315686 16.02122131 -15.33428955 15.52102661 C-13.80141438 13.97700134 -12.27565996 12.42615176 -10.75 10.875 C-9.70879639 9.82375991 -8.66713459 8.77297343 -7.625 7.72265625 C-5.07800536 5.15366996 -2.53734823 2.57851839 0 0 Z " fill="#000000" transform="translate(273,42)"/>
</svg>
