<?xml version="1.0" encoding="UTF-8"?>
<svg version="1.1" xmlns="http://www.w3.org/2000/svg" width="512" height="512">
<path d="M0 0 C15.86447002 13.78750598 26.06298141 32.35077255 27.84594727 53.43383789 C29.0416039 72.37072346 24.09804002 87.81334932 14.85498047 104.08154297 C4.74432951 121.92186419 0.69302394 139.42532205 0.53198242 159.88452148 C0.43733256 165.85380814 -0.2636463 170.34268913 -2.8828125 175.75 C-4.63671875 177.421875 -4.63671875 177.421875 -6.4453125 178.5 C-9.9717729 181.19279926 -10.47586102 183.337196 -11.0703125 187.6875 C-11.19277344 188.72777344 -11.31523438 189.76804687 -11.44140625 190.83984375 C-12.08177182 195.06172298 -13.31949043 197.33223724 -15.8828125 200.75 C-16.9346875 201.3275 -17.9865625 201.905 -19.0703125 202.5 C-22.09711131 204.40811092 -22.09711131 204.40811092 -22.27734375 207.12109375 C-22.31214844 208.05050781 -22.34695312 208.97992188 -22.3828125 209.9375 C-22.63651305 216.05904881 -24.41828807 220.4718504 -28.8828125 224.75 C-35.27540839 229.35386953 -41.73569592 229.35859811 -49.3828125 229.25 C-51.01669922 229.27320313 -51.01669922 229.27320313 -52.68359375 229.296875 C-60.58832506 229.25864172 -66.26935579 228.16813472 -72.1953125 222.5625 C-75.81148086 216.53555274 -77.32921081 210.74357351 -76.8828125 203.75 C-77.6046875 203.564375 -78.3265625 203.37875 -79.0703125 203.1875 C-83.7446696 200.79838415 -86.24675167 196.65818248 -87.8828125 191.75 C-87.95084217 190.02204648 -87.96776895 188.29164635 -87.9453125 186.5625 C-87.93628906 185.66144531 -87.92726562 184.76039063 -87.91796875 183.83203125 C-87.90636719 183.14496094 -87.89476562 182.45789063 -87.8828125 181.75 C-88.6046875 181.54375 -89.3265625 181.3375 -90.0703125 181.125 C-94.88003388 178.77358066 -97.21765724 175.57164471 -99.00390625 170.6796875 C-100.23896115 166.02174868 -100.17450786 161.3531513 -100.2578125 156.5625 C-100.95563046 135.59456448 -106.11350111 117.65851716 -116.62011719 99.53613281 C-127.21331256 81.17640033 -130.41247022 60.43353968 -125.3828125 39.625 C-118.26741265 17.80774611 -105.12332612 1.28053323 -84.70996094 -9.51708984 C-57.21020034 -23.30857341 -24.00637597 -18.73668369 0 0 Z M-68.8828125 2.75 C-69.73488281 3.01683594 -70.58695313 3.28367188 -71.46484375 3.55859375 C-86.89487665 9.02592824 -97.77645171 20.97344704 -105.140625 35.17578125 C-111.01499078 47.77303231 -112.52974228 64.28787896 -108.6328125 77.75 C-105.88645325 84.58626116 -101.97745512 90.97384336 -98.38989258 97.39648438 C-91.54168499 109.7609237 -87.48850397 121.82421842 -84.8828125 135.75 C-84.49485498 137.54338853 -84.10014842 139.33534603 -83.6953125 141.125 C-83.4271875 142.32125 -83.1590625 143.5175 -82.8828125 144.75 C-78.5928125 144.75 -74.3028125 144.75 -69.8828125 144.75 C-69.8828125 125.28 -69.8828125 105.81 -69.8828125 85.75 C-75.1628125 85.09 -80.4428125 84.43 -85.8828125 83.75 C-90.7578125 81.125 -90.7578125 81.125 -93.8828125 78.75 C-94.5428125 78.75 -95.2028125 78.75 -95.8828125 78.75 C-96.57055655 77.42741528 -97.22992623 76.09013497 -97.8828125 74.75 C-98.4190625 73.80125 -98.9553125 72.8525 -99.5078125 71.875 C-102.14095577 65.62297264 -101.94520292 57.75293533 -100.2265625 51.27734375 C-97.66603715 45.54927195 -93.16492494 41.37989257 -87.5859375 38.609375 C-81.07722849 36.54013225 -72.67327763 36.47753216 -66.3828125 39.3125 C-60.16424577 43.12087277 -56.44596344 48.31469472 -54.40625 55.26171875 C-53.4687925 59.71813985 -53.12895449 64.20910468 -52.8828125 68.75 C-50.9028125 68.75 -48.9228125 68.75 -46.8828125 68.75 C-46.73585938 67.265 -46.73585938 67.265 -46.5859375 65.75 C-45.45773221 55.37812905 -44.05499441 47.86517662 -35.76171875 40.9765625 C-29.28043744 36.74553894 -22.37519581 37.07967352 -14.8828125 37.75 C-8.57203399 39.40968506 -4.51988143 43.48045128 -0.8828125 48.75 C2.08072882 54.11259858 2.73780458 60.8429389 1.4921875 66.8125 C-0.38300747 72.96510048 -3.21612095 78.0593429 -8.6953125 81.625 C-13.8828125 83.75 -13.8828125 83.75 -29.8828125 85.75 C-29.8828125 105.22 -29.8828125 124.69 -29.8828125 144.75 C-25.5928125 144.75 -21.3028125 144.75 -16.8828125 144.75 C-15.12077456 142.98796206 -15.36765999 140.54546311 -15.03466797 138.17749023 C-12.64426349 121.51860667 -7.12518531 107.29593437 1.05517578 92.66601562 C9.84822609 76.80214003 13.60216882 61.72202412 8.76708984 43.80859375 C3.41091457 26.84267719 -8.02129721 13.8699057 -23.6328125 5.5 C-38.26316231 -1.42626687 -53.52886029 -2.19667079 -68.8828125 2.75 Z M-83.2578125 55.3125 C-85.4824267 58.6494213 -85.38311485 60.81905293 -84.8828125 64.75 C-83.05166043 67.36593153 -81.97312884 67.71989455 -78.8828125 68.75 C-77.32162822 68.81740865 -75.7577873 68.83514456 -74.1953125 68.8125 C-73.38707031 68.80347656 -72.57882813 68.79445313 -71.74609375 68.78515625 C-71.13121094 68.77355469 -70.51632813 68.76195312 -69.8828125 68.75 C-69.41623154 61.25158834 -69.41623154 61.25158834 -72.8828125 54.75 C-76.61060903 52.88610173 -79.79242649 53.03264079 -83.2578125 55.3125 Z M-27.1953125 55.5625 C-29.59718001 58.67603196 -30.00787085 61.12144091 -29.9453125 64.9375 C-29.9246875 66.195625 -29.9040625 67.45375 -29.8828125 68.75 C-22.33372907 69.27785863 -22.33372907 69.27785863 -15.8828125 65.75 C-14.21890501 63.50691443 -14.21890501 63.50691443 -13.8828125 60.75 C-15.42797899 56.43674869 -15.42797899 56.43674869 -18.8828125 53.75 C-22.56293583 53.3499866 -24.2317414 53.23970103 -27.1953125 55.5625 Z M-52.8828125 85.75 C-52.8828125 105.22 -52.8828125 124.69 -52.8828125 144.75 C-50.9028125 144.75 -48.9228125 144.75 -46.8828125 144.75 C-46.8828125 125.28 -46.8828125 105.81 -46.8828125 85.75 C-48.8628125 85.75 -50.8428125 85.75 -52.8828125 85.75 Z M-82.8828125 161.75 C-82.31155896 165.49275212 -82.31155896 165.49275212 -80.8828125 166.75 C-78.91912097 166.8440067 -76.95202051 166.86743381 -74.98608398 166.86352539 C-73.09423622 166.86341209 -73.09423622 166.86341209 -71.16416931 166.86329651 C-69.77741456 166.8581891 -68.39066021 166.85297309 -67.00390625 166.84765625 C-65.59286041 166.84579201 -64.18181393 166.84436814 -62.77076721 166.84336853 C-59.05040715 166.83954379 -55.3300859 166.8297139 -51.60974121 166.81866455 C-47.81600469 166.80844948 -44.02226192 166.80387071 -40.22851562 166.79882812 C-32.77993019 166.78809158 -25.33137678 166.7710157 -17.8828125 166.75 C-17.5528125 165.1 -17.2228125 163.45 -16.8828125 161.75 C-38.6628125 161.75 -60.4428125 161.75 -82.8828125 161.75 Z M-70.8828125 183.75 C-70.4375127 188.38019987 -70.4375127 188.38019987 -68.8828125 189.75 C-66.02187033 189.86349161 -63.18597794 189.91418492 -60.32421875 189.91796875 C-59.46473129 189.92129715 -58.60524384 189.92462555 -57.7197113 189.92805481 C-55.89802589 189.9331277 -54.07633114 189.93546302 -52.25463867 189.93530273 C-49.4606196 189.93748803 -46.66699593 189.95563644 -43.87304688 189.97460938 C-42.10677219 189.9775434 -40.34049562 189.97952814 -38.57421875 189.98046875 C-37.73460098 189.98765427 -36.89498322 189.99483978 -36.02992249 190.00224304 C-31.4803849 190.18912131 -31.4803849 190.18912131 -27.8828125 187.75 C-27.8828125 186.43 -27.8828125 185.11 -27.8828125 183.75 C-42.0728125 183.75 -56.2628125 183.75 -70.8828125 183.75 Z M-59.8828125 206.75 C-59.2228125 208.4 -58.5628125 210.05 -57.8828125 211.75 C-52.2728125 211.75 -46.6628125 211.75 -40.8828125 211.75 C-40.5528125 210.1 -40.2228125 208.45 -39.8828125 206.75 C-46.4828125 206.75 -53.0828125 206.75 -59.8828125 206.75 Z " fill="#000000" transform="translate(134.8828125,149.25)"/>
<path d="M0 0 C3.72562404 0.91430173 5.4155495 2.77319512 7.70703125 5.7734375 C15.27206758 18.74982756 17.73222744 33.09313456 17.65234375 47.94921875 C17.6467041 49.04830566 17.64106445 50.14739258 17.63525391 51.27978516 C17.46183476 62.86452723 15.78196481 71.50485131 9.8125 81.56640625 C8.07526548 85.11460408 7.18769522 88.67995243 6.33984375 92.51171875 C3.9167884 103.21449159 -0.13221844 111.7380288 -8.0234375 119.5390625 C-9.91387068 121.8896966 -10.30464564 123.61163031 -10.66015625 126.57421875 C-9.5721875 126.744375 -8.48421875 126.91453125 -7.36328125 127.08984375 C9.16346273 129.77133532 26.51678397 133.65885617 37.33984375 147.57421875 C41.75337347 154.78335084 43.45218972 160.86039075 43.50097656 169.3046875 C43.50594147 169.96062897 43.51090637 170.61657043 43.51602173 171.29238892 C43.53055339 173.44884308 43.53742851 175.6052238 43.54296875 177.76171875 C43.54872551 179.26717123 43.55448318 180.7726237 43.5602417 182.27807617 C43.57072459 185.42855163 43.57658566 188.57900176 43.58007812 191.72949219 C43.58557182 195.76125057 43.60962961 199.79267278 43.63805008 203.82432556 C43.65669044 206.93160987 43.66188269 210.03881318 43.663414 213.14614868 C43.66643548 214.63247525 43.67444702 216.11880057 43.68759918 217.60507202 C43.70469751 219.68489141 43.70277137 221.76388841 43.69628906 223.84375 C43.70175751 225.61649292 43.70175751 225.61649292 43.70733643 227.42504883 C43.30110151 230.90621422 42.42662444 232.78548697 40.33984375 235.57421875 C37.62885387 236.92971369 35.50603195 236.70638736 32.46963501 236.71466064 C31.21895737 236.72037079 29.96827972 236.72608093 28.67970276 236.73196411 C27.28598032 236.73320952 25.89225778 236.73433461 24.49853516 236.73535156 C23.03676732 236.73997877 21.57500069 236.74500329 20.11323547 236.75039673 C16.13593991 236.76353176 12.15866124 236.76996778 8.18134737 236.77440739 C5.69780403 236.77733621 3.21426534 236.78144064 0.73072433 236.78591156 C-7.03590956 236.79958911 -14.80253288 236.80925463 -22.56917799 236.81311345 C-31.54176467 236.81759564 -40.51419913 236.83514988 -49.48673952 236.86411405 C-56.41757374 236.88571263 -63.34836509 236.89581675 -70.27923262 236.89715457 C-74.42093923 236.89820387 -78.56250279 236.90413811 -82.70417404 236.92197418 C-86.59969135 236.93842355 -90.4949576 236.94062577 -94.39049721 236.93183517 C-95.82077645 236.93106312 -97.25106903 236.93542966 -98.68131447 236.94529343 C-100.63282896 236.95796353 -102.58444378 236.95036243 -104.53598022 236.94171143 C-106.17471887 236.94391127 -106.17471887 236.94391127 -107.84656334 236.94615555 C-111.03586858 236.52455227 -112.39055636 235.82327112 -114.66015625 233.57421875 C-115.76230522 230.26777185 -115.80719603 227.77261153 -115.8371582 224.28955078 C-115.84999344 222.99034698 -115.86282867 221.69114319 -115.87605286 220.35256958 C-115.88422665 218.92906071 -115.89166915 217.50554749 -115.8984375 216.08203125 C-115.90251303 215.36182674 -115.90658855 214.64162224 -115.91078758 213.89959335 C-115.93165191 210.07857299 -115.94594519 206.25758844 -115.95532227 202.43652344 C-115.96631453 198.52196662 -116.00062829 194.60798964 -116.04049397 190.69363594 C-116.06688056 187.65808186 -116.07503398 184.62266042 -116.07860374 181.5870018 C-116.08342271 180.1463421 -116.09489965 178.70568638 -116.11364174 177.26514053 C-116.24917932 166.14538926 -115.7018629 153.58971216 -107.53515625 145.13671875 C-103.06401167 140.62166767 -98.34279548 137.38002187 -92.66015625 134.57421875 C-91.93828125 134.208125 -91.21640625 133.84203125 -90.47265625 133.46484375 C-82.14276567 129.7048237 -70.86777269 126.57421875 -61.66015625 126.57421875 C-62.59054747 122.43914664 -64.05378223 119.9632293 -66.91015625 116.94921875 C-76.75323573 106.20385698 -79.45035339 92.15330772 -82.10107422 78.32250977 C-83.03333307 73.50404796 -84.08858938 68.76251078 -85.36743164 64.02441406 C-88.02828717 54.15662593 -89.36727551 45.47768689 -85.05859375 35.8671875 C-81.55379725 30.12049603 -75.90045913 25.96412198 -69.66015625 23.57421875 C-68.42265625 23.42984375 -67.18515625 23.28546875 -65.91015625 23.13671875 C-64.83765625 22.95109375 -63.76515625 22.76546875 -62.66015625 22.57421875 C-61.46012282 20.7582051 -61.46012282 20.7582051 -60.66015625 18.57421875 C-55.30426036 13.76764551 -51.12783336 13.4183278 -44.16015625 13.328125 C-42.45181756 13.29519838 -40.74348436 13.26198654 -39.03515625 13.22851562 C-36.34248474 13.18102973 -33.6498373 13.1365687 -30.95703125 13.09741211 C-28.35784317 13.05774979 -25.75910003 13.00620543 -23.16015625 12.953125 C-22.35384766 12.94471085 -21.54753906 12.93629669 -20.71679688 12.92762756 C-16.86444511 12.84224651 -14.93764231 12.75920946 -11.66015625 10.57421875 C-10.98230633 8.24410966 -10.31598832 5.91062051 -9.66015625 3.57421875 C-6.90369128 0.00409845 -4.33119438 -0.20357316 0 0 Z M-3.66015625 26.57421875 C-5.57857717 27.32655862 -7.49670341 28.07966467 -9.4128418 28.83779907 C-13.03068006 30.02332399 -16.5359664 30.05356303 -20.31640625 30.0859375 C-21.49801331 30.1128643 -21.49801331 30.1128643 -22.70349121 30.14033508 C-25.18899374 30.1939818 -27.67430945 30.22818491 -30.16015625 30.26171875 C-31.85809867 30.29493232 -33.55601657 30.32942565 -35.25390625 30.36523438 C-39.389187 30.44968098 -43.52441677 30.51670731 -47.66015625 30.57421875 C-48.08433838 31.70448486 -48.50852051 32.83475098 -48.94555664 33.99926758 C-49.51137451 35.17900146 -50.07719238 36.35873535 -50.66015625 37.57421875 C-53.38969714 38.52753963 -55.29882596 38.9853242 -58.09765625 39.26171875 C-63.45808186 39.85411458 -63.45808186 39.85411458 -68.0703125 42.53125 C-70.78091275 46.01440462 -70.75509631 48.20697593 -70.66015625 52.57421875 C-69.85578125 51.72859375 -69.05140625 50.88296875 -68.22265625 50.01171875 C-65.56653569 47.83233778 -63.96549278 47.21179862 -60.53515625 47.51171875 C-55.71445879 48.35187414 -51.14328117 49.96590552 -46.5546875 51.63671875 C-40.80763558 53.49811208 -35.26675211 53.75639705 -29.28515625 53.76171875 C-28.21007812 53.78008789 -28.21007812 53.78008789 -27.11328125 53.79882812 C-21.96916919 53.81275623 -17.61892336 52.9318516 -12.66015625 51.57421875 C-6.42870224 50.95107335 -6.42870224 50.95107335 -3.34765625 53.44921875 C-2.79078125 54.15046875 -2.23390625 54.85171875 -1.66015625 55.57421875 C-0.67015625 56.56421875 -0.67015625 56.56421875 0.33984375 57.57421875 C0.87570538 42.41579154 0.87570538 42.41579154 -1.66015625 27.57421875 C-2.65015625 27.07921875 -2.65015625 27.07921875 -3.66015625 26.57421875 Z M-56.66015625 66.57421875 C-57.47452493 68.34419349 -58.28658565 70.11523027 -59.09765625 71.88671875 C-59.77634766 73.36591797 -59.77634766 73.36591797 -60.46875 74.875 C-63.38083129 81.47253498 -63.3053457 86.22342925 -61.03515625 92.94921875 C-57.6131251 101.67180863 -53.0558339 108.98355464 -44.66015625 113.57421875 C-38.85147392 116.0321422 -33.97463293 115.85995798 -28.07421875 113.72265625 C-18.43441524 109.13673031 -14.707848 100.91324088 -10.66015625 91.57421875 C-8.60438949 85.40691846 -9.42720309 80.72850953 -11.6796875 74.79296875 C-12.23233276 73.3224707 -12.23233276 73.3224707 -12.79614258 71.82226562 C-13.22382935 70.70948242 -13.22382935 70.70948242 -13.66015625 69.57421875 C-14.30339844 69.5899292 -14.94664062 69.60563965 -15.609375 69.62182617 C-27.59539577 69.87509712 -38.9826656 69.87760222 -50.7109375 67.23046875 C-53.64466102 66.46561663 -53.64466102 66.46561663 -56.66015625 66.57421875 Z M-44.66015625 131.57421875 C-44.99015625 133.88421875 -45.32015625 136.19421875 -45.66015625 138.57421875 C-41.06399847 140.94642922 -36.71402974 141.04944736 -31.66015625 140.57421875 C-28.72934951 139.70768461 -28.72934951 139.70768461 -26.66015625 138.57421875 C-26.99015625 136.26421875 -27.32015625 133.95421875 -27.66015625 131.57421875 C-33.27015625 131.57421875 -38.88015625 131.57421875 -44.66015625 131.57421875 Z M-92.97265625 154.82421875 C-98.68552309 160.66994296 -99.00165329 167.05867509 -99.00004578 174.86621094 C-98.98456192 176.02797852 -98.96907806 177.18974609 -98.953125 178.38671875 C-98.94888016 179.59618164 -98.94463531 180.80564453 -98.94026184 182.05175781 C-98.92354663 185.89281009 -98.8859064 189.73332659 -98.84765625 193.57421875 C-98.83260022 196.18749239 -98.81891342 198.8007743 -98.80664062 201.4140625 C-98.77366635 207.80098587 -98.72193243 214.18751165 -98.66015625 220.57421875 C-93.71015625 220.57421875 -88.76015625 220.57421875 -83.66015625 220.57421875 C-83.64033691 219.38868408 -83.62051758 218.20314941 -83.60009766 216.98168945 C-83.52389836 212.57392508 -83.43520302 208.16648465 -83.34277344 203.7590332 C-83.30454286 201.85317389 -83.2696797 199.94724388 -83.23828125 198.04125977 C-83.19250203 195.29808322 -83.13452895 192.55539087 -83.07421875 189.8125 C-83.06266754 188.96335526 -83.05111633 188.11421051 -83.03921509 187.23933411 C-82.9335599 182.98300422 -82.81286204 179.36882646 -80.66015625 175.57421875 C-77.17146974 173.24842774 -75.76297106 173.15556418 -71.66015625 173.57421875 C-69.50683594 174.47387695 -69.50683594 174.47387695 -67.66015625 176.57421875 C-67.01907564 179.86792564 -67.05512417 183.14492122 -67.05078125 186.4921875 C-67.02597687 187.9507592 -67.02597687 187.9507592 -67.00067139 189.438797 C-66.95206159 192.54650099 -66.93079149 195.65371522 -66.91015625 198.76171875 C-66.88200746 200.86786336 -66.85208157 202.97398502 -66.8203125 205.08007812 C-66.74295035 210.24501979 -66.70255117 215.40839749 -66.66015625 220.57421875 C-59.40015625 220.57421875 -52.14015625 220.57421875 -44.66015625 220.57421875 C-44.66015625 199.45421875 -44.66015625 178.33421875 -44.66015625 156.57421875 C-51.59015625 153.10921875 -51.59015625 153.10921875 -58.66015625 149.57421875 C-61.13515625 147.09921875 -61.13515625 147.09921875 -63.66015625 144.57421875 C-73.88247062 144.57421875 -84.71907377 148.8197877 -92.97265625 154.82421875 Z M-16.66015625 151.57421875 C-22.10515625 154.04921875 -22.10515625 154.04921875 -27.66015625 156.57421875 C-27.66015625 177.69421875 -27.66015625 198.81421875 -27.66015625 220.57421875 C-20.40015625 220.57421875 -13.14015625 220.57421875 -5.66015625 220.57421875 C-5.62148438 215.86205078 -5.62148438 215.86205078 -5.58203125 211.0546875 C-5.54363266 208.0164285 -5.49846535 204.97834047 -5.45263672 201.94018555 C-5.4243893 199.82666163 -5.40319361 197.71303132 -5.38916016 195.59936523 C-5.36778291 192.56308375 -5.32115956 189.52808646 -5.26953125 186.4921875 C-5.26830261 185.54522507 -5.26707397 184.59826263 -5.26580811 183.62260437 C-5.11964913 177.09475508 -5.11964913 177.09475508 -2.80957031 174.4777832 C0.122124 173.24536605 2.18894297 173.18035615 5.33984375 173.57421875 C8.47575945 175.3540628 9.18087111 176.09730082 10.33984375 179.57421875 C10.45249922 180.93937189 10.51566961 182.30899087 10.54516602 183.6784668 C10.57508385 184.90940315 10.57508385 184.90940315 10.60560608 186.16520691 C10.62231857 187.046548 10.63903107 187.9278891 10.65625 188.8359375 C10.6770311 189.7417305 10.69781219 190.6475235 10.71922302 191.58076477 C10.78460933 194.47433891 10.84355279 197.36800382 10.90234375 200.26171875 C10.94553935 202.22331668 10.98915398 204.18490543 11.03320312 206.14648438 C11.14027957 210.95563614 11.24157789 215.76487921 11.33984375 220.57421875 C16.28984375 220.57421875 21.23984375 220.57421875 26.33984375 220.57421875 C26.43896101 212.74547998 26.51143198 204.91710916 26.55957031 197.08789062 C26.57738024 194.42611628 26.6069066 191.76520847 26.64160156 189.10351562 C26.69029923 185.27072295 26.71285491 181.43851512 26.73046875 177.60546875 C26.75111389 176.42182739 26.77175903 175.23818604 26.79302979 174.01867676 C26.79512923 166.23198252 25.96628255 160.6125693 20.5859375 154.62109375 C15.18144314 150.74573278 9.70900427 148.44238998 3.33984375 146.57421875 C2.40527344 146.26613281 1.47070312 145.95804688 0.5078125 145.640625 C-7.82552084 143.39120775 -10.34506422 146.04851322 -16.66015625 151.57421875 Z " fill="#000000" transform="translate(285.66015625,267.42578125)"/>
<path d="M0 0 C1.56911133 -0.04350586 1.56911133 -0.04350586 3.16992188 -0.08789062 C10.8203528 -0.15119782 10.8203528 -0.15119782 14.8359375 1.99609375 C16.94484188 4.63444881 17.39549724 6.39272924 18 9.6875 C18.94059117 12.67268129 19.66542583 14.67119277 22.37695312 16.37255859 C25.83767731 17.95438815 29.39490199 19.09954174 33.03515625 20.19140625 C36.6875 21.3125 36.6875 21.3125 39.6875 23.3125 C42.89401037 23.0452908 45.17917947 22.08900933 48.125 20.75 C51.90424889 19.22503992 53.70289213 18.49931472 57.6875 19.3125 C60.65872424 21.34178294 63.12152221 23.80200281 65.6875 26.3125 C66.51636719 27.02277344 67.34523438 27.73304688 68.19921875 28.46484375 C74.27845797 33.8951218 74.27845797 33.8951218 75.359375 37.640625 C75.49063846 41.4997706 74.74039345 44.51656862 73.125 48 C71.09759504 52.6718462 72.06360268 55.67476954 73.84375 60.34765625 C74.2871875 61.34667969 74.730625 62.34570312 75.1875 63.375 C76.80708084 67.03318115 78.04870832 70.35634697 78.6875 74.3125 C79.35136719 74.48265625 80.01523437 74.6528125 80.69921875 74.828125 C82.02373047 75.19164062 82.02373047 75.19164062 83.375 75.5625 C84.24511719 75.79453125 85.11523438 76.0265625 86.01171875 76.265625 C89.22833508 77.52409679 91.20631168 78.9007727 93.6875 81.3125 C94.31860352 84.08984375 94.31860352 84.08984375 94.31640625 87.25 C94.31833984 88.39210938 94.32027344 89.53421875 94.32226562 90.7109375 C94.29841797 91.89945312 94.27457031 93.08796875 94.25 94.3125 C94.26095703 95.50101562 94.27191406 96.68953125 94.28320312 97.9140625 C94.20897903 106.68240174 94.20897903 106.68240174 91.77929688 109.61816406 C89.72852931 111.27926664 88.10416526 112.2026739 85.625 113.0625 C84.95339844 113.30484375 84.28179687 113.5471875 83.58984375 113.796875 C81.6875 114.3125 81.6875 114.3125 78.6875 114.3125 C78.3471875 116.230625 78.3471875 116.230625 78 118.1875 C77.18315239 122.0074638 75.88530271 125.02300731 74 128.4375 C71.69023167 132.81247295 71.22321336 135.43154455 72.6875 140.3125 C73.02475098 140.94929687 73.36200195 141.58609375 73.70947266 142.2421875 C75.45131631 145.92936528 75.57488423 149.35113837 74.6875 153.3125 C72.6418675 156.44672704 70.08438443 158.81881565 67.3125 161.3125 C66.61382812 161.97894531 65.91515625 162.64539063 65.1953125 163.33203125 C58.55595099 169.60112067 58.55595099 169.60112067 52.7890625 169.63671875 C50.19353793 169.23629396 48.37882695 168.16356882 46.0625 166.9375 C42.53448667 165.39163767 41.15442832 165.1753641 37.40234375 166.27734375 C34.08564772 167.83478196 30.90113749 169.55464868 27.6875 171.3125 C26.34036684 171.75137439 24.98741648 172.17365581 23.625 172.5625 C19.65988574 174.92469573 19.02579844 177.53273712 17.70703125 181.83984375 C16.46938442 184.84149295 15.19918007 186.25530169 12.6875 188.3125 C10.00195312 188.83007812 10.00195312 188.83007812 6.96875 188.84375 C5.87175781 188.84890625 4.77476562 188.8540625 3.64453125 188.859375 C2.50371094 188.84390625 1.36289062 188.8284375 0.1875 188.8125 C-1.52373047 188.83570313 -1.52373047 188.83570313 -3.26953125 188.859375 C-4.36652344 188.85421875 -5.46351563 188.8490625 -6.59375 188.84375 C-8.09518555 188.83698242 -8.09518555 188.83698242 -9.62695312 188.83007812 C-13.01633072 188.17685263 -14.18094723 186.97335839 -16.3125 184.3125 C-17.01465642 182.52106669 -17.65832383 180.70589493 -18.25 178.875 C-19.83418822 175.1686905 -20.75572833 173.63599975 -24.27734375 171.58984375 C-27.59108259 170.34861511 -30.92353036 169.32582715 -34.3125 168.3125 C-35.5749659 167.64816869 -36.82835542 166.96557209 -38.0625 166.25 C-41.80568886 165.17023398 -42.38092192 165.51196092 -45.75 167.125 C-46.42933594 167.52332031 -47.10867188 167.92164063 -47.80859375 168.33203125 C-51.44071476 169.75428144 -54.54348689 170.27688495 -58.3125 169.3125 C-61.54969879 167.16291674 -64.09744994 164.51062411 -66.75 161.6875 C-67.46865234 160.97464844 -68.18730469 160.26179687 -68.92773438 159.52734375 C-71.89316154 156.47510993 -74.02077191 154.16484436 -75.41015625 150.10546875 C-75.30139572 146.99491757 -74.6588787 145.04462157 -73.3125 142.25 C-71.45569708 138.38369654 -71.04941497 136.44018935 -72.3125 132.3125 C-73.56122499 129.06789048 -74.87766065 125.86654706 -76.22851562 122.6640625 C-77.44575306 119.71675636 -78.3125 117.53521621 -78.3125 114.3125 C-79.1375 114.23 -79.9625 114.1475 -80.8125 114.0625 C-84.97612161 113.17029537 -88.8999882 111.92568472 -92.3125 109.3125 C-95.08208314 104.7173074 -94.64383039 99.50968739 -94.625 94.3125 C-94.64111328 93.42304688 -94.65722656 92.53359375 -94.67382812 91.6171875 C-94.6774674 86.74055291 -94.6214448 83.18419051 -91.3125 79.3125 C-87.46385305 76.57496869 -82.99682606 74.89804076 -78.3125 74.3125 C-78.085625 73.219375 -77.85875 72.12625 -77.625 71 C-76.7287631 67.28984285 -75.30943147 64.10783168 -73.625 60.6875 C-71.61841981 56.38430296 -70.66303163 53.95162978 -72.3125 49.3125 C-72.57289063 48.67699219 -72.83328125 48.04148438 -73.1015625 47.38671875 C-73.37742187 46.70222656 -73.65328125 46.01773438 -73.9375 45.3125 C-74.21851563 44.69375 -74.49953125 44.075 -74.7890625 43.4375 C-75.58293974 40.21459537 -75.3494068 38.50802318 -74.3125 35.3125 C-72.07491274 32.45086954 -69.50974083 29.99363745 -66.875 27.5 C-65.83375977 26.4800293 -65.83375977 26.4800293 -64.77148438 25.43945312 C-58.62628188 19.4727173 -58.62628188 19.4727173 -54.75 19 C-50.7424478 19.36432293 -48.14016461 20.70151201 -44.65625 22.6328125 C-41.30885325 23.60355756 -39.5041325 22.61618052 -36.3125 21.3125 C-35.21550781 20.88710937 -34.11851562 20.46171875 -32.98828125 20.0234375 C-30.73755829 19.12942211 -28.4875623 18.23357446 -26.23828125 17.3359375 C-23.3125 16.3125 -23.3125 16.3125 -20.3125 16.3125 C-20.14234375 15.64863281 -19.9721875 14.98476562 -19.796875 14.30078125 C-18.38866579 9.16980622 -17.17312428 5.17312428 -13.3125 1.3125 C-9.33883205 -0.67433397 -4.36929562 0.03993872 0 0 Z M-2.3125 17.3125 C-2.64121094 18.14394531 -2.96992188 18.97539062 -3.30859375 19.83203125 C-7.11811854 28.53509195 -7.11811854 28.53509195 -10.29296875 30.6015625 C-12.4375 31.25 -12.4375 31.25 -14.75 31.75 C-17.82215712 32.42437595 -20.53876784 33.53253249 -23.4375 34.75 C-24.45585937 35.17539063 -25.47421875 35.60078125 -26.5234375 36.0390625 C-28.85481466 37.10352882 -30.91511545 38.24243735 -33.0625 39.625 C-37.87940521 42.1260854 -41.73933874 42.01390689 -46.8203125 40.62890625 C-49.01009028 39.91156525 -51.1652014 39.14756057 -53.3125 38.3125 C-55.03797435 39.99709908 -55.03797435 39.99709908 -56.3125 42.3125 C-55.76013429 44.76770717 -55.76013429 44.76770717 -54.4375 47.1875 C-52.33914696 51.39740328 -52.06997443 53.74116176 -53.3125 58.3125 C-54.34813294 60.53326669 -55.45881243 62.71992533 -56.625 64.875 C-59.6854854 70.64892946 -61.66807579 76.28348951 -63.1953125 82.66796875 C-64.62099941 86.0427591 -66.05559733 86.74880299 -69.3125 88.3125 C-70.05113281 88.69792969 -70.78976562 89.08335937 -71.55078125 89.48046875 C-72.23527344 89.81691406 -72.91976563 90.15335937 -73.625 90.5 C-74.32238281 90.84417969 -75.01976562 91.18835938 -75.73828125 91.54296875 C-76.25777344 91.79691406 -76.77726562 92.05085938 -77.3125 92.3125 C-77.3125 93.9625 -77.3125 95.6125 -77.3125 97.3125 C-76.48105469 97.580625 -75.64960938 97.84875 -74.79296875 98.125 C-66.1441998 101.24389177 -66.1441998 101.24389177 -64.0234375 103.96875 C-63.28754461 106.06116833 -62.80954899 108.1505107 -62.3125 110.3125 C-61.55048964 112.44831397 -60.75604839 114.57270932 -59.9375 116.6875 C-59.51597656 117.80382812 -59.09445312 118.92015625 -58.66015625 120.0703125 C-57.41712903 123.06078379 -55.9795837 125.75557157 -54.375 128.5625 C-52.09632383 132.94183076 -52.10854086 135.65481167 -53.55859375 140.328125 C-53.80738281 140.98296875 -54.05617188 141.6378125 -54.3125 142.3125 C-54.68375 143.323125 -55.055 144.33375 -55.4375 145.375 C-55.72625 146.014375 -56.015 146.65375 -56.3125 147.3125 C-55.1479799 148.97871425 -55.1479799 148.97871425 -53.3125 150.3125 C-50.53131761 150.09293297 -48.4278161 149.36276599 -45.875 148.25 C-41.25183197 146.55859706 -38.18671272 146.92479748 -33.68359375 148.921875 C-32.36710749 149.6256119 -31.0560826 150.33963768 -29.75 151.0625 C-24.56575556 153.84183773 -19.82478459 155.86314506 -14.0625 157.25 C-8.7779273 158.70015468 -8.7779273 158.70015468 -6.69140625 161.4453125 C-5.69468114 163.7162393 -5.00003807 165.93458172 -4.3125 168.3125 C-3.6525 169.3025 -2.9925 170.2925 -2.3125 171.3125 C0.27130177 171.56280977 0.27130177 171.56280977 2.6875 171.3125 C2.91179687 170.51585937 3.13609375 169.71921875 3.3671875 168.8984375 C6.46796117 160.56890822 6.46796117 160.56890822 10.56103516 158.25195312 C14.35004043 156.73117831 18.24714569 155.68959925 22.18359375 154.625 C27.05528699 153.3071719 31.07934664 151.12161734 35.328125 148.4140625 C38.31151911 147.02115333 40.42695259 147.02122443 43.6875 147.3125 C44.88375 147.828125 46.08 148.34375 47.3125 148.875 C50.43210437 150.49675097 50.43210437 150.49675097 53 150.1875 C55.04523921 149.29948612 55.04523921 149.29948612 56.6875 146.3125 C55.8685022 144.00319472 54.71708851 142.00281485 53.53515625 139.859375 C51.98150026 135.19124732 53.19839061 131.39341891 55.17578125 127.0234375 C56.07876953 125.37214844 56.07876953 125.37214844 57 123.6875 C59.56353265 118.91438176 61.30115962 114.4828615 62.625 109.1875 C64.14636868 103.79057576 64.14636868 103.79057576 66.53125 101.68359375 C68.56784251 100.65389866 70.49738434 99.94134509 72.6875 99.3125 C73.6775 98.9 74.6675 98.4875 75.6875 98.0625 C76.3475 97.815 77.0075 97.5675 77.6875 97.3125 C77.6875 95.6625 77.6875 94.0125 77.6875 92.3125 C77.16800781 92.05855469 76.64851562 91.80460937 76.11328125 91.54296875 C75.06720703 91.02669922 75.06720703 91.02669922 74 90.5 C73.31550781 90.16355469 72.63101563 89.82710938 71.92578125 89.48046875 C71.18714844 89.09503906 70.44851563 88.70960938 69.6875 88.3125 C68.83414063 87.94769531 67.98078125 87.58289063 67.1015625 87.20703125 C63.5203936 84.39656698 62.94418507 81.09053605 61.75 76.8125 C60.05947532 71.18843762 58.30253622 66.1913622 55.25 61.125 C53.30258623 57.78075017 52.69232806 56.59735525 52.625 52.625 C53.85584429 48.78766193 55.17918109 45.05050773 56.6875 41.3125 C55.6975 40.3225 54.7075 39.3325 53.6875 38.3125 C53.130625 38.5290625 52.57375 38.745625 52 38.96875 C51.236875 39.2471875 50.47375 39.525625 49.6875 39.8125 C48.945 40.0909375 48.2025 40.369375 47.4375 40.65625 C39.95887697 42.4409214 35.33710786 41.16071748 28.875 37.5 C23.27072382 34.48397574 18.13265983 32.27605256 11.82421875 31.078125 C8.2596617 29.8008797 7.1392662 27.22509794 5.51953125 23.953125 C5.18308594 23.16421875 4.84664063 22.3753125 4.5 21.5625 C4.15582031 20.76328125 3.81164062 19.9640625 3.45703125 19.140625 C3.20308594 18.53734375 2.94914062 17.9340625 2.6875 17.3125 C1.0375 17.3125 -0.6125 17.3125 -2.3125 17.3125 Z " fill="#000000" transform="translate(410.3125,131.6875)"/>
<path d="M0 0 C1.19367188 0.42410156 2.38734375 0.84820313 3.6171875 1.28515625 C12.32684378 4.70612628 19.61009583 9.36769466 27 15 C27.72703125 15.54140625 28.4540625 16.0828125 29.203125 16.640625 C46.81447186 30.81561149 57.13394855 53.40643252 59.55078125 75.48974609 C61.70506571 99.55848919 54.56399678 121.8912099 40 141 C39.45859375 141.72703125 38.9171875 142.4540625 38.359375 143.203125 C25.3005825 159.42768538 4.35618437 169.99142073 -16 173 C-30.6504863 173.89242166 -45.07989484 173.99815856 -59 169 C-60.19367188 168.57589844 -61.38734375 168.15179688 -62.6171875 167.71484375 C-71.34811332 164.2855195 -78.56706338 159.6387795 -86 154 C-86.67675781 153.49726563 -87.35351562 152.99453125 -88.05078125 152.4765625 C-104.21199399 139.62189674 -115.21135895 118.35492626 -118 98 C-119.04412736 83.38803061 -118.98470085 68.88262481 -114 55 C-113.57589844 53.80632812 -113.15179688 52.61265625 -112.71484375 51.3828125 C-109.2855195 42.65188668 -104.6387795 35.43293662 -99 28 C-98.49726563 27.32324219 -97.99453125 26.64648438 -97.4765625 25.94921875 C-75.26421204 -1.97671319 -32.95578661 -11.83311801 0 0 Z M-79 32 C-90.67340729 43.16755965 -100.09603189 59.03917132 -101.16113281 75.48852539 C-101.55184833 99.76513441 -96.97428752 118.42359952 -79.765625 136.32421875 C-65.51600138 150.0383173 -47.58412175 156.51993398 -28 157 C-7.3913264 156.45779388 10.56052421 147.06563395 24.625 132.375 C37.43057688 117.59759093 44.12037996 98.50851773 42.8125 78.93359375 C40.47681797 58.6006475 31.28475646 41.56213558 15.828125 28.16796875 C-13.23039949 5.89244238 -51.78946847 7.35149903 -79 32 Z " fill="#000000" transform="translate(279,12)"/>
<path d="M0 0 C10.12383007 11.30012271 14.930463 24.52411917 14.2578125 39.6953125 C13.02037033 52.3980352 7.28671599 65.35713939 -2.60546875 73.72265625 C-15.74250192 83.25790543 -28.7906674 87.66195196 -45.16796875 85.16015625 C-59.35455009 82.05856214 -70.53955798 74.33476959 -78.5859375 62.3203125 C-81.07025827 57.96959847 -82.70149028 53.41595206 -84.125 48.625 C-84.31707031 48.02300781 -84.50914062 47.42101562 -84.70703125 46.80078125 C-87.36750696 32.95138902 -84.49877001 18.76462483 -76.88671875 6.97265625 C-67.86216564 -5.0534112 -56.25739569 -12.11146251 -41.3125 -14.25 C-25.93226167 -15.15760577 -11.2956772 -10.6702454 0 0 Z M-58.125 11.625 C-65.17749932 18.92495544 -68.18381593 25.96820286 -68.5625 36.0625 C-68.25260247 46.31295684 -64.66261977 53.04405747 -57.6328125 60.421875 C-50.65595068 66.55108071 -42.75478919 68.98824401 -33.5859375 68.8359375 C-23.70337074 67.98886035 -16.61305528 63.46192263 -9.875 56.4375 C-4.3119162 49.50644478 -2.40225812 41.30181586 -2.7421875 32.54296875 C-3.90792549 23.65719037 -8.37729863 15.78749762 -15.08984375 9.90234375 C-28.36282276 0.13362321 -45.71775912 0.69424459 -58.125 11.625 Z " fill="#000000" transform="translate(446.125,190.375)"/>
<path d="M0 0 C1.9375 1.625 1.9375 1.625 3 4 C3.04125 5.155 3.0825 6.31 3.125 7.5 C3.58114411 11.02336961 3.58114411 11.02336961 5.8125 12.1640625 C7.39445056 12.82142709 8.98781368 13.45180265 10.58984375 14.05859375 C17.94106362 16.92997785 22.42893826 22.04897012 26 29 C27.13422989 33.00316432 27.40198186 34.93593037 25.9375 38.8125 C23.44470603 41.62694481 21.6860663 42.33650807 18 43 C13.44961145 42.02491674 11.65470275 39.68232962 9 36 C8.443125 35.13375 7.88625 34.2675 7.3125 33.375 C3.9861846 29.95878418 0.68902676 28.70846666 -4 28 C-9.15758858 28.1760008 -12.88873428 29.222114 -17.125 32.1875 C-19.56689778 35.85034667 -19.84811005 37.68234882 -19 42 C-14.30833889 46.93187416 -9.91530252 48.11122241 -3.375 49.4375 C7.41368242 51.90351257 17.5794637 54.77816563 24.6640625 63.8671875 C28.53137753 70.04132202 30.04561474 76.7779633 29 84 C27.1004096 92.13024689 22.95408874 97.44097506 16 102 C7.43502825 106 7.43502825 106 3 106 C3.0928125 107.60875 3.0928125 107.60875 3.1875 109.25 C3 113 3 113 2 115.375 C-1.04671522 117.85045612 -4.14171584 118.07015062 -8 118 C-10.72863257 117.21013268 -11.60583399 116.58087623 -13.1875 114.25 C-14 112 -14 112 -14 109 C-14.6539 105.88826289 -14.6539 105.88826289 -17.00390625 104.9375 C-18.76500945 104.29221028 -20.5309908 103.66013019 -22.30078125 103.0390625 C-30.55400709 99.86198859 -35.43310408 93.95786779 -39 86 C-40.24947118 81.96378691 -40.4557918 79.02010546 -38.6875 75.0625 C-37 73 -37 73 -35 72 C-32.06911263 71.71636574 -29.84635506 71.50202933 -27 72 C-24.31297417 74.46915887 -23.10738051 76.77123283 -21.5625 80.0625 C-19.02587546 84.83135414 -16.30800275 86.54219904 -11.25 88.3125 C-4.1588833 89.81100013 1.72500103 88.52012137 8 85 C8.66 85 9.32 85 10 85 C10.20625 83.7625 10.4125 82.525 10.625 81.25 C10.74101562 80.55390625 10.85703125 79.8578125 10.9765625 79.140625 C11.00552614 76.49527881 10.37389778 75.24824633 9 73 C3.79221542 69.14786237 -2.67212077 67.95667492 -8.875 66.625 C-19.18576081 64.21818165 -27.87619812 61.09291794 -34 52 C-37.95124345 45.18751129 -38.16228698 37.87053591 -36.34375 30.25 C-33.32401029 21.71142565 -27.93757275 16.54395089 -19.89453125 12.62890625 C-18 12 -18 12 -14 12 C-14.04125 10.9275 -14.0825 9.855 -14.125 8.75 C-13.95462478 3.63874346 -13.95462478 3.63874346 -12 1 C-8.42627733 -1.88646831 -4.17947403 -1.20937972 0 0 Z " fill="#000000" transform="translate(255,38)"/>
<path d="M0 0 C5.1891697 4.30061324 8.53724297 10.02565065 12.1875 15.625 C12.81591797 16.57890625 13.44433594 17.5328125 14.09179688 18.515625 C15.25290196 20.27901454 16.41162336 22.04397769 17.56713867 23.81103516 C18.70298086 25.54624746 19.84960218 27.27440327 21 29 C21.66666667 36 21.66666667 36 19.375 39.4375 C16.4340868 41.37231132 14.52349544 41.92809193 11 42 C8.67268444 40.86220128 6.83159286 39.83159286 5 38 C4.99589111 39.1552417 4.99178223 40.3104834 4.98754883 41.50073242 C4.96573676 45.79691869 4.91142598 50.09219179 4.84741211 54.38793945 C4.82425012 56.24527213 4.8098406 58.10273582 4.80444336 59.96020508 C4.79514038 62.634455 4.75412303 65.30664968 4.70703125 67.98046875 C4.71293022 69.2213752 4.71293022 69.2213752 4.71894836 70.48735046 C4.61111806 74.77151138 4.3691322 76.51987624 1.67456055 80.0246582 C-1 82 -1 82 -4.5 82.625 C-9.01033863 81.81958239 -10.2201785 80.61566494 -13 77 C-13.72519052 73.99155401 -13.72169313 71.06473793 -13.70703125 67.98046875 C-13.72215256 67.12189774 -13.73727386 66.26332672 -13.75285339 65.3787384 C-13.79569388 62.64805769 -13.80456459 59.91848314 -13.8125 57.1875 C-13.83564723 55.33135088 -13.86101305 53.475228 -13.88867188 51.61914062 C-13.95148791 47.07932946 -13.98385169 42.54020733 -14 38 C-14.42539063 38.47695312 -14.85078125 38.95390625 -15.2890625 39.4453125 C-17.99056158 41.90009934 -20.43159816 41.87695166 -24 42 C-26.94755732 40.65437601 -28.54277272 39.91445456 -30 37 C-31.28094528 29.62590962 -28.28879697 25.59300259 -24.15234375 19.60546875 C-23.35161887 18.48693881 -22.55083712 17.36844958 -21.75 16.25 C-20.96322627 15.11700692 -20.17805492 13.98289935 -19.39453125 12.84765625 C-8.93341117 -2.11979248 -8.93341117 -2.11979248 0 0 Z " fill="#000000" transform="translate(254,191)"/>
<path d="M0 0 C4.34253602 6.68082464 0.75423265 17.39621597 -0.6875 24.6875 C-0.90083984 25.83669922 -1.11417969 26.98589844 -1.33398438 28.16992188 C-3.91584232 41.47997762 -3.91584232 41.47997762 -8.125 44.9375 C-12.04340451 45.91710113 -15.72887333 45.43280511 -19.25 43.4375 C-21.04750335 40.34179978 -20.98313617 37.03746171 -21.375 33.5 C-22.18130859 34.34820312 -22.98761719 35.19640625 -23.81835938 36.0703125 C-26.82438349 39.22148625 -29.85709745 42.34581999 -32.8984375 45.46289062 C-34.20921993 46.81382549 -35.5127232 48.17186394 -36.80859375 49.53710938 C-38.67645355 51.5023729 -40.56929986 53.44031216 -42.46875 55.375 C-43.32551331 56.29369873 -43.32551331 56.29369873 -44.19958496 57.23095703 C-47.24105678 60.27571078 -49.25114741 61.87960938 -53.65429688 61.984375 C-57.375 61.5 -57.375 61.5 -59.8125 59.875 C-61.74731132 56.9340868 -62.30309193 55.02349544 -62.375 51.5 C-60.23129961 47.12368149 -57.05383952 43.91668841 -53.61328125 40.54296875 C-52.78729683 39.72122917 -52.78729683 39.72122917 -51.94462585 38.88288879 C-50.19691693 37.14631207 -48.44236001 35.41684703 -46.6875 33.6875 C-45.49628456 32.50632334 -44.30552434 31.3246874 -43.11523438 30.14257812 C-40.20706472 27.25637643 -37.29273583 24.37652935 -34.375 21.5 C-35.65375 21.20480469 -36.9325 20.90960938 -38.25 20.60546875 C-40.96583621 19.97852672 -42.208728 19.640292 -44.375 17.8125 C-45.79656521 14.52513044 -45.75455568 12.04251972 -45.375 8.5 C-43.87613328 5.87156129 -42.9423906 4.71958406 -40.09765625 3.61865234 C-39.21980469 3.44285645 -38.34195312 3.26706055 -37.4375 3.0859375 C-36.45910156 2.88226563 -35.48070312 2.67859375 -34.47265625 2.46875 C-33.45042969 2.2728125 -32.42820312 2.076875 -31.375 1.875 C-30.38371094 1.67132813 -29.39242187 1.46765625 -28.37109375 1.2578125 C-25.37640941 0.64872416 -22.37737819 0.06985856 -19.375 -0.5 C-18.35784912 -0.69706543 -17.34069824 -0.89413086 -16.29272461 -1.09716797 C-15.31827393 -1.28166504 -14.34382324 -1.46616211 -13.33984375 -1.65625 C-12.46706787 -1.82189453 -11.59429199 -1.98753906 -10.69506836 -2.15820312 C-6.41427664 -2.78885749 -3.63417992 -2.29527153 0 0 Z " fill="#000000" transform="translate(361.375,324.5)"/>
<path d="M0 0 C1.01610352 0.19674316 2.03220703 0.39348633 3.07910156 0.59619141 C4.03655273 0.79905762 4.99400391 1.00192383 5.98046875 1.2109375 C7.26860474 1.47463135 7.26860474 1.47463135 8.58276367 1.74365234 C11.38510152 2.85133215 12.31686613 4.03771677 13.8125 6.625 C14.45433966 11.03764768 14.36409864 12.87871949 11.6875 16.5 C8.54431724 18.82322204 6.61556246 19.12986444 2.8125 19.625 C3.62517334 20.40625244 4.43784668 21.18750488 5.27514648 21.99243164 C8.29644843 24.90484202 11.29760991 27.83730516 14.29321289 30.77612305 C15.59056862 32.04337171 16.89326729 33.30517502 18.20141602 34.5612793 C20.08492543 36.37171227 21.94811702 38.20109771 23.80859375 40.03515625 C24.39402451 40.58961929 24.97945526 41.14408234 25.58262634 41.71534729 C29.33568065 45.46525473 30.74029716 48.10251391 30.8125 53.625 C29.46687601 56.57255732 28.72695456 58.16777272 25.8125 59.625 C22.46795472 60.16012725 19.96026428 60.41286118 17.07080078 58.42944336 C11.14058324 53.0254867 5.45928308 47.38558228 -0.1875 41.6875 C-1.16252386 40.7074469 -2.1377828 39.7276276 -3.11328125 38.74804688 C-5.47366618 36.37597687 -7.83166905 34.0015914 -10.1875 31.625 C-10.40019531 33.54505859 -10.40019531 33.54505859 -10.6171875 35.50390625 C-10.88950245 37.96216754 -11.06152716 39.40804678 -12.3125 41.5625 C-15.28669941 43.24787966 -17.79164465 43.50790154 -21.1875 43.625 C-23.78125 42.58203125 -23.78125 42.58203125 -26.1875 40.625 C-27.16145306 38.12357398 -27.78658749 36.03117677 -28.3125 33.4375 C-28.54888184 32.38369141 -28.54888184 32.38369141 -28.79003906 31.30859375 C-29.27965141 29.08506132 -29.7360416 26.85656375 -30.1875 24.625 C-30.33993164 23.9036084 -30.49236328 23.1822168 -30.64941406 22.43896484 C-32.18803345 15.13633828 -33.57677094 8.11647952 -33.1875 0.625 C-26.23237796 -8.72843998 -9.71468494 -1.98385688 0 0 Z " fill="#000000" transform="translate(169.1875,326.375)"/>
</svg>
