<?xml version="1.0" encoding="UTF-8"?>
<svg version="1.1" xmlns="http://www.w3.org/2000/svg" width="512" height="512">
<path d="M0 0 C0.74344666 0.0012085 1.48689331 0.00241699 2.25286865 0.00366211 C45.27815161 0.19240482 81.98506063 16.94006131 113.625 45.375 C114.30046875 45.97699219 114.9759375 46.57898438 115.671875 47.19921875 C143.77518662 73.76353949 160.65417294 115.17226391 161.84375 153.33984375 C162.76120909 199.82212935 146.85453077 241.56688216 114.7734375 275.234375 C108.31899226 281.80632113 101.10151291 287.53326364 93.75 293.0625 C84.61830514 300.15377952 78.71121531 308.6394958 77.07250977 320.30957031 C76.47161236 326.08626006 76.50837299 331.84237093 76.51953125 337.64453125 C76.5060772 340.02149346 76.49105441 342.39844722 76.47460938 344.77539062 C76.45180932 348.48150272 76.43749714 352.18664931 76.44995117 355.89282227 C76.45882149 359.4982464 76.42975101 363.10180115 76.39453125 366.70703125 C76.40676224 367.79804642 76.41899323 368.88906158 76.43159485 370.01313782 C76.27869165 379.84959616 72.89780879 388.06642363 66.25 395.375 C62.43539357 398.84282403 57.76654885 401.95095063 52.5703125 402.65234375 C49.5877235 403.76033364 49.05135963 405.76299866 47.6875 408.5625 C41.38238149 420.70337336 31.50887652 428.79643231 18.625 433.375 C4.22639759 437.65688805 -11.75221343 436.7826947 -25.17578125 429.94921875 C-35.20174922 424.20099711 -43.01524125 416.8754344 -47.8203125 406.1484375 C-49.64721394 402.88939221 -50.55446844 402.45631607 -54.0625 401.4375 C-62.02227275 398.62953352 -68.3588185 392.831399 -72.375 385.375 C-74.95412628 379.50999671 -74.68892523 373.68639922 -74.71875 367.3984375 C-74.7333728 366.23680084 -74.74799561 365.07516418 -74.76306152 363.87832642 C-74.80946138 360.16891922 -74.84368957 356.45956335 -74.875 352.75 C-74.91643805 347.88262338 -74.97028287 343.01560434 -75.03125 338.1484375 C-75.03916565 336.497798 -75.03916565 336.497798 -75.04724121 334.81381226 C-75.22312025 320.90471149 -77.03586461 307.67060077 -87 297.1875 C-91.1183492 293.38173897 -95.6569101 290.159302 -100.16796875 286.83984375 C-115.75045671 275.08262526 -128.272401 259.98022097 -138.375 243.375 C-138.73045898 242.79202148 -139.08591797 242.20904297 -139.45214844 241.60839844 C-148.98085357 225.65564609 -154.91483472 207.56818479 -158.375 189.375 C-158.59929687 188.24191406 -158.82359375 187.10882813 -159.0546875 185.94140625 C-165.92614625 144.47732984 -154.88176982 101.05817026 -130.60546875 67.06201172 C-127.38860924 62.65159521 -123.99928935 58.45608204 -120.375 54.375 C-119.92979004 53.86855957 -119.48458008 53.36211914 -119.02587891 52.84033203 C-117.62398092 51.26592257 -116.19365431 49.72362951 -114.75 48.1875 C-113.46222656 46.80498047 -113.46222656 46.80498047 -112.1484375 45.39453125 C-108.64281205 42.84184342 -106.62153893 42.90427517 -102.375 43.375 C-100 44.4375 -100 44.4375 -98.375 46.375 C-97.15144894 50.42801289 -96.93610359 52.47812473 -98.8125 56.3125 C-100.78930239 58.67501992 -102.72304516 60.69828798 -104.9375 62.8125 C-129.48977402 86.81611985 -142.96199734 123.35529502 -143.72875977 157.24291992 C-143.95758728 190.31244139 -134.52051587 223.46550545 -113.375 249.375 C-112.90449219 249.96071777 -112.43398437 250.54643555 -111.94921875 251.14990234 C-103.72226073 261.32235142 -94.82860595 270.17092854 -84.25 277.9375 C-71.06136561 287.69230601 -63.56290465 298.41169287 -59.375 314.375 C-59.375 315.365 -59.375 316.355 -59.375 317.375 C-58.53419388 317.36389694 -57.69338776 317.35279388 -56.82710266 317.34135437 C-48.89674806 317.24109895 -40.96660679 317.16500816 -33.03576374 317.11593914 C-28.95854433 317.08986371 -24.88184927 317.05450463 -20.80493164 316.99780273 C-16.86915637 316.94340747 -12.93388488 316.913564 -8.99776268 316.90061378 C-7.4974188 316.89138719 -5.99710198 316.8733691 -4.49697304 316.84634972 C-2.39231804 316.80995548 -0.28973435 316.80505839 1.81518555 316.80737305 C3.01209518 316.79626999 4.20900482 316.78516693 5.44218445 316.77372742 C9.58035221 317.55547766 11.08354838 319.07799432 13.625 322.375 C13.625 326.03243868 13.43808469 328.31445475 11.1875 331.25 C7.84390344 333.65738952 5.4258376 333.49629437 1.33935547 333.48852539 C0.69532776 333.48867142 0.05130005 333.48881744 -0.61224365 333.4889679 C-2.74413402 333.4882704 -4.87593737 333.48048566 -7.0078125 333.47265625 C-8.48468986 333.47079149 -9.96156784 333.46936786 -11.43844604 333.46836853 C-15.32812199 333.46454792 -19.21776067 333.45472152 -23.10742188 333.44366455 C-27.07551571 333.43344064 -31.04361555 333.42886881 -35.01171875 333.42382812 C-42.79949616 333.41309885 -50.58724286 333.39602789 -58.375 333.375 C-58.3307811 339.38953252 -58.26087706 345.40302189 -58.16748047 351.41699219 C-58.13930934 353.46150395 -58.11807565 355.50612384 -58.10400391 357.55078125 C-58.08252113 360.49535322 -58.0358431 363.43863041 -57.984375 366.3828125 C-57.98314636 367.2924173 -57.98191772 368.20202209 -57.98065186 369.13919067 C-57.85359326 374.68350089 -57.20342456 378.0738218 -53.375 382.375 C-48.23356236 386.65859108 -44.37629017 386.95236781 -37.9765625 386.89257812 C-37.04898132 386.8995874 -36.12140015 386.90659668 -35.16571045 386.91381836 C-32.11016598 386.93137352 -29.05555332 386.91978418 -26 386.90625 C-23.87060367 386.90894562 -21.74120853 386.91282862 -19.61181641 386.91784668 C-15.15320087 386.92373838 -10.6949063 386.91518911 -6.23632812 386.89648438 C-0.52644298 386.8736953 5.18269005 386.8868201 10.89254761 386.91077423 C15.28838753 386.9252409 19.68404969 386.92062217 24.07989502 386.91026306 C26.18499847 386.90759819 28.29011815 386.91085707 30.39520264 386.92018127 C33.33942304 386.93036093 36.28243212 386.91482548 39.2265625 386.89257812 C40.52657196 386.90472351 40.52657196 386.90472351 41.85284424 386.91711426 C47.2593336 386.84158014 50.32883975 385.95434784 54.625 382.375 C59.14931513 377.29199907 59.22561345 372.8693059 59.234375 366.3828125 C59.25091125 365.43687225 59.26744751 364.49093201 59.28448486 363.5163269 C59.33286315 360.51081788 59.35431338 357.50581448 59.375 354.5 C59.40316816 352.45570387 59.43309677 350.41143119 59.46484375 348.3671875 C59.53861956 343.3698333 59.58825644 338.37275813 59.625 333.375 C58.86356689 333.39071045 58.10213379 333.4064209 57.31762695 333.42260742 C53.8576606 333.48508453 50.3978131 333.52403172 46.9375 333.5625 C45.14022461 333.60020508 45.14022461 333.60020508 43.30664062 333.63867188 C42.14970703 333.64833984 40.99277344 333.65800781 39.80078125 333.66796875 C38.73770752 333.6836792 37.67463379 333.69938965 36.5793457 333.71557617 C33.20022669 333.32603225 31.34509036 332.38295454 28.625 330.375 C27.07913124 327.28326248 27.33140479 324.78070448 27.625 321.375 C29.22363281 319.17285156 29.22363281 319.17285156 31.625 317.375 C34.74121094 316.92089844 34.74121094 316.92089844 38.359375 316.984375 C40.30263672 317.00371094 40.30263672 317.00371094 42.28515625 317.0234375 C43.64844824 317.05685634 45.01172949 317.09071609 46.375 317.125 C47.75388064 317.14507293 49.13278912 317.16332233 50.51171875 317.1796875 C53.88351744 317.22684552 57.25390687 317.29265462 60.625 317.375 C60.72949463 316.7452124 60.83398926 316.1154248 60.94165039 315.46655273 C61.98258408 309.69992114 63.41292257 304.66320254 66.0625 299.4375 C66.58312012 298.41064087 66.58312012 298.41064087 67.11425781 297.36303711 C72.62278489 287.08936904 81.27405581 280.45285704 90.578125 273.6796875 C99.80295914 266.70192835 107.67639466 258.63135383 114.625 249.375 C115.35203125 248.41335938 116.0790625 247.45171875 116.828125 246.4609375 C139.27469124 215.45956105 149.37218838 176.64499988 143.5 138.625 C138.85714918 111.5637303 127.73862156 87.03031979 109.625 66.375 C108.93019531 65.54742187 108.23539062 64.71984375 107.51953125 63.8671875 C84.75991413 37.4179421 50.87773628 21.72390463 16.625 17.375 C-1.25532865 16.44386667 -19.00974717 16.67607467 -36.375 21.375 C-37.03097168 21.54628418 -37.68694336 21.71756836 -38.36279297 21.89404297 C-51.05945338 25.32085746 -64.96638903 31.09842011 -75.76953125 38.65625 C-79.19946624 40.91887578 -81.34338609 40.89761662 -85.375 40.375 C-87.75 39.3125 -87.75 39.3125 -89.375 37.375 C-90.18911133 34.17670548 -90.73090076 31.67469684 -89.84765625 28.44921875 C-87.55597387 25.22141148 -84.31136866 23.55357118 -80.9375 21.625 C-80.18033691 21.18961914 -79.42317383 20.75423828 -78.64306641 20.30566406 C-54.47020099 6.73475869 -27.68256512 -0.08373854 0 0 Z M-30.375 403.375 C-21.78425569 413.39753503 -14.15236727 419.2759152 -0.75390625 420.37109375 C10.48493276 420.38954833 19.78792906 416.45022284 27.75 408.625 C30.34903238 406.3507436 30.34903238 406.3507436 31.625 403.375 C11.165 403.375 -9.295 403.375 -30.375 403.375 Z " fill="#000000" transform="translate(255.375,76.625)"/>
<path d="M0 0 C1.10572105 -0.00642769 1.10572105 -0.00642769 2.23377991 -0.01298523 C3.78955053 -0.01871621 5.34534794 -0.01923787 6.90112305 -0.01489258 C9.27374258 -0.01173394 11.64511274 -0.03520055 14.01757812 -0.06054688 C15.53255052 -0.06282024 17.04752625 -0.06352319 18.5625 -0.0625 C19.26785385 -0.07170975 19.9732077 -0.08091949 20.69993591 -0.09040833 C25.08092006 -0.049522 27.88060775 0.58103565 31.34765625 3.30078125 C32.98648202 6.71584987 33.45339157 9.92298745 33.77734375 13.6484375 C34.27311111 22.58949223 34.27311111 22.58949223 39.03515625 29.65625 C43.15044614 31.45668932 46.36862187 32.7784792 50.83984375 31.69921875 C54.67749958 29.55921753 57.91894028 26.68040816 61.1796875 23.7578125 C64.77699429 20.78461677 68.04957476 19.11200098 72.79589844 19.38818359 C78.97059742 21.59647146 83.45829631 27.49177132 87.84765625 32.17578125 C88.95236803 33.31710078 90.05912262 34.45644676 91.16796875 35.59375 C100.14455128 44.86646475 100.14455128 44.86646475 100.7890625 49.41796875 C100.18207436 54.75731578 97.68045173 57.4121247 94.28515625 61.42578125 C89.91987278 66.10947122 89.91987278 66.10947122 88.34765625 71.9609375 C88.67765625 72.73308594 89.00765625 73.50523437 89.34765625 74.30078125 C89.82912109 75.62529297 89.82912109 75.62529297 90.3203125 76.9765625 C90.85978516 78.28173828 90.85978516 78.28173828 91.41015625 79.61328125 C92.05598958 81.17578125 92.70182292 82.73828125 93.34765625 84.30078125 C93.95762451 84.36547607 94.56759277 84.4301709 95.19604492 84.49682617 C97.97876618 84.80484235 100.75642567 85.14619921 103.53515625 85.48828125 C104.49486328 85.58947266 105.45457031 85.69066406 106.44335938 85.79492188 C107.37470703 85.91416016 108.30605469 86.03339844 109.265625 86.15625 C110.11922607 86.25574951 110.97282715 86.35524902 111.85229492 86.45776367 C115.47632682 87.6820844 117.05007348 89.24902432 119.34765625 92.30078125 C119.84692583 95.29865955 120.05114053 97.71631057 120.01171875 100.70703125 C120.01650238 101.50935181 120.02128601 102.31167236 120.0262146 103.13830566 C120.02960692 104.82936573 120.02045108 106.52049196 119.99951172 108.21142578 C119.97273192 110.79348569 119.99927721 113.37119959 120.03125 115.953125 C120.02794578 117.60026997 120.02153927 119.24741224 120.01171875 120.89453125 C120.0218399 121.66236938 120.03196106 122.43020752 120.04238892 123.22131348 C119.95693612 127.14810164 119.49123784 129.10931299 117.11279297 132.28100586 C114.21680552 134.39636028 112.95677525 134.92452467 109.44140625 135.0234375 C108.53406738 135.08072021 107.62672852 135.13800293 106.69189453 135.19702148 C105.28399658 135.27932007 105.28399658 135.27932007 103.84765625 135.36328125 C96.54496644 135.91977439 96.54496644 135.91977439 90.82421875 140.01171875 C88.86074169 144.69909463 87.76001166 148.39442827 89.34765625 153.30078125 C90.34416162 155.03980473 90.34416162 155.03980473 91.59765625 156.68359375 C92.04109375 157.29332031 92.48453125 157.90304687 92.94140625 158.53125 C93.40546875 159.15644531 93.86953125 159.78164063 94.34765625 160.42578125 C101.17237381 169.7339377 101.17237381 169.7339377 100.34765625 175.30078125 C99.08618164 177.04858398 99.08618164 177.04858398 97.3828125 178.921875 C96.74682129 179.62248047 96.11083008 180.32308594 95.45556641 181.04492188 C91.77338151 184.9855506 88.06404871 188.89005132 84.28515625 192.73828125 C83.50849609 193.55232422 82.73183594 194.36636719 81.93164062 195.20507812 C81.17044922 195.97787109 80.40925781 196.75066406 79.625 197.546875 C78.94687256 198.24482178 78.26874512 198.94276855 77.57006836 199.66186523 C74.79513489 201.70823768 72.766719 202.09124142 69.34765625 202.30078125 C65.47362745 200.59620858 62.82840326 198.75000387 59.7265625 195.8515625 C56.65246767 193.12039459 54.09775288 191.01211754 50.34765625 189.30078125 C45.1056729 190.01727345 41.02864882 191.80102043 36.34765625 194.30078125 C36.18946411 195.26902832 36.18946411 195.26902832 36.02807617 196.25683594 C35.54207983 199.19021808 35.03881846 202.12038293 34.53515625 205.05078125 C34.36951172 206.0665625 34.20386719 207.08234375 34.03320312 208.12890625 C33.86240234 209.10859375 33.69160156 210.08828125 33.515625 211.09765625 C33.36375732 211.99838867 33.21188965 212.89912109 33.05541992 213.82714844 C32.26381569 216.59380386 31.30132353 218.19851354 29.34765625 220.30078125 C25.77987648 221.49004117 22.50820136 221.48174707 18.79296875 221.50390625 C18.05440643 221.50960632 17.31584412 221.5153064 16.55490112 221.5211792 C14.99315824 221.5306177 13.43139555 221.53715862 11.86962891 221.54101562 C9.48825099 221.55071771 7.10773781 221.58174903 4.7265625 221.61328125 C3.20703636 221.61981219 1.68750406 221.62506231 0.16796875 221.62890625 C-0.54052216 221.64125305 -1.24901306 221.65359985 -1.97897339 221.6663208 C-6.38212651 221.64661693 -9.1495136 221.00166491 -12.65234375 218.30078125 C-15.22999558 213.88551312 -15.54771533 208.4802798 -16.27734375 203.48828125 C-16.41140625 202.60462891 -16.54546875 201.72097656 -16.68359375 200.81054688 C-17.01190085 198.64137495 -17.33464251 196.47152747 -17.65234375 194.30078125 C-22.01235756 191.65752288 -26.44188142 189.11952676 -31.65234375 189.30078125 C-36.45937047 191.38133623 -40.19473794 194.94655842 -44.05859375 198.40234375 C-47.1788369 201.10776644 -49.37316192 202.43009718 -53.65234375 202.30078125 C-57.74263584 200.22714772 -60.69718051 197.50129727 -63.91796875 194.265625 C-64.39683533 193.7863002 -64.8757019 193.3069754 -65.36907959 192.81312561 C-66.37311008 191.80609094 -67.3747263 190.79664394 -68.37402344 189.78491211 C-69.90634906 188.23422795 -71.44662925 186.69179761 -72.98828125 185.15039062 C-81.4638012 176.63225876 -81.4638012 176.63225876 -82.09375 172.18359375 C-81.48676186 166.84424672 -78.98513923 164.1894378 -75.58984375 160.17578125 C-71.22456028 155.49209128 -71.22456028 155.49209128 -69.65234375 149.640625 C-70.14734375 148.48240234 -70.14734375 148.48240234 -70.65234375 147.30078125 C-70.97332031 146.41777344 -71.29429687 145.53476562 -71.625 144.625 C-71.98464844 143.75488281 -72.34429687 142.88476562 -72.71484375 141.98828125 C-73.36067708 140.42578125 -74.00651042 138.86328125 -74.65234375 137.30078125 C-75.26231201 137.23084961 -75.87228027 137.16091797 -76.50073242 137.08886719 C-79.28278123 136.76004356 -82.06100626 136.40568215 -84.83984375 136.05078125 C-85.79955078 135.94121094 -86.75925781 135.83164062 -87.74804688 135.71875 C-88.67939453 135.59628906 -89.61074219 135.47382813 -90.5703125 135.34765625 C-91.85071411 135.19055176 -91.85071411 135.19055176 -93.15698242 135.03027344 C-96.56354379 134.03440167 -98.26291341 132.95200229 -100.65234375 130.30078125 C-101.16026653 127.26800309 -101.35500109 124.80451531 -101.31640625 121.7734375 C-101.32118988 120.94750595 -101.32597351 120.1215744 -101.3309021 119.27061462 C-101.33429942 117.52650037 -101.32510847 115.7823223 -101.30419922 114.03833008 C-101.27746152 111.3750119 -101.30393101 108.71592051 -101.3359375 106.05273438 C-101.3326327 104.35545948 -101.32622501 102.65818721 -101.31640625 100.9609375 C-101.3265274 100.16808853 -101.33664856 99.37523956 -101.34707642 98.55836487 C-101.25986134 94.42194613 -100.96828109 92.72433194 -98.41748047 89.3046875 C-95.52342199 87.20735111 -94.25102773 86.67674422 -90.74609375 86.578125 C-89.83875488 86.52084229 -88.93141602 86.46355957 -87.99658203 86.40454102 C-87.0579834 86.34967529 -86.11938477 86.29480957 -85.15234375 86.23828125 C-77.84965394 85.68178811 -77.84965394 85.68178811 -72.12890625 81.58984375 C-70.17324399 76.92112401 -69.0348667 73.18785166 -70.65234375 68.30078125 C-71.76023061 66.54071556 -71.76023061 66.54071556 -73.15625 64.875 C-73.64931641 64.24271484 -74.14238281 63.61042969 -74.65039062 62.95898438 C-75.68918274 61.6504435 -76.73603342 60.34825775 -77.79101562 59.05273438 C-80.2092325 55.92458228 -81.55677379 53.72868492 -82.4296875 49.8203125 C-81.28396058 44.63287553 -78.31916563 42.00320335 -74.65234375 38.30078125 C-73.21618829 36.72901461 -71.78133085 35.15606112 -70.34765625 33.58203125 C-68.82707705 31.98555395 -67.30360645 30.39182589 -65.77734375 28.80078125 C-65.02582031 27.97835937 -64.27429688 27.1559375 -63.5 26.30859375 C-57.16930414 19.77158018 -57.16930414 19.77158018 -52.00390625 19.46484375 C-47.27350097 19.95671535 -44.36619543 22.07114382 -40.90234375 25.17578125 C-34.63980625 30.79727125 -34.63980625 30.79727125 -26.64453125 32.0703125 C-22.88915839 30.91734715 -20.59081005 29.95267223 -17.65234375 27.30078125 C-15.83364203 22.67950837 -15.56359481 17.77585547 -15.1796875 12.8671875 C-14.82256019 8.77408832 -13.9781693 5.77609102 -11.65234375 2.30078125 C-8.05794863 -0.21518749 -4.22419396 -0.00544258 0 0 Z M0.34765625 17.30078125 C0.0636865 18.74850662 -0.16622129 20.20695032 -0.37109375 21.66796875 C-0.49871094 22.55355469 -0.62632812 23.43914062 -0.7578125 24.3515625 C-0.88800781 25.28355469 -1.01820313 26.21554688 -1.15234375 27.17578125 C-1.41027838 29.00686176 -1.67059571 30.83760863 -1.93359375 32.66796875 C-2.04767578 33.48378418 -2.16175781 34.29959961 -2.27929688 35.14013672 C-2.65234375 37.30078125 -2.65234375 37.30078125 -3.65234375 40.30078125 C-5.62890625 41.00390625 -5.62890625 41.00390625 -8.27734375 41.55078125 C-14.06791721 42.9417284 -19.04448273 45.24168398 -24.26025391 48.05175781 C-28.83882057 50.37616608 -31.73279385 50.77281565 -36.65234375 49.30078125 C-39.33832223 47.67566917 -41.69827387 45.76542143 -44.08984375 43.73828125 C-44.72599609 43.21814453 -45.36214844 42.69800781 -46.01757812 42.16210938 C-47.57283155 40.88750319 -49.114072 39.59583112 -50.65234375 38.30078125 C-54.82941358 41.81835016 -58.84758995 45.38073188 -62.65234375 49.30078125 C-60.80356513 54.84711711 -57.23369189 58.71826914 -53.55078125 63.16796875 C-51.25362583 66.95874785 -51.09311431 68.93486717 -51.65234375 73.30078125 C-52.82421875 76.22265625 -52.82421875 76.22265625 -54.40234375 79.05078125 C-57.03003797 83.94309249 -58.92945829 88.70234844 -60.5 94.0234375 C-62.08542559 97.15666841 -63.43129875 97.88998054 -66.65234375 99.30078125 C-69.73273 100.05084146 -72.82859713 100.53529535 -75.96484375 100.98828125 C-76.80080078 101.11783203 -77.63675781 101.24738281 -78.49804688 101.38085938 C-80.54801502 101.69714017 -82.60000276 102.00028272 -84.65234375 102.30078125 C-84.65234375 107.91078125 -84.65234375 113.52078125 -84.65234375 119.30078125 C-82.43064453 119.66429687 -82.43064453 119.66429687 -80.1640625 120.03515625 C-78.22250315 120.37281875 -76.28110494 120.71140878 -74.33984375 121.05078125 C-73.36337891 121.20804687 -72.38691406 121.3653125 -71.38085938 121.52734375 C-70.44306641 121.69492187 -69.50527344 121.8625 -68.5390625 122.03515625 C-67.67498779 122.18178711 -66.81091309 122.32841797 -65.9206543 122.47949219 C-63.04430408 123.52093467 -62.20708016 124.7024829 -60.65234375 127.30078125 C-59.80859375 129.14428711 -59.80859375 129.14428711 -59.15234375 131.015625 C-58.90484375 131.70205078 -58.65734375 132.38847656 -58.40234375 133.09570312 C-58.15484375 133.80275391 -57.90734375 134.50980469 -57.65234375 135.23828125 C-55.7473556 140.76056464 -55.7473556 140.76056464 -52.96484375 145.8671875 C-51.09688887 149.33068718 -51.09067295 151.40625502 -51.65234375 155.30078125 C-53.1881179 158.19329969 -55.11232488 160.68449842 -57.15234375 163.23828125 C-57.67699219 163.92212891 -58.20164062 164.60597656 -58.7421875 165.31054688 C-60.03064804 166.98554558 -61.33950813 168.64481813 -62.65234375 170.30078125 C-60.95648249 173.93381209 -58.91433887 176.24627171 -56.02734375 179.05078125 C-55.21007812 179.85 -54.3928125 180.64921875 -53.55078125 181.47265625 C-52.92429687 182.0759375 -52.2978125 182.67921875 -51.65234375 183.30078125 C-51.10707031 182.93726563 -50.56179687 182.57375 -50 182.19921875 C-48.41315466 181.14132185 -46.82306909 180.08827561 -45.23046875 179.0390625 C-43.54946909 177.90566121 -41.89127652 176.73744227 -40.26171875 175.53125 C-39.50375 174.98082031 -38.74578125 174.43039062 -37.96484375 173.86328125 C-36.93810547 173.09177734 -36.93810547 173.09177734 -35.890625 172.3046875 C-32.74276907 170.89282193 -30.95594729 171.41596128 -27.65234375 172.30078125 C-25.54036721 173.17183757 -23.45672119 174.11392277 -21.40234375 175.11328125 C-16.52450756 177.44324424 -11.64173559 179.55187562 -6.578125 181.44140625 C-4.65234375 182.30078125 -4.65234375 182.30078125 -2.65234375 184.30078125 C-2.16577148 186.34790039 -2.16577148 186.34790039 -1.8359375 188.8359375 C-1.71154297 189.72732422 -1.58714844 190.61871094 -1.45898438 191.53710938 C-1.33716797 192.46974609 -1.21535156 193.40238281 -1.08984375 194.36328125 C-0.84216266 196.20882291 -0.59104623 198.05390789 -0.3359375 199.8984375 C-0.22822021 200.71836182 -0.12050293 201.53828613 -0.00952148 202.38305664 C0.16092121 204.30260611 0.16092121 204.30260611 1.34765625 205.30078125 C4.02497005 205.40059339 6.670698 205.43958 9.34765625 205.42578125 C10.47300781 205.43158203 10.47300781 205.43158203 11.62109375 205.4375 C15.28371742 205.77753666 15.28371742 205.77753666 18.34765625 204.30078125 C18.631626 202.85305588 18.86153379 201.39461218 19.06640625 199.93359375 C19.19402344 199.04800781 19.32164062 198.16242188 19.453125 197.25 C19.58332031 196.31800781 19.71351563 195.38601563 19.84765625 194.42578125 C20.10559088 192.59470074 20.36590821 190.76395387 20.62890625 188.93359375 C20.74298828 188.11777832 20.85707031 187.30196289 20.97460938 186.46142578 C21.34765625 184.30078125 21.34765625 184.30078125 22.34765625 181.30078125 C24.2890625 180.59765625 24.2890625 180.59765625 26.91015625 180.05078125 C32.91313921 178.60314185 38.24740542 176.24521916 43.77563477 173.54980469 C46.52673082 172.26407376 48.81800346 171.30486808 51.87890625 171.28125 C55.4882709 172.77182622 58.38428274 174.99986279 61.47265625 177.36328125 C65.90746118 181.07506185 65.90746118 181.07506185 71.34765625 182.30078125 C73.93383762 180.08009413 73.93383762 180.08009413 76.53515625 177.30078125 C77.43621094 176.37265625 78.33726562 175.44453125 79.265625 174.48828125 C79.95269531 173.76640625 80.63976562 173.04453125 81.34765625 172.30078125 C79.49887763 166.75444539 75.92900439 162.88329336 72.24609375 158.43359375 C69.94893833 154.64281465 69.78842681 152.66669533 70.34765625 148.30078125 C71.51953125 145.37890625 71.51953125 145.37890625 73.09765625 142.55078125 C75.72535047 137.65847001 77.62477079 132.89921406 79.1953125 127.578125 C80.78073809 124.44489409 82.12661125 123.71158196 85.34765625 122.30078125 C88.4280425 121.55072104 91.52390963 121.06626715 94.66015625 120.61328125 C95.49611328 120.48373047 96.33207031 120.35417969 97.19335938 120.22070312 C99.24332752 119.90442233 101.29531526 119.60127978 103.34765625 119.30078125 C103.34765625 113.69078125 103.34765625 108.08078125 103.34765625 102.30078125 C95.75765625 100.98078125 88.16765625 99.66078125 80.34765625 98.30078125 C79.35765625 95.00078125 78.36765625 91.70078125 77.34765625 88.30078125 C76.53379489 86.13933935 75.68607784 83.98990808 74.78515625 81.86328125 C74.16447266 80.38021484 74.16447266 80.38021484 73.53125 78.8671875 C72.35727277 76.14701433 72.35727277 76.14701433 70.34765625 73.30078125 C69.67815563 68.74259786 70.19870499 66.06014334 72.75390625 62.3359375 C73.76830947 60.99876961 74.80010901 59.67464567 75.84765625 58.36328125 C76.37230469 57.67943359 76.89695312 56.99558594 77.4375 56.29101562 C78.72596054 54.61601692 80.03482063 52.95674437 81.34765625 51.30078125 C79.65179499 47.66775041 77.60965137 45.35529079 74.72265625 42.55078125 C73.49675781 41.35195312 73.49675781 41.35195312 72.24609375 40.12890625 C71.61960937 39.525625 70.993125 38.92234375 70.34765625 38.30078125 C64.01907709 42.35566761 64.01907709 42.35566761 58.22265625 47.11328125 C54.69997974 49.79357859 52.75214237 50.11384136 48.34765625 50.30078125 C45.72781312 49.32835039 43.52743737 48.3590758 41.09765625 47.05078125 C34.98689882 43.96447069 29.06567458 41.76729253 22.34765625 40.30078125 C21.86655662 37.78030333 21.38773022 35.25942755 20.91015625 32.73828125 C20.77544922 32.03380859 20.64074219 31.32933594 20.50195312 30.60351562 C19.8564214 27.18692088 19.26280447 23.78415942 18.8125 20.3359375 C18.67384109 17.42966292 18.67384109 17.42966292 17.34765625 16.30078125 C14.67034245 16.20096911 12.0246145 16.1619825 9.34765625 16.17578125 C8.59742188 16.17191406 7.8471875 16.16804687 7.07421875 16.1640625 C3.41159508 15.82402584 3.41159508 15.82402584 0.34765625 17.30078125 Z " fill="#000000" transform="translate(246.65234375,137.69921875)"/>
<path d="M0 0 C4.32927155 2.7376276 8.01199727 5.76107722 11.453125 9.57421875 C11.93394531 10.06277344 12.41476562 10.55132812 12.91015625 11.0546875 C22.18339181 20.93831324 24.97513139 33.51869186 24.765625 46.69140625 C23.76866044 59.07869089 18.12633813 70.70388714 9.453125 79.57421875 C-1.86581898 88.78731269 -14.26163925 93.07549915 -28.9765625 92.421875 C-42.45400938 90.72507413 -53.81122188 85.25379558 -62.8046875 75 C-72.03514891 63.0617095 -74.57726452 50.39151032 -73.546875 35.57421875 C-71.87957067 26.98998334 -68.48024749 19.74513177 -63.546875 12.57421875 C-62.928125 11.66671875 -62.309375 10.75921875 -61.671875 9.82421875 C-46.08501864 -6.67951152 -19.88265358 -11.13062662 0 0 Z M-48.296875 19.76171875 C-55.60542481 27.39789321 -57.98335319 35.89005332 -57.89453125 46.26953125 C-56.93990225 55.34386987 -52.59829296 63.35602437 -45.65234375 69.15625 C-37.81898512 74.95716963 -28.62420389 77.59445767 -18.921875 76.1484375 C-9.01289487 73.75268079 -1.1869503 68.62738889 4.1640625 59.95703125 C8.55183788 51.84629494 9.87480624 43.77714941 7.796875 34.7109375 C4.62578897 24.82863061 -1.82213605 18.01371649 -10.546875 12.57421875 C-23.77584422 6.66340272 -37.99592472 10.11613072 -48.296875 19.76171875 Z " fill="#000000" transform="translate(280.546875,205.42578125)"/>
<path d="M0 0 C2.64764845 1.67684402 2.95477045 2.85138861 3.875 5.875 C4.04922038 10.23050952 2.41928866 12.41239264 -0.45828247 15.63122559 C-2.27973992 17.52782475 -4.13429391 19.38523124 -6.00390625 21.234375 C-7.02254005 22.25232147 -7.02254005 22.25232147 -8.06175232 23.29083252 C-9.492495 24.71856333 -10.92565814 26.14387221 -12.36108398 27.56689453 C-14.56359185 29.75108276 -16.75792935 31.94323081 -18.95117188 34.13671875 C-20.34327785 35.52391149 -21.73584022 36.91064639 -23.12890625 38.296875 C-23.78725967 38.9541156 -24.4456131 39.6113562 -25.12391663 40.28851318 C-26.04013039 41.19515717 -26.04013039 41.19515717 -26.97485352 42.12011719 C-27.51207535 42.65352722 -28.04929718 43.18693726 -28.60279846 43.73651123 C-30.92984623 45.84085956 -32.16013198 46.01482704 -35.375 46.3125 C-39 46 -39 46 -41.4375 44.5 C-43.62275364 41.00359418 -43.90979926 37.94887048 -43 34 C-40.95245359 30.85067952 -38.34964574 28.39267653 -35.6328125 25.81640625 C-34.88289032 25.07543198 -34.13296814 24.3344577 -33.36032104 23.57102966 C-30.96669086 21.21545359 -28.54644241 18.88944123 -26.125 16.5625 C-24.50213831 14.97120205 -22.88102287 13.37812112 -21.26171875 11.78320312 C-18.300746 8.88068099 -15.33602128 5.98250864 -12.34814453 3.10766602 C-11.74857941 2.53000992 -11.14901428 1.95235382 -10.53128052 1.35719299 C-7.04136177 -1.73596546 -4.40374278 -0.92710374 0 0 Z " fill="#000000" transform="translate(419,66)"/>
<path d="M0 0 C3.01307835 2.11136283 5.53505054 4.64640485 8.12109375 7.25390625 C8.86585464 7.98818344 9.61061554 8.72246063 10.37794495 9.47898865 C11.94431873 11.0325438 13.50301955 12.59386871 15.05444336 14.16235352 C17.42993942 16.5548852 19.84035369 18.90771585 22.25585938 21.25976562 C23.77569985 22.77638205 25.29335496 24.29519231 26.80859375 25.81640625 C27.53034286 26.51568741 28.25209198 27.21496857 28.99571228 27.93544006 C32.23417259 31.26622462 34.43328068 33.56838177 34.54711914 38.35522461 C34 42 34 42 32.4375 44.5 C28.89383548 46.68071663 27.10900306 46.75331723 23 46 C15.63896984 40.91325299 9.278183 33.59928441 2.91577148 27.32080078 C1.67386433 26.10065277 0.42572314 24.88681965 -0.82836914 23.67919922 C-2.65941121 21.9150913 -4.46995104 20.13204173 -6.27734375 18.34375 C-6.83767807 17.81124634 -7.39801239 17.27874268 -7.97532654 16.73010254 C-11.64856371 13.03706326 -12.83497413 10.39435925 -13 5 C-12.21270916 2.35183989 -11.47719891 1.37115471 -9.3125 -0.3125 C-5.76185114 -1.36809831 -3.60724073 -0.93036399 0 0 Z " fill="#000000" transform="translate(102,66)"/>
<path d="M0 0 C1.51176819 -0.01891296 1.51176819 -0.01891296 3.05407715 -0.03820801 C4.13644653 -0.03011108 5.21881592 -0.02201416 6.33398438 -0.01367188 C7.45083618 -0.01749878 8.56768799 -0.02132568 9.71838379 -0.02526855 C12.07870383 -0.02798943 14.43905394 -0.02061607 16.79931641 -0.00390625 C20.41442012 0.01749929 24.0275363 -0.00370366 27.64257812 -0.02929688 C29.93555127 -0.02665363 32.22852317 -0.02152873 34.52148438 -0.01367188 C35.60385376 -0.0217688 36.68622314 -0.02986572 37.8013916 -0.03820801 C38.80923706 -0.02559937 39.81708252 -0.01299072 40.85546875 0 C42.18306213 0.00477356 42.18306213 0.00477356 43.53747559 0.00964355 C46.69656549 0.68095621 47.91114991 2.05289569 49.92773438 4.51757812 C50.63655741 7.42542694 50.26745226 9.46011713 49.92773438 12.51757812 C48.11610171 15.19189302 47.05012361 15.47678171 43.92773438 16.51757812 C42.37442617 16.62393511 40.81708981 16.67613684 39.26025391 16.69458008 C38.31562286 16.70741531 37.37099182 16.72025055 36.3977356 16.73347473 C35.37896332 16.74086166 34.36019104 16.7482486 33.31054688 16.75585938 C31.73658646 16.767967 31.73658646 16.767967 30.13082886 16.78031921 C27.90998992 16.79415214 25.6891298 16.80487783 23.46826172 16.81274414 C20.07283341 16.82997612 16.67837397 16.87387242 13.28320312 16.91796875 C11.1256582 16.92809417 8.968105 16.93661074 6.81054688 16.94335938 C5.79582306 16.96086746 4.78109924 16.97837555 3.73562622 16.99641418 C-0.72923018 16.98267798 -3.32951929 16.9672673 -7.21313477 14.6159668 C-9.2185961 12.35241589 -9.73364575 11.49561487 -9.63476562 8.51757812 C-9.63605469 7.85757813 -9.63734375 7.19757813 -9.63867188 6.51757812 C-8.24309661 1.58975376 -4.80006207 0.01725934 0 0 Z " fill="#000000" transform="translate(438.072265625,223.482421875)"/>
<path d="M0 0 C1.51176819 -0.01891296 1.51176819 -0.01891296 3.05407715 -0.03820801 C4.13644653 -0.03011108 5.21881592 -0.02201416 6.33398438 -0.01367188 C7.45083618 -0.01749878 8.56768799 -0.02132568 9.71838379 -0.02526855 C12.07870383 -0.02798943 14.43905394 -0.02061607 16.79931641 -0.00390625 C20.41442012 0.01749929 24.0275363 -0.00370366 27.64257812 -0.02929688 C29.93555127 -0.02665363 32.22852317 -0.02152873 34.52148438 -0.01367188 C35.60385376 -0.0217688 36.68622314 -0.02986572 37.8013916 -0.03820801 C38.80923706 -0.02559937 39.81708252 -0.01299072 40.85546875 0 C42.18306213 0.00477356 42.18306213 0.00477356 43.53747559 0.00964355 C46.69656549 0.68095621 47.91114991 2.05289569 49.92773438 4.51757812 C50.63655741 7.42542694 50.26745226 9.46011713 49.92773438 12.51757812 C48.11610171 15.19189302 47.05012361 15.47678171 43.92773438 16.51757812 C42.37442617 16.62393511 40.81708981 16.67613684 39.26025391 16.69458008 C38.31562286 16.70741531 37.37099182 16.72025055 36.3977356 16.73347473 C35.37896332 16.74086166 34.36019104 16.7482486 33.31054688 16.75585938 C31.73658646 16.767967 31.73658646 16.767967 30.13082886 16.78031921 C27.90998992 16.79415214 25.6891298 16.80487783 23.46826172 16.81274414 C20.07283341 16.82997612 16.67837397 16.87387242 13.28320312 16.91796875 C11.1256582 16.92809417 8.968105 16.93661074 6.81054688 16.94335938 C5.79582306 16.96086746 4.78109924 16.97837555 3.73562622 16.99641418 C-0.72923018 16.98267798 -3.32951929 16.9672673 -7.21313477 14.6159668 C-9.2185961 12.35241589 -9.73364575 11.49561487 -9.63476562 8.51757812 C-9.63605469 7.85757813 -9.63734375 7.19757813 -9.63867188 6.51757812 C-8.24309661 1.58975376 -4.80006207 0.01725934 0 0 Z " fill="#000000" transform="translate(33.072265625,223.482421875)"/>
<path d="M0 0 C0.66 -0.02191406 1.32 -0.04382812 2 -0.06640625 C5.31420213 0.97575497 6.20464123 2.59864199 8 5.5625 C8.59959746 9.23806638 8.56046461 12.8762268 8.53125 16.59375 C8.5350769 17.6624231 8.53890381 18.73109619 8.54284668 19.83215332 C8.54556464 22.08814437 8.53821165 24.34416699 8.52148438 26.60009766 C8.50007433 30.05052034 8.52129128 33.49886073 8.546875 36.94921875 C8.5442317 39.14323376 8.53910669 41.33724747 8.53125 43.53125 C8.53934692 44.56157349 8.54744385 45.59189697 8.55578613 46.65344238 C8.497128 51.1405083 8.45505598 53.81179736 6.09179688 57.71044922 C3.84495839 59.6997719 2.96021285 60.24531666 0 60.1875 C-0.99 60.20683594 -0.99 60.20683594 -2 60.2265625 C-5.30560008 59.12899997 -6.20068853 57.54577499 -8 54.5625 C-8.60149133 50.80269255 -8.56041312 47.07839759 -8.53125 43.27734375 C-8.5350769 42.18410294 -8.53890381 41.09086212 -8.54284668 39.9644928 C-8.54556468 37.65722735 -8.53821142 35.34993103 -8.52148438 33.04272461 C-8.50005401 29.50890581 -8.52130193 25.97711545 -8.546875 22.44335938 C-8.54423211 20.20051634 -8.53910794 17.95767457 -8.53125 15.71484375 C-8.53934692 14.6574852 -8.54744385 13.60012665 -8.55578613 12.51072693 C-8.4622589 5.20727309 -8.4622589 5.20727309 -6.09179688 1.90087891 C-3.85242246 0.46807656 -2.6414906 -0.00515916 0 0 Z " fill="#000000" transform="translate(256,-0.5625)"/>
<path d="M0 0 C3.06394298 3.21359572 4.55608838 7.24806957 6.1875 11.3125 C6.46013672 11.95123047 6.73277344 12.58996094 7.01367188 13.24804688 C8.78023404 17.61796382 9.45449248 21.21617529 9 26 C6.9375 29 6.9375 29 4 31 C0.20680848 31.06654722 -1.99763528 30.78437472 -5.01171875 28.42578125 C-7.62812187 25.23366663 -8.8635434 21.98019819 -10.25 18.125 C-10.518125 17.43019531 -10.78625 16.73539063 -11.0625 16.01953125 C-12.58547501 11.89351221 -13.42961885 8.46142656 -13 4 C-9.81236173 -1.61631505 -5.9196772 -1.37421078 0 0 Z " fill="#000000" transform="translate(189,41)"/>
<path d="M0 0 C2 1.5 2 1.5 3 4 C3.21429565 10.42886938 1.15777529 15.60718202 -1.3125 21.4375 C-1.60817871 22.1480957 -1.90385742 22.85869141 -2.20849609 23.59082031 C-3.47340093 26.42917665 -4.47307637 28.61147071 -7.0078125 30.48046875 C-10.26655578 31.33029788 -12.77229307 30.82159813 -16 30 C-17.9375 28.375 -17.9375 28.375 -19 26 C-19.51421476 19.99578649 -18.09687753 15.67007587 -15.8125 10.25 C-15.52052734 9.49589844 -15.22855469 8.74179687 -14.92773438 7.96484375 C-13.48323672 4.4669849 -12.48137043 2.38704279 -9.48828125 -0.01953125 C-5.93951793 -1.41786656 -3.63762351 -1.01045097 0 0 Z " fill="#000000" transform="translate(333,41)"/>
<path d="M0 0 C2.57511171 3.02954319 2.71389555 4.65145207 2.7890625 8.5 C1.7454125 11.64322823 -0.15325245 12.68307907 -2.875 14.5 C-5.3555314 15.6871698 -7.76152848 16.75301013 -10.3125 17.75 C-10.95509766 18.018125 -11.59769531 18.28625 -12.25976562 18.5625 C-16.26490573 20.15642378 -19.57285164 20.98422449 -23.875 20.5 C-27.19774404 18.04405875 -28.65118008 16.5743356 -29.5 12.5 C-28.65474657 8.44278355 -27.00055485 7.19156593 -23.875 4.5 C-21.37028802 3.23252226 -19.04115479 2.17133367 -16.4375 1.1875 C-15.47360352 0.79208008 -15.47360352 0.79208008 -14.49023438 0.38867188 C-9.25414247 -1.65792242 -5.09878301 -2.66023461 0 0 Z " fill="#000000" transform="translate(444.875,153.5)"/>
<path d="M0 0 C2.24970569 0.82212467 4.45213368 1.71966556 6.65820312 2.65234375 C7.41681641 2.95269531 8.17542969 3.25304687 8.95703125 3.5625 C15.91970794 6.45081248 15.91970794 6.45081248 17.97070312 10.40234375 C18.65304353 14.41109365 18.28653643 15.92349971 16.03320312 19.33984375 C12.6177148 21.64007058 10.75017575 21.88807002 6.71679688 21.1875 C-9.27369569 16.6155384 -9.27369569 16.6155384 -13.02929688 11.40234375 C-13.42211564 8.30889597 -13.65937793 6.3565917 -13.02929688 3.40234375 C-9.27474028 -1.01478166 -5.5052744 -1.62138014 0 0 Z " fill="#000000" transform="translate(78.029296875,152.59765625)"/>
</svg>
