<?xml version="1.0" encoding="UTF-8"?>
<svg version="1.1" xmlns="http://www.w3.org/2000/svg" width="512" height="512">
<path d="M0 0 C6.80475481 6.14659 11.47226473 12.42070044 14.3828125 21.15234375 C14.50466611 23.56674548 14.55827343 25.98489901 14.5703125 28.40234375 C14.58449219 29.68625 14.59867187 30.97015625 14.61328125 32.29296875 C14.38000769 36.19931237 13.51121167 39.42138707 12.3828125 43.15234375 C33.13737931 32.20188876 33.13737931 32.20188876 53.6328125 20.77734375 C64.74505141 14.40852909 76.06223626 8.4432663 87.40917969 2.50634766 C94.64042885 -1.28529817 101.76707315 -5.15267913 108.75146484 -9.38769531 C120.60822014 -15.96622534 135.62017846 -18.33377846 148.8203125 -14.66015625 C159.93144128 -10.68255889 168.71427073 -4.33195033 174.3828125 6.15234375 C178.16357131 14.91747373 178.75634588 23.75642047 175.7578125 32.83984375 C169.07420514 49.02241362 152.56027391 58.04121957 138.3828125 67.15234375 C137.72345703 67.5803125 137.06410156 68.00828125 136.38476562 68.44921875 C105.28329586 88.61032403 72.79974012 106.75059973 40.69580078 125.24365234 C36.21931623 127.82266165 31.74392543 130.40356354 27.26904297 132.98535156 C25.07197311 134.25253186 22.87439056 135.51882369 20.67626953 136.78417969 C15.73024014 139.63315307 10.79222811 142.4933633 5.87890625 145.3984375 C5.0293335 145.89827148 4.17976074 146.39810547 3.30444336 146.91308594 C1.76403703 147.82065067 0.22671557 148.73348727 -1.30639648 149.65332031 C-12.33157532 156.13281624 -23.332793 159.50679006 -36.1171875 159.52734375 C-36.88804687 159.55183594 -37.65890625 159.57632813 -38.453125 159.6015625 C-56.75802079 159.68928564 -75.7051667 151.89165297 -93.22564697 146.99987793 C-96.74746673 146.01721725 -100.27025397 145.03803994 -103.79296875 144.05859375 C-104.832113 143.76944973 -104.832113 143.76944973 -105.89225006 143.47446442 C-109.36410426 142.50846335 -112.83636148 141.54395824 -116.30944824 140.58239746 C-122.50110248 138.86640242 -128.68843957 137.13966005 -134.85931015 135.35013199 C-136.87692199 134.76604591 -138.89606563 134.18760825 -140.91583252 133.61102295 C-143.40794874 132.89795473 -145.89707896 132.17433381 -148.38250732 131.43829346 C-154.21308683 129.78251723 -158.68770069 128.59104824 -164.6171875 130.15234375 C-162.85918274 135.06550443 -160.17543386 139.35260847 -157.36328125 143.71679688 C-154.54077839 148.39512122 -153.83284179 151.68954161 -154.6171875 157.15234375 C-158.47128796 162.73617121 -165.08612838 165.43141609 -170.9296875 168.58984375 C-173.17684532 169.82488882 -175.42291049 171.0619237 -177.66796875 172.30078125 C-178.81604004 172.93338867 -179.96411133 173.56599609 -181.14697266 174.21777344 C-187.677163 177.85821443 -194.11528359 181.6557719 -200.55981445 185.44506836 C-203.24208738 187.02028265 -205.92867522 188.58780766 -208.6171875 190.15234375 C-209.8705188 190.89061401 -209.8705188 190.89061401 -211.14916992 191.64379883 C-211.93654541 192.09779053 -212.7239209 192.55178223 -213.53515625 193.01953125 C-214.2211792 193.41897949 -214.90720215 193.81842773 -215.61401367 194.22998047 C-219.19636193 195.87947611 -221.72507909 195.7460552 -225.6171875 195.15234375 C-228.77807936 192.49113915 -230.73531184 189.56151742 -232.76171875 185.98828125 C-233.34824219 184.9621875 -233.93476563 183.93609375 -234.5390625 182.87890625 C-235.16296875 181.77289063 -235.786875 180.666875 -236.4296875 179.52734375 C-237.09437018 178.36028845 -237.75974749 177.19362852 -238.42578125 176.02734375 C-239.80819553 173.60536285 -241.18761265 171.18171221 -242.56494141 168.75683594 C-245.72112889 163.20594674 -248.92143759 157.68051474 -252.1171875 152.15234375 C-253.36739448 149.98579651 -254.61739383 147.81912944 -255.8671875 145.65234375 C-256.4859375 144.57984375 -257.1046875 143.50734375 -257.7421875 142.40234375 C-264.6171875 130.48567708 -271.4921875 118.56901042 -278.3671875 106.65234375 C-278.9861792 105.57944092 -279.6051709 104.50653809 -280.24291992 103.40112305 C-281.4905349 101.23855792 -282.73809366 99.07596036 -283.9855957 96.91333008 C-287.78775511 90.32222544 -291.59180641 83.7322189 -295.39819336 77.14355469 C-296.65731907 74.96165059 -297.91467846 72.77872612 -299.17016602 70.59472656 C-302.15782763 65.39817204 -305.16509403 60.21597192 -308.2265625 55.0625 C-308.78899658 54.10577393 -309.35143066 53.14904785 -309.9309082 52.16333008 C-310.9814671 50.37701666 -312.04188539 48.59644964 -313.11401367 46.82299805 C-317.63822113 39.08147162 -317.63822113 39.08147162 -316.6171875 34.15234375 C-314.02414368 30.41811064 -311.58520322 28.24243264 -307.6015625 26.09375 C-306.60906494 25.54976563 -305.61656738 25.00578125 -304.59399414 24.4453125 C-303.52914795 23.87425781 -302.46430176 23.30320312 -301.3671875 22.71484375 C-299.10962034 21.47849014 -296.85313802 20.2401539 -294.59765625 19 C-293.44313965 18.36723145 -292.28862305 17.73446289 -291.09912109 17.08251953 C-285.57760153 14.02171925 -280.12637222 10.84390837 -274.6796875 7.65234375 C-273.71708008 7.08974854 -272.75447266 6.52715332 -271.76269531 5.94750977 C-270.8394043 5.40666748 -269.91611328 4.8658252 -268.96484375 4.30859375 C-268.07643799 3.78821533 -267.18803223 3.26783691 -266.27270508 2.73168945 C-264.45704538 1.65184183 -262.65255741 0.55304564 -260.8581543 -0.56176758 C-259.9794165 -1.10599365 -259.10067871 -1.65021973 -258.1953125 -2.2109375 C-257.41704102 -2.70118408 -256.63876953 -3.19143066 -255.83691406 -3.6965332 C-252.0724156 -5.64875606 -249.7895879 -5.62556141 -245.6171875 -4.84765625 C-241.40902784 -1.28073996 -238.89375368 2.69447703 -236.3046875 7.46484375 C-235.94568359 8.11001953 -235.58667969 8.75519531 -235.21679688 9.41992188 C-234.34273275 10.9932373 -233.47887967 12.5722184 -232.6171875 14.15234375 C-228.90740497 12.76855926 -225.60749424 11.07876558 -222.20703125 9.0546875 C-221.14830811 8.42618896 -220.08958496 7.79769043 -218.9987793 7.15014648 C-217.85071794 6.46343032 -216.70268817 5.77666135 -215.5546875 5.08984375 C-214.3592666 4.37875938 -213.16370746 3.66790738 -211.96801758 2.95727539 C-205.65425024 -0.80179021 -199.36653132 -4.60159327 -193.1015625 -8.44140625 C-192.48765152 -8.81696152 -191.87374054 -9.19251678 -191.2412262 -9.57945251 C-188.30116521 -11.37828688 -185.3650346 -13.18262573 -182.43530273 -14.99829102 C-133.30376924 -45.14377385 -45.30749664 -36.72359771 0 0 Z M-147.6171875 -12.84765625 C-148.52597656 -12.66074219 -149.43476563 -12.47382813 -150.37109375 -12.28125 C-159.24858899 -9.9229724 -166.62477329 -4.71919164 -174.28125 0.1640625 C-182.50394564 5.3912138 -190.91532613 10.30068904 -199.30969238 15.24514771 C-207.50733697 20.07564692 -215.63342841 24.97261625 -223.6171875 30.15234375 C-219.77337854 38.05768248 -215.66198856 45.71753597 -211.1796875 53.27734375 C-209.94205953 55.38112887 -208.70510388 57.48530962 -207.46875 59.58984375 C-206.83485352 60.6675 -206.20095703 61.74515625 -205.54785156 62.85546875 C-202.98910038 67.22488908 -200.46203409 71.61213677 -197.93847656 76.00195312 C-196.06858958 79.25317186 -194.19117546 82.49994703 -192.3125 85.74609375 C-189.82543722 90.04562814 -187.36614907 94.35960917 -184.921875 98.68359375 C-183.75826001 100.71510014 -182.59421712 102.74636152 -181.4296875 104.77734375 C-180.90109131 105.72625488 -180.37249512 106.67516602 -179.82788086 107.65283203 C-179.08356812 108.94036377 -179.08356812 108.94036377 -178.32421875 110.25390625 C-177.8960083 111.01010254 -177.46779785 111.76629883 -177.02661133 112.54541016 C-176.32894653 113.34084229 -176.32894653 113.34084229 -175.6171875 114.15234375 C-171.67417279 114.46606924 -171.67417279 114.46606924 -168.8046875 112.65234375 C-163.02990816 109.93480053 -157.72160268 111.1580855 -151.75610352 112.8137207 C-151.1065718 112.9913155 -150.45704008 113.16891029 -149.78782558 113.35188675 C-147.64647186 113.93964939 -145.50887848 114.54002312 -143.37109375 115.140625 C-141.85258915 115.56033608 -140.33386677 115.97925991 -138.81494141 116.39744568 C-135.59859662 117.28467663 -132.3838415 118.17738094 -129.17019653 119.07434082 C-124.16927399 120.46961908 -119.16393756 121.84857785 -114.15795898 123.22558594 C-100.25836057 127.05364156 -86.36904156 130.91001003 -72.5234375 134.9296875 C-69.87061413 135.69126144 -67.21736228 136.45132046 -64.56393433 137.21078491 C-62.27649123 137.8742655 -59.99805944 138.56352766 -57.71899414 139.25512695 C-42.2925016 143.78389208 -27.47150636 144.18891471 -12.86621094 136.75146484 C-10.02873633 135.18195843 -7.25955995 133.52970333 -4.4921875 131.83984375 C-2.38331715 130.58118532 -0.27392386 129.32340276 1.8359375 128.06640625 C2.91423828 127.41961914 3.99253906 126.77283203 5.10351562 126.10644531 C10.45475121 122.91769534 15.85676611 119.81821418 21.2578125 116.71484375 C23.44671591 115.4533008 25.6355176 114.19158132 27.82421875 112.9296875 C32.14373954 110.44133064 36.46426803 107.95473143 40.78515625 105.46875 C109.87092013 72.99637159 109.87092013 72.99637159 160.3828125 25.15234375 C160.97220152 19.14057579 159.7534224 15.04420236 156.3828125 10.15234375 C151.47469719 4.63537362 145.90910861 1.66583112 138.59375 0.8359375 C126.39993531 0.34755474 116.57809965 5.83027061 106.1328125 11.58984375 C105.00383545 12.20456543 103.8748584 12.81928711 102.71166992 13.45263672 C94.37484405 18.00869368 86.10970074 22.6876012 77.85839844 27.39624023 C70.34384657 31.66351551 62.7105515 35.665577 55.02905273 39.62231445 C45.15076277 44.73660642 35.50957108 50.25076756 25.84570312 55.75585938 C10.17435665 64.64167439 -2.18174829 70.5555264 -20.4296875 70.46484375 C-21.62384277 70.4592041 -22.81799805 70.45356445 -24.04833984 70.44775391 C-48.02337439 70.12320244 -71.12715802 63.82957068 -93.9921875 57.02734375 C-95.10996582 56.70290283 -96.22774414 56.37846191 -97.37939453 56.04418945 C-98.41435059 55.72667725 -99.44930664 55.40916504 -100.515625 55.08203125 C-101.43005371 54.80601074 -102.34448242 54.52999023 -103.28662109 54.24560547 C-106.01474984 52.96584845 -107.09089532 51.7236648 -108.6171875 49.15234375 C-108.87221812 46.21394745 -108.28142219 44.09395454 -107.6171875 41.15234375 C-103.78264405 38.59598145 -101.04706344 38.58516502 -96.6171875 39.15234375 C-92.40453255 40.17758761 -88.27253342 41.42557279 -84.13354492 42.71411133 C-67.91237736 47.74799588 -51.4905429 51.96992173 -34.6171875 54.15234375 C-33.52019531 54.3121875 -32.42320312 54.47203125 -31.29296875 54.63671875 C-24.86786725 55.14415998 -20.54827869 54.79139813 -15.60742188 50.62011719 C-9.056979 44.42809477 -3.06689878 37.63882134 -2.3046875 28.33984375 C-2.38566411 23.90232572 -3.75272291 21.60439082 -6.6171875 18.15234375 C-7.03355469 17.62125 -7.44992187 17.09015625 -7.87890625 16.54296875 C-28.60007208 -7.16944149 -73.71275076 -12.23274026 -102.71704102 -14.67114258 C-117.4257344 -15.56636821 -133.17980242 -16.19459463 -147.6171875 -12.84765625 Z M-253.6171875 15.15234375 C-267.98800117 23.42248102 -282.34863995 31.70647647 -296.6171875 40.15234375 C-295.92496094 41.35503906 -295.92496094 41.35503906 -295.21875 42.58203125 C-291.83322876 48.48327579 -288.47331229 54.39509782 -285.19018555 60.35400391 C-279.72492409 70.26877005 -274.04079235 80.04714991 -268.3203125 89.81640625 C-264.58084161 96.20516367 -260.87593716 102.61350451 -257.1796875 109.02734375 C-256.24636597 110.64672852 -256.24636597 110.64672852 -255.29418945 112.29882812 C-254.03207233 114.48916895 -252.77010965 116.67959877 -251.50830078 118.87011719 C-249.62770644 122.13408702 -247.74578204 125.39728564 -245.86328125 128.66015625 C-245.24404785 129.73354248 -244.62481445 130.80692871 -243.98681641 131.9128418 C-242.74883182 134.05789501 -241.51023348 136.20259413 -240.27099609 138.34692383 C-237.32486183 143.44695782 -234.38614765 148.55089075 -231.47128296 153.66885376 C-230.08608519 156.10003102 -228.69701146 158.52898282 -227.30761719 160.95776367 C-226.32236755 162.68386923 -225.34277089 164.41319752 -224.36328125 166.14257812 C-223.47382813 167.6962207 -223.47382813 167.6962207 -222.56640625 169.28125 C-222.04393311 170.1997876 -221.52145996 171.1183252 -220.9831543 172.06469727 C-219.7850445 174.27824472 -219.7850445 174.27824472 -217.6171875 175.15234375 C-215.23068019 174.1215407 -215.23068019 174.1215407 -212.55078125 172.5390625 C-211.51501953 171.95479492 -210.47925781 171.37052734 -209.41210938 170.76855469 C-208.30416016 170.13208008 -207.19621094 169.49560547 -206.0546875 168.83984375 C-204.93255859 168.20208008 -203.81042969 167.56431641 -202.65429688 166.90722656 C-199.30331341 164.99798984 -195.95959507 163.07654535 -192.6171875 161.15234375 C-191.68406738 160.61883301 -190.75094727 160.08532227 -189.78955078 159.53564453 C-187.39441004 158.16524066 -185.0043686 156.78655622 -182.6171875 155.40234375 C-181.91263428 154.99717529 -181.20808105 154.59200684 -180.48217773 154.17456055 C-176.95888657 152.2632471 -176.95888657 152.2632471 -174.6171875 149.15234375 C-175.77723261 146.58651429 -175.77723261 146.58651429 -177.52734375 143.67578125 C-178.18025391 142.54269531 -178.83316406 141.40960938 -179.50585938 140.2421875 C-180.23030746 139.00381188 -180.95492114 137.76553312 -181.6796875 136.52734375 C-182.41930772 135.25039821 -183.15823262 133.97304969 -183.89648438 132.6953125 C-186.12640038 128.84160775 -188.37093748 124.99654267 -190.6171875 121.15234375 C-191.82427531 119.08206422 -193.03131096 117.01175429 -194.23828125 114.94140625 C-195.93185741 112.03848009 -197.6266015 109.136262 -199.32446289 106.23583984 C-203.80728761 98.57069663 -208.2210608 90.86736136 -212.6171875 83.15234375 C-218.14812109 73.44676142 -223.72565359 63.77025166 -229.37646484 54.13378906 C-232.51252801 48.78102393 -235.61663054 43.41206451 -238.68359375 38.01953125 C-239.70497399 36.22904039 -240.72672487 34.43876141 -241.74850464 32.64849854 C-242.71853918 30.94389989 -243.6817454 29.23542118 -244.64477539 27.52685547 C-245.23637451 26.49061035 -245.82797363 25.45436523 -246.4375 24.38671875 C-246.95586426 23.47116211 -247.47422852 22.55560547 -248.00830078 21.61230469 C-249.6459937 19.10829955 -251.43009444 17.18351231 -253.6171875 15.15234375 Z " fill="#000000" transform="translate(325.6171875,308.84765625)"/>
<path d="M0 0 C1.96121913 0.88273221 3.92543259 1.75855432 5.88995361 2.63391113 C7.31906977 3.27077335 8.74739266 3.90941812 10.17498779 4.54968262 C19.0769035 8.53190968 28.07009351 12.29778042 37.05999756 16.07598877 C39.99065322 17.30856891 42.91963717 18.54504009 45.84814453 19.78271484 C54.15343783 23.29108919 62.46293634 26.78615554 70.8046875 30.20703125 C72.02446289 30.71089355 73.24423828 31.21475586 74.50097656 31.73388672 C76.67334262 32.62955544 78.84952671 33.51604732 81.03027344 34.39111328 C82.42681152 34.96901611 82.42681152 34.96901611 83.8515625 35.55859375 C85.03226318 36.03703735 85.03226318 36.03703735 86.23681641 36.52514648 C88.72531871 37.96193517 89.81765752 39.19352939 91.25 41.6875 C102.77359595 89.32864721 83.14846826 152.26412038 58.50830078 192.68701172 C51.41531311 203.96367858 43.55785342 214.1644361 34.25 223.6875 C32.94289063 225.08742187 32.94289063 225.08742187 31.609375 226.515625 C20.54621913 238.09635541 0.63985043 254.97415989 -15.91796875 256.25 C-22.31912339 256.01146449 -27.56939217 252.7116884 -33.0625 249.6875 C-34.17463867 249.09026123 -35.28677734 248.49302246 -36.43261719 247.87768555 C-43.83353816 243.85897023 -50.99312107 239.72994696 -57.75 234.6875 C-58.52875488 234.11418945 -58.52875488 234.11418945 -59.32324219 233.52929688 C-69.69722913 225.8686933 -79.63439351 217.77378357 -87.75 207.6875 C-88.44738281 206.82769531 -89.14476562 205.96789062 -89.86328125 205.08203125 C-121.08689015 165.12228308 -125.84648188 112.97369309 -127.47479248 64.02511597 C-127.5329693 62.30873777 -127.59594939 60.59251523 -127.66387939 58.87649536 C-127.75698889 56.45432165 -127.82871655 54.03242567 -127.89453125 51.609375 C-127.92552414 50.88332565 -127.95651703 50.15727631 -127.9884491 49.40922546 C-128.07959936 44.94028363 -127.70231905 42.10538139 -124.75 38.6875 C-122.44617707 37.33478996 -120.35097568 36.26507334 -117.9140625 35.234375 C-117.24557281 34.93770935 -116.57708313 34.6410437 -115.88833618 34.33538818 C-113.84900736 33.43605179 -111.80124462 32.55926326 -109.75 31.6875 C-108.62561523 31.20216797 -107.50123047 30.71683594 -106.34277344 30.21679688 C-102.9456738 28.76831841 -99.53730127 27.34977661 -96.125 25.9375 C-93.43814857 24.81927481 -90.75232042 23.69859923 -88.06640625 22.578125 C-86.98999123 22.12959167 -86.98999123 22.12959167 -85.89183044 21.67199707 C-75.60012265 17.38014717 -65.33312259 13.02949409 -55.0625 8.6875 C-53.11964308 7.86617741 -51.17677228 7.04488766 -49.23388672 6.22363281 C-48.30489563 5.83073059 -47.37590454 5.43782837 -46.41876221 5.03302002 C-44.61167472 4.27011152 -42.80371037 3.50927621 -40.99481201 2.75067139 C-37.3333286 1.21400466 -33.68077237 -0.32766261 -30.07177734 -1.984375 C-18.16929402 -7.33870647 -11.65196341 -5.390424 0 0 Z M-26.109375 15.17578125 C-26.98569077 15.54637161 -27.86200653 15.91696198 -28.76487732 16.29878235 C-31.6772907 17.53086121 -34.58864191 18.76542984 -37.5 20 C-39.51465421 20.85288045 -41.52938497 21.70558009 -43.54418945 22.55810547 C-46.69243746 23.89030902 -49.84060497 25.22270059 -52.98847961 26.55578613 C-60.55088529 29.75828997 -68.11632323 32.95354101 -75.68359375 36.14453125 C-76.71894257 36.58120621 -77.75429138 37.01788116 -78.8210144 37.4677887 C-82.8578061 39.17035954 -86.89460666 40.8729087 -90.9317627 42.57461548 C-93.71909055 43.74965118 -96.50606908 44.92551166 -99.29296875 46.1015625 C-100.12420761 46.45172928 -100.95544647 46.80189606 -101.81187439 47.16267395 C-105.81937655 48.84038324 -105.81937655 48.84038324 -109.75 50.6875 C-110.86732654 103.02995099 -106.73975732 161.30072415 -69.75 201.6875 C-69.01007813 202.49832031 -68.27015625 203.30914062 -67.5078125 204.14453125 C-56.58122535 215.57142001 -43.36295305 223.8598145 -29.75 231.6875 C-29.1307666 232.04457031 -28.5115332 232.40164062 -27.87353516 232.76953125 C-20.26173694 237.25699928 -20.26173694 237.25699928 -11.75 236.6875 C21.10671317 222.70591993 44.25509531 188.12366957 57.51171875 156.4140625 C64.98461411 137.75795311 70.08550194 118.51703597 73.25 98.6875 C73.42789063 97.59767822 73.42789063 97.59767822 73.609375 96.48583984 C75.92708674 81.65869285 75.44980116 66.64799643 75.25 51.6875 C64.5276791 46.00754532 53.37361127 41.4217185 42.1875 36.75 C38.18019329 35.06960294 34.17407193 33.38638893 30.16796875 31.703125 C28.66733383 31.07323418 28.66733383 31.07323418 27.13638306 30.43061829 C15.8948979 25.70756236 4.69408049 20.89045763 -6.50024414 16.05688477 C-7.8595351 15.47151076 -9.21882857 14.88614255 -10.578125 14.30078125 C-11.7527832 13.79329346 -12.92744141 13.28580566 -14.13769531 12.76293945 C-18.6827899 10.89180472 -21.79390567 13.34245438 -26.109375 15.17578125 Z " fill="#000000" transform="translate(330.75,13.3125)"/>
<path d="M0 0 C2.50262814 3.2610003 3.11742572 4.99668095 2.63891602 9.08520508 C0.80400202 14.86250321 -4.08970263 18.80084059 -8.28515625 22.94921875 C-9.21541122 23.88425735 -10.1456662 24.81929596 -11.10411072 25.78266907 C-13.07074656 27.75665429 -15.04608074 29.72137244 -17.02807617 31.67993164 C-19.55110729 34.17455481 -22.05112049 36.6908537 -24.54493046 39.21464825 C-26.48085261 41.16876329 -28.42868288 43.11065978 -30.38015556 45.04923439 C-31.75203327 46.41621403 -33.11395349 47.79316383 -34.4756012 49.17033386 C-40.43330853 55.01805881 -46.40544236 60.00036734 -55.0625 60.4375 C-62.69412146 59.58954206 -66.67629745 57.57489703 -72 52 C-72.80179687 51.20980469 -73.60359375 50.41960937 -74.4296875 49.60546875 C-89.6552245 34.55018536 -89.6552245 34.55018536 -93 28 C-92.94030928 24.47824756 -92.70788335 22.11771056 -90.8125 19.125 C-88.14000274 17.4662086 -86.14416347 17.12330053 -83 17 C-78.06405065 18.9703449 -75.17424758 21.60052163 -71.6875 25.5625 C-71.21747559 26.08610107 -70.74745117 26.60970215 -70.26318359 27.14916992 C-67.94346215 29.74094779 -65.68992787 32.37265988 -63.46484375 35.046875 C-62.69269531 35.95953125 -61.92054688 36.8721875 -61.125 37.8125 C-60.10792969 39.05966797 -60.10792969 39.05966797 -59.0703125 40.33203125 C-57.11242611 42.27450836 -57.11242611 42.27450836 -54.453125 41.953125 C-51.8228241 40.93116096 -50.53870098 39.98656032 -48.625 37.9375 C-48.10164063 37.38964844 -47.57828125 36.84179688 -47.0390625 36.27734375 C-45.90431825 35.00999528 -44.77617375 33.73632558 -43.67529297 32.43945312 C-38.28760121 26.13856508 -32.48720265 20.26656845 -26.63818359 14.39794922 C-24.86482311 12.61476675 -23.10241234 10.82118609 -21.33984375 9.02734375 C-20.20378321 7.88476183 -19.06708688 6.74281165 -17.9296875 5.6015625 C-17.40873505 5.06826324 -16.88778259 4.53496399 -16.3510437 3.98550415 C-10.95605823 -1.37694128 -7.22469258 -3.21097448 0 0 Z " fill="#000000" transform="translate(364,95)"/>
</svg>
