<?xml version="1.0" standalone="no"?>
<!DOCTYPE svg PUBLIC "-//W3C//DTD SVG 20010904//EN"
 "http://www.w3.org/TR/2001/REC-SVG-20010904/DTD/svg10.dtd">
<svg version="1.0" xmlns="http://www.w3.org/2000/svg"
 width="797.000000pt" height="259.000000pt" viewBox="0 0 797.000000 259.000000"
 preserveAspectRatio="xMidYMid meet">

<g transform="translate(0.000000,259.000000) scale(0.100000,-0.100000)"
fill="#000000" stroke="none">
<path d="M2455 2028 c-3 -7 -4 -218 -3 -468 l3 -455 30 -14 c22 -11 69 -15
175 -16 185 0 227 11 296 79 68 69 79 110 79 296 0 139 -1 147 -28 202 -53
109 -130 148 -289 148 l-98 0 0 104 c0 57 -3 111 -6 120 -5 13 -22 16 -80 16
-51 0 -76 -4 -79 -12z m345 -371 c13 -7 35 -28 47 -46 21 -31 23 -45 23 -168
0 -204 -21 -233 -170 -233 l-80 0 0 224 c0 255 -9 233 95 235 33 0 71 -5 85
-12z"/>
<path d="M6927 2033 c-4 -3 -7 -15 -7 -25 0 -13 -8 -18 -30 -18 -20 0 -30 -5
-30 -15 0 -10 10 -15 29 -15 26 0 30 -4 33 -32 2 -21 8 -33 18 -33 10 0 16 12
18 33 3 26 7 32 28 32 15 0 24 6 24 15 0 9 -9 15 -25 15 -20 0 -25 5 -25 25 0
24 -18 34 -33 18z"/>
<path d="M590 2011 c-131 -47 -188 -194 -126 -327 27 -59 60 -86 216 -179 148
-89 180 -119 180 -175 0 -53 -13 -76 -53 -96 -27 -14 -54 -16 -183 -11 -171 7
-164 9 -164 -68 0 -23 6 -47 13 -53 23 -20 159 -35 264 -29 176 9 273 72 303
198 14 57 8 124 -16 174 -27 57 -90 109 -229 189 -183 106 -216 149 -161 213
l24 28 179 1 178 1 3 62 c3 59 2 62 -25 72 -15 6 -100 13 -188 15 -141 4 -167
2 -215 -15z"/>
<path d="M5360 1835 c0 -127 1 -135 20 -135 17 0 19 8 22 78 l3 77 38 3 37 3
0 -80 c0 -74 2 -81 20 -81 18 0 20 7 20 84 0 104 -12 121 -77 112 l-43 -6 0
40 c0 33 -3 40 -20 40 -19 0 -20 -7 -20 -135z"/>
<path d="M6190 1840 c-21 -115 -22 -155 -5 -138 6 6 45 223 45 251 0 9 -4 17
-8 17 -5 0 -19 -59 -32 -130z"/>
<path d="M6786 1958 c-3 -7 -7 -25 -10 -40 -6 -25 -11 -28 -49 -28 -61 0 -87
-30 -94 -107 -7 -74 5 -85 79 -81 l53 3 17 95 c28 164 29 170 18 170 -6 0 -12
-6 -14 -12z m-30 -140 c-13 -96 -14 -98 -56 -98 -44 0 -54 15 -44 69 10 59 29
81 71 81 l36 0 -7 -52z"/>
<path d="M5253 1920 c-3 -13 -14 -20 -29 -20 -31 0 -32 -27 -1 -32 20 -3 22
-9 27 -83 l5 -80 38 -3 c39 -3 51 12 17 21 -18 5 -20 14 -20 76 0 64 2 71 20
71 11 0 20 7 20 15 0 8 -9 15 -20 15 -13 0 -20 7 -20 20 0 12 -7 20 -16 20 -9
0 -18 -9 -21 -20z"/>
<path d="M4413 1890 c-27 -11 -32 -32 -33 -125 0 -38 0 -78 0 -88 -2 -44 61
-68 123 -48 38 13 52 42 36 72 -9 18 -13 20 -86 39 -56 14 -55 30 1 30 58 0
82 22 90 83 l6 47 -58 -1 c-31 0 -67 -4 -79 -9z m75 -29 c8 -4 12 -19 10 -32
-2 -20 -9 -24 -38 -24 -25 0 -36 5 -38 18 -7 36 33 59 66 38z m-9 -162 c34
-12 37 -19 19 -37 -30 -30 -94 -2 -81 36 6 15 21 15 62 1z"/>
<path d="M4590 1799 c0 -92 1 -99 20 -99 18 0 20 7 20 79 0 79 0 80 27 83 16
2 29 10 31 19 2 14 -6 17 -47 17 l-51 0 0 -99z"/>
<path d="M4740 1882 c-34 -28 -40 -117 -10 -154 28 -36 96 -40 126 -7 29 32
26 120 -6 154 -28 30 -77 33 -110 7z m94 -64 c7 -29 6 -42 -8 -62 -32 -50 -76
-24 -76 46 0 41 17 60 50 56 20 -2 27 -11 34 -40z"/>
<path d="M4904 1883 c3 -10 10 -47 16 -83 16 -97 18 -100 50 -100 26 0 29 4
48 73 11 40 22 65 25 57 4 -8 13 -41 22 -72 15 -53 19 -58 45 -58 26 0 30 4
36 38 3 20 12 65 19 100 12 62 12 62 -10 62 -21 0 -24 -6 -30 -61 -14 -116
-19 -123 -39 -41 -17 68 -20 72 -47 72 -24 0 -30 -5 -38 -37 -5 -21 -14 -54
-19 -73 l-9 -35 -7 35 c-3 19 -9 58 -14 85 -6 42 -11 51 -31 53 -18 3 -22 0
-17 -15z"/>
<path d="M5647 1879 c-42 -24 -62 -132 -31 -163 18 -19 124 -23 124 -5 0 7
-12 9 -36 5 -45 -9 -87 15 -82 47 3 20 10 22 71 25 l67 3 0 34 c0 18 -7 41
-16 49 -18 18 -70 21 -97 5z m83 -28 c18 -35 12 -41 -45 -41 -59 0 -63 4 -39
38 20 28 69 30 84 3z"/>
<path d="M5807 1848 c17 -145 17 -143 43 -143 21 0 30 11 57 65 46 95 55 120
39 120 -7 0 -27 -36 -45 -80 -31 -74 -46 -98 -56 -88 -2 2 -7 41 -11 86 -5 56
-11 82 -19 82 -9 0 -12 -12 -8 -42z"/>
<path d="M6022 1883 c-18 -7 -39 -51 -47 -101 -9 -56 12 -82 65 -82 57 0 92
48 92 126 0 19 -6 41 -12 49 -12 14 -71 19 -98 8z m81 -66 c-2 -66 -25 -99
-66 -95 -32 3 -32 3 -32 59 0 70 16 91 64 87 l36 -3 -2 -48z"/>
<path d="M6274 1798 c11 -90 12 -93 36 -93 21 0 31 12 67 85 47 95 48 100 31
100 -7 0 -30 -41 -52 -90 -21 -50 -42 -88 -46 -85 -4 3 -11 43 -15 90 -4 56
-11 85 -19 85 -9 0 -10 -21 -2 -92z"/>
<path d="M6467 1861 c-32 -39 -43 -105 -22 -137 13 -20 24 -24 70 -24 34 0 55
4 55 11 0 7 -12 9 -35 5 -47 -9 -75 7 -75 44 l0 30 64 0 c60 0 64 1 70 26 18
71 -77 104 -127 45z m101 -23 c3 -27 2 -28 -47 -28 -38 0 -51 4 -51 14 0 26
31 47 64 44 25 -2 32 -8 34 -30z"/>
<path d="M1160 1673 l0 -128 80 80 c79 79 81 81 78 125 l-3 45 -77 3 -78 3 0
-128z"/>
<path d="M1435 1788 c-3 -7 -4 -168 -3 -358 l3 -345 75 0 75 0 3 268 2 268 43
19 c52 24 120 26 141 4 9 -8 17 -16 18 -17 1 -1 5 -123 8 -272 l5 -270 74 -3
c53 -2 77 1 83 10 4 7 8 132 7 278 l-1 265 29 12 c47 20 130 16 153 -7 19 -19
20 -33 20 -267 0 -137 3 -258 6 -271 6 -22 11 -23 83 -20 l76 3 0 285 0 286
-25 49 c-38 75 -88 98 -205 93 -61 -3 -104 -11 -135 -24 l-45 -20 -40 23 c-56
32 -158 32 -236 0 l-56 -23 -9 20 c-8 18 -19 21 -77 24 -48 2 -69 -1 -72 -10z"/>
<path d="M3205 1794 c-11 -3 -30 -7 -42 -10 -21 -4 -23 -10 -23 -65 l0 -61
115 7 c190 12 220 -1 232 -102 l5 -50 -105 -6 c-183 -11 -264 -59 -286 -169
-11 -54 -3 -137 18 -176 17 -31 56 -61 100 -77 75 -26 147 -18 262 29 11 5 18
1 22 -14 5 -19 11 -21 74 -18 l68 3 3 263 c3 283 -2 322 -45 372 -51 61 -93
74 -243 77 -74 1 -144 -1 -155 -3z m283 -477 l3 -78 -38 -16 c-21 -9 -64 -17
-95 -17 -74 -1 -93 16 -93 84 0 80 47 110 165 107 l55 -2 3 -78z"/>
<path d="M1233 1508 l-83 -83 0 -157 c0 -86 3 -163 6 -172 8 -21 152 -24 159
-3 3 7 4 122 3 255 l-3 242 -82 -82z"/>
<path d="M4101 1459 c-93 -18 -164 -83 -204 -187 -25 -64 -60 -298 -54 -359
10 -101 79 -175 175 -189 61 -9 204 4 220 20 8 7 16 32 19 55 l6 41 -101 -6
c-119 -8 -153 2 -176 51 -20 42 -20 60 4 212 23 142 51 207 103 239 27 16 50
19 149 18 l116 -2 7 45 c3 25 4 47 1 51 -19 18 -190 26 -265 11z"/>
<path d="M4555 1284 c-91 -23 -151 -67 -186 -136 -27 -53 -49 -152 -49 -226 0
-159 120 -237 288 -187 66 20 114 62 146 128 31 65 60 217 52 271 -9 55 -47
109 -91 130 -37 18 -125 29 -160 20z m105 -129 c21 -22 22 -30 17 -97 -14
-161 -56 -228 -143 -228 -59 0 -94 32 -94 87 0 52 25 165 44 202 33 62 132 83
176 36z"/>
<path d="M5107 1276 c-20 -8 -44 -19 -52 -26 -13 -10 -15 -9 -15 9 0 20 -4 22
-57 19 l-58 -3 -41 -235 c-23 -129 -45 -252 -48 -273 l-6 -38 62 3 62 3 36
205 36 205 35 16 c18 10 55 20 81 23 46 6 47 8 56 49 5 23 7 45 5 50 -6 11
-54 8 -96 -7z"/>
<path d="M5415 1283 c-74 -9 -137 -26 -141 -36 -10 -30 -123 -701 -118 -708 3
-5 29 -9 59 -9 60 0 56 -5 75 95 21 114 11 103 88 97 188 -13 281 76 314 303
15 108 3 165 -46 212 -50 47 -119 61 -231 46z m119 -103 c46 -17 52 -49 33
-162 -28 -162 -58 -198 -163 -198 -34 0 -66 5 -69 10 -4 6 6 87 21 180 21 128
32 170 44 174 30 8 109 6 134 -4z"/>
<path d="M5734 822 c-14 -9 -27 -89 -16 -96 16 -9 29 10 36 51 6 42 -1 58 -20
45z"/>
</g>
</svg>
