<?xml version="1.0" encoding="UTF-8"?>
<svg version="1.1" xmlns="http://www.w3.org/2000/svg" width="512" height="512">
<path d="M0 0 C3.93511043 3.44033079 3.93511043 3.44033079 8.56591797 5.62988281 C10.76715022 4.7549787 10.76715022 4.7549787 12.94091797 3.12988281 C26.73354373 -5.68934359 43.17252263 -10.74792562 59.56591797 -11.37011719 C60.92330078 -11.43005859 60.92330078 -11.43005859 62.30810547 -11.49121094 C88.111647 -12.0729884 111.68622952 -3.5869339 131.56591797 12.62988281 C132.16791016 13.09136719 132.76990234 13.55285156 133.39013672 14.02832031 C151.58131065 28.25658759 163.55593543 53.042178 166.56591797 75.62988281 C166.91782455 82.4606106 166.87882418 89.31267953 166.91601562 96.15087891 C166.93259139 98.3834067 166.95990246 100.61588108 166.99804688 102.84814453 C167.05298315 106.08556327 167.0747115 109.32174747 167.08935547 112.55957031 C167.11202484 113.54939911 167.13469421 114.53922791 167.15805054 115.55905151 C167.13562494 122.96354061 165.26631648 127.81872823 160.0874939 133.15255737 C153.97318121 138.58675257 148.62358201 138.91812894 140.81860352 138.85693359 C139.35447273 138.85737167 139.35447273 138.85737167 137.86076355 138.8578186 C134.64129685 138.85642763 131.42206289 138.8408772 128.20263672 138.82519531 C125.96775946 138.82146436 123.73288057 138.81861778 121.4980011 138.81661987 C115.62075267 138.80898991 109.74360336 138.78934679 103.86639404 138.76721191 C97.86716045 138.74673983 91.86791081 138.73761523 85.86865234 138.72753906 C74.10103071 138.70610039 62.33348259 138.67197204 50.56591797 138.62988281 C50.57059082 139.89896484 50.57526367 141.16804687 50.58007812 142.47558594 C50.61555399 152.11034083 47.7766361 158.20791935 41.12060547 165.13378906 C34.51109439 171.18347816 27.23519943 172.07524141 18.71170044 172.01756287 C17.74820234 172.0229484 16.78470424 172.02833394 15.79200923 172.03388268 C12.5786557 172.04813633 9.36571561 172.0410648 6.15234375 172.03393555 C3.84229197 172.03964048 1.53224301 172.04660521 -0.77780151 172.05473328 C-7.04230294 172.07266667 -13.3066643 172.07149583 -19.57118368 172.06579089 C-24.80475405 172.06269914 -30.03829752 172.0687914 -35.27186406 172.07482964 C-48.32641704 172.08967663 -61.38089144 172.0860609 -74.43544413 172.07396633 C-85.75759713 172.06403674 -97.07958664 172.07697181 -108.40171443 172.10090052 C-120.04342301 172.12531817 -131.68504873 172.13449351 -143.32678235 172.1282478 C-149.85626148 172.12487921 -156.38560556 172.12728696 -162.91506577 172.14449883 C-169.05635572 172.15998105 -175.19733391 172.1559978 -181.3386116 172.13719368 C-183.58877249 172.13351131 -185.83895654 172.13660593 -188.08909607 172.14707947 C-191.16838703 172.16031489 -194.24664978 172.14871857 -197.32589722 172.13108826 C-198.20957564 172.14069326 -199.09325407 172.15029827 -200.00371063 172.16019434 C-208.07618355 172.06554669 -215.27690708 169.89895781 -221.30908203 164.37988281 C-226.86963082 158.22918143 -228.48432822 152.6885082 -229.43408203 144.62988281 C-230.67721161 144.64320648 -231.92034119 144.65653015 -233.20114136 144.67025757 C-244.94139212 144.79211766 -256.68151383 144.88194133 -268.42225456 144.94075584 C-274.45771611 144.97201017 -280.49266531 145.01437643 -286.52783203 145.08251953 C-292.35691457 145.14792059 -298.18550566 145.18363319 -304.01492691 145.19914627 C-306.23402767 145.21019528 -308.45310286 145.23177159 -310.67199326 145.26426315 C-331.66354016 145.55929932 -331.66354016 145.55929932 -338.80740356 140.23306274 C-343.25899118 135.8457815 -345.53269596 131.48153259 -345.61108398 125.15283203 C-345.62391922 124.24693329 -345.63675446 123.34103455 -345.64997864 122.40768433 C-345.65736557 121.4265567 -345.6647525 120.44542908 -345.67236328 119.43457031 C-345.6844709 117.90330002 -345.6844709 117.90330002 -345.69682312 116.34109497 C-345.71067042 114.17061052 -345.72138967 112.00010424 -345.72924805 109.82958984 C-345.7406737 107.63811742 -345.76097244 105.44667069 -345.79077148 103.25537109 C-346.22215485 71.5161589 -337.53930501 46.5437204 -315.37158203 23.12988281 C-293.87975151 2.1136668 -266.65650052 -4.85671575 -237.39111328 -4.58105469 C-220.24236122 -4.21098704 -204.41497498 1.49122463 -189.43408203 9.62988281 C-188.82886719 8.95505859 -188.82886719 8.95505859 -188.21142578 8.26660156 C-139.39550592 -43.45132627 -53.4958543 -43.87946226 0 0 Z M-182.55908203 27.87988281 C-201.89178868 50.50155615 -211.70742287 78.43631142 -211.77001953 108.09863281 C-211.77667633 109.22257446 -211.78333313 110.34651611 -211.79019165 111.5045166 C-211.80022636 113.85390606 -211.80501156 116.2033235 -211.8046875 118.55273438 C-211.8091058 122.14922914 -211.84564594 125.74453817 -211.88330078 129.34082031 C-211.88916187 131.63508698 -211.89313599 133.92935943 -211.89501953 136.22363281 C-211.90939056 137.2944812 -211.9237616 138.36532959 -211.93856812 139.46862793 C-211.9115318 145.36558021 -211.9115318 145.36558021 -209.65527344 150.71777344 C-206.3677186 153.54786022 -203.75409176 154.87822923 -199.39789009 154.88715172 C-198.2001728 154.89682506 -198.2001728 154.89682506 -196.97825921 154.90669382 C-196.10686708 154.90359661 -195.23547495 154.90049941 -194.337677 154.89730835 C-193.40744276 154.90183946 -192.47720852 154.90637058 -191.51878536 154.91103899 C-188.39430935 154.92372333 -185.27000676 154.92206002 -182.14550781 154.92041016 C-179.90837377 154.92639287 -177.67124179 154.93319781 -175.43411255 154.94076538 C-169.3514849 154.95845831 -163.2689135 154.96312214 -157.18626261 154.96439695 C-152.1115811 154.96629434 -147.03691274 154.97364999 -141.96223629 154.98074114 C-130.67545672 154.99610399 -119.38870377 155.00207794 -108.10191692 155.00073044 C-107.08612137 155.00061057 -107.08612137 155.00061057 -106.04980469 155.00048828 C-105.03276824 155.00036564 -105.03276824 155.00036564 -103.9951856 155.00024052 C-93.00633941 154.99942758 -82.01763029 155.01856723 -71.02882375 155.04676501 C-59.74435741 155.0754929 -48.45995587 155.08893909 -37.17544544 155.08757746 C-30.84052516 155.08706702 -24.50575998 155.0927956 -18.17087173 155.11393356 C-12.21351132 155.1332686 -6.25645471 155.13347269 -0.29908371 155.1189003 C1.88825676 155.11680526 4.07561601 155.12155426 6.26292419 155.13362122 C9.24749057 155.14902094 12.23100254 155.13980006 15.21554565 155.12435913 C16.08247634 155.13464626 16.94940702 155.14493338 17.84260833 155.15553224 C23.21842791 155.09401055 26.32000531 154.23403488 30.56591797 150.62988281 C32.71681355 147.40353944 32.8207109 146.52166108 32.84057617 142.80151367 C32.85010818 141.81875961 32.8596402 140.83600555 32.86946106 139.82347107 C32.86854965 138.75798538 32.86763824 137.69249969 32.86669922 136.59472656 C32.87312691 134.93383751 32.87312691 134.93383751 32.87968445 133.23939514 C32.88543731 130.88478274 32.88592102 128.53015256 32.8815918 126.17553711 C32.87847595 122.63330026 32.90172392 119.09193545 32.92724609 115.54980469 C32.97292863 99.55041153 32.32142357 83.80736347 26.94091797 68.56738281 C26.68930908 67.83825684 26.4377002 67.10913086 26.1784668 66.35791016 C14.58334564 34.22868256 -10.12405601 9.80610261 -40.7097168 -4.56835938 C-90.49424425 -26.75885786 -146.36342591 -10.70468661 -182.55908203 27.87988281 Z M20.56591797 18.62988281 C20.56591797 22.77304454 22.7561949 25.06096978 25.06591797 28.31738281 C42.9806253 54.40354323 48.39069281 81.95918253 50.09057617 112.98950195 C50.15944912 114.23833538 50.15944912 114.23833538 50.22971344 115.51239777 C50.34212298 117.55154066 50.45406752 119.59070918 50.56591797 121.62988281 C62.88326051 121.69934625 75.20055656 121.75267556 87.51805496 121.78531933 C93.23736736 121.80098548 98.9565459 121.82224127 104.67578125 121.85620117 C110.1935737 121.88876047 115.71123726 121.90672867 121.22911835 121.91451454 C123.33589457 121.9200642 125.44266361 121.93090111 127.54938507 121.94707298 C130.49678375 121.96880147 133.4436476 121.97185163 136.39111328 121.97045898 C137.26505234 121.98124481 138.13899139 121.99203064 139.03941345 122.00314331 C142.5623659 121.98509181 144.93902741 121.95111168 148.10798645 120.32728577 C150.51722039 117.52232493 150.11494295 114.28916543 150.06201172 110.77050781 C150.06346695 109.9890741 150.06492218 109.20764038 150.06642151 108.40252686 C150.06476015 106.74145805 150.05317228 105.08037423 150.0324707 103.41943359 C150.00399458 100.9302857 150.01175935 98.44333552 150.02490234 95.95410156 C149.99085629 70.00695646 142.03502684 48.12526353 123.56591797 29.62988281 C122.83501953 28.88738281 122.10412109 28.14488281 121.35107422 27.37988281 C104.68317433 11.48795592 82.38246206 5.82252968 59.91748047 6.32519531 C45.45094275 6.94968731 33.29579285 12.06579214 20.56591797 18.62988281 Z M-301.43408203 34.62988281 C-302.44921875 35.50193359 -302.44921875 35.50193359 -303.48486328 36.39160156 C-318.84654039 50.58345156 -327.7294436 71.53126183 -328.7199707 92.25878906 C-328.84398853 96.30819925 -328.85667314 100.35383093 -328.82519531 104.40478516 C-328.8088264 106.91914862 -328.82528978 109.43196813 -328.84423828 111.94628906 C-328.8422603 113.55436551 -328.8384259 115.162441 -328.83251953 116.77050781 C-328.83859222 117.51729797 -328.84466492 118.26408813 -328.85092163 119.0335083 C-328.85836621 122.93538624 -328.85836621 122.93538624 -327.16015148 126.32602406 C-325.06308105 127.91013392 -324.034331 128.00086418 -321.42878723 127.99064636 C-320.61690445 127.99477036 -319.80502167 127.99889435 -318.96853638 128.00314331 C-318.08165131 127.99235748 -317.19476624 127.98157166 -316.28100586 127.97045898 C-315.34422501 127.97089706 -314.40744415 127.97133514 -313.442276 127.9717865 C-310.34167741 127.9696942 -307.24161757 127.94634212 -304.14111328 127.92285156 C-301.99306026 127.91725718 -299.84500341 127.91298634 -297.69694519 127.9099884 C-292.03990127 127.89852722 -286.38308798 127.86904894 -280.72613525 127.83587646 C-274.95498779 127.8052031 -269.18380311 127.79148891 -263.41259766 127.77636719 C-252.08632439 127.74418058 -240.76022238 127.69296873 -229.43408203 127.62988281 C-229.38298782 126.53864609 -229.33189362 125.44740936 -229.2792511 124.32310486 C-229.08557217 120.2226853 -228.8835399 116.12271051 -228.67915344 112.02281189 C-228.59230637 110.25800739 -228.50763848 108.4930941 -228.42530823 106.72807312 C-227.83332024 94.07906143 -226.88997878 81.87114349 -223.43408203 69.62988281 C-223.1655542 68.6425415 -223.1655542 68.6425415 -222.89160156 67.63525391 C-218.50300423 51.90129077 -210.50639817 38.07035117 -201.43408203 24.62988281 C-230.02686085 1.43196792 -276.24896462 12.56653875 -301.43408203 34.62988281 Z " fill="#000000" transform="translate(345.43408203125,266.3701171875)"/>
<path d="M0 0 C16.54987078 13.20546896 27.28453899 30.91327193 30 52 C32.04635593 73.82944029 25.63951808 93.55551267 11.94140625 110.5546875 C-0.84724599 125.55456838 -18.49921078 134.66482146 -38 137 C-60.50799553 138.40930034 -81.78168266 132.68949689 -99.1875 117.8125 C-113.4802763 104.22978149 -122.88167444 85.82486227 -124 66 C-124.05285156 65.19433594 -124.10570312 64.38867188 -124.16015625 63.55859375 C-124.87129414 42.81191865 -117.01225388 24.36308371 -103.6875 8.75 C-76.57987725 -20.16171368 -31.65675363 -23.10338701 0 0 Z M-89 19 C-100.57778182 31.28400511 -106.52852826 45.88110222 -106.3515625 62.65966797 C-105.7941943 80.03484754 -98.24843754 93.20715527 -86 105 C-74.68106425 115.11875609 -60.08185064 119.98098127 -45 120 C-31.40447274 119.08475643 -19.63132674 114.4620341 -9 106 C-8.01 105.2265625 -7.02 104.453125 -6 103.65625 C3.53158995 95.63537849 9.37398076 82.95848761 12 71 C13.46395939 53.76566427 10.67262155 38.33599861 -0.03515625 24.33984375 C-9.97900602 12.7123792 -23.38114909 4.6509692 -38.65625 2.48046875 C-57.43154855 1.04942465 -75.08518542 5.70421973 -89 19 Z " fill="#000000" transform="translate(300,89)"/>
<path d="M0 0 C12.01313482 9.19441045 22.0268563 22.06694447 24.75390625 37.3046875 C26.4000006 55.33333987 24.1852417 70.99884479 12.859375 85.796875 C2.75494051 97.45583787 -10.60139161 106.76618913 -26.37817383 108.21899414 C-45.40647585 109.10743908 -60.83239315 105.7130961 -75.8125 93.1875 C-88.34213436 81.40556534 -94.2351436 66.01194725 -94.9609375 49.06640625 C-95.26401675 35.24405771 -90.20638645 22.94893529 -82 12 C-81.58492187 11.40832031 -81.16984375 10.81664062 -80.7421875 10.20703125 C-61.89488723 -14.45246043 -24.46584206 -15.85976697 0 0 Z M-68.0234375 22.57421875 C-75.68482014 31.97682471 -78.15386995 43.10071616 -77 55 C-75.32863902 63.21435938 -72.66729536 69.79861398 -67 76 C-66.236875 76.86625 -65.47375 77.7325 -64.6875 78.625 C-55.68525116 86.58047572 -44.82676162 91.94956533 -32.5234375 91.3125 C-19.44267266 89.69259104 -9.19820393 84.6346113 -0.71875 74.3828125 C6.24110867 64.73391753 8.86296728 54.81948268 7.53125 43.015625 C5.52405966 31.62186807 -0.05453173 22.59534358 -9.05859375 15.34375 C-28.71533936 1.73827618 -51.79252081 5.51168265 -68.0234375 22.57421875 Z " fill="#000000" transform="translate(136,140)"/>
<path d="M0 0 C11.98295468 9.00593938 19.39109923 21.53341924 23 36 C25.35426084 54.28349343 22.22036114 70.02982905 11 85 C10.58492188 85.59167969 10.16984375 86.18335938 9.7421875 86.79296875 C1.3620386 97.75741506 -12.69117845 104.53713163 -26 107 C-43.51997751 108.55217165 -59.56685138 105.53592022 -73.8671875 94.859375 C-84.95846029 85.21772145 -94.62346196 72.07636899 -96 57 C-97.10626281 38.58697305 -94.09729385 23.01610829 -81.625 8.625 C-59.63878897 -14.32845551 -26.37173347 -18.317866 0 0 Z M-70.46875 22.83984375 C-77.28344837 32.45343609 -79.84978726 42.29734017 -78.53125 53.984375 C-76.52405966 65.37813193 -70.94546827 74.40465642 -61.94140625 81.65625 C-51.97659382 88.55342399 -41.09816568 91.4670484 -29.1171875 89.53515625 C-17.47333357 87.0187735 -8.52854139 81.23957353 -1 72 C5.5428753 61.70694008 7.7567138 50.63384907 5.3125 38.62109375 C3.3798209 31.67150182 0.86655501 26.32518323 -4 21 C-5.1446875 19.700625 -5.1446875 19.700625 -6.3125 18.375 C-15.58409886 10.18149403 -26.56386635 5.05164462 -39.18359375 5.62109375 C-51.91156706 7.33345632 -62.33042611 12.87807465 -70.46875 22.83984375 Z " fill="#000000" transform="translate(447,137)"/>
</svg>
