<?xml version="1.0" encoding="UTF-8"?>
<svg version="1.1" xmlns="http://www.w3.org/2000/svg" width="512" height="512">
<path d="M0 0 C3.37546445 1.42808111 5.34624578 3.52988352 6.86180115 6.93795776 C8.70074079 12.42814107 9.62818177 17.62275081 10.09765625 23.3828125 C10.17745224 24.24131805 10.25724823 25.09982361 10.33946228 25.98434448 C10.59058673 28.69709315 10.82773275 31.41079075 11.0625 34.125 C11.30226248 36.84617138 11.54527121 39.56691803 11.79624939 42.28707886 C11.951187 43.9704829 12.09966558 45.65449878 12.24049377 47.33914185 C12.85288202 54.35224927 12.85288202 54.35224927 15 61 C20.0562852 63.27924763 25.63180286 63.50629152 31.1171875 63.96484375 C32.87632067 64.12675134 34.63543468 64.28886718 36.39453125 64.45117188 C39.13461877 64.69605892 41.87494713 64.93749543 44.61572266 65.17456055 C47.28380336 65.40789171 49.95042362 65.65447457 52.6171875 65.90234375 C53.42372772 65.9680809 54.23026794 66.03381805 55.06124878 66.10154724 C61.73331079 66.73138734 68.68101088 67.62303615 73.5 72.5625 C75.56004357 75.9100708 76.19972828 77.83266664 76.3125 81.75 C76.34988281 82.59046875 76.38726562 83.4309375 76.42578125 84.296875 C75.2664654 91.65693525 68.20249277 97.10639874 63.19921875 102.12304688 C61.86663277 103.47052757 61.86663277 103.47052757 60.50712585 104.8452301 C58.07986621 107.29859518 55.64608367 109.74538251 53.21019745 112.19017982 C51.68417823 113.72208458 50.15933058 115.25514631 48.63482666 116.78855896 C43.85213593 121.59856412 39.06547978 126.40457002 34.27298355 131.20480585 C28.76422041 136.72251737 23.26875704 142.25303121 17.78459644 147.79519415 C13.52923562 152.09397107 9.26223675 156.38097093 4.98644543 160.65942621 C2.44020795 163.2077471 -0.10106678 165.76056204 -2.63027954 168.32579041 C-5.45817897 171.1931734 -8.30989403 174.03571667 -11.1640625 176.87695312 C-12.39434929 178.13488426 -12.39434929 178.13488426 -13.64949036 179.41822815 C-22.48063272 188.12536643 -33.28196579 194.03175895 -45.89483643 193.99053955 C-49.13718919 193.8391713 -52.3654181 193.60202212 -55.6015625 193.3515625 C-84.74740778 190.17623604 -84.74740778 190.17623604 -110.60140991 200.5921936 C-115.04316895 204.95245247 -118.72252576 209.89219838 -122.10620117 215.10546875 C-125.71103948 220.61519712 -130.24246197 225.40077907 -134.9375 230 C-135.52402344 230.5775 -136.11054688 231.155 -136.71484375 231.75 C-137.35099609 232.36875 -137.35099609 232.36875 -138 233 C-137.48050781 233.85980469 -136.96101562 234.71960938 -136.42578125 235.60546875 C-124.59557892 255.51462586 -119.42409474 275.98672833 -125.09106445 298.81689453 C-128.10652204 309.72527114 -133.4270031 319.56678438 -141 328 C-141.72832031 328.82113281 -142.45664062 329.64226562 -143.20703125 330.48828125 C-152.6602798 340.55240208 -163.90921211 346.82244883 -177 351 C-178.15628906 351.36931641 -178.15628906 351.36931641 -179.3359375 351.74609375 C-198.94139355 356.7334466 -219.95996446 352.22847152 -237.11132812 342.18896484 C-254.14307985 331.46706323 -265.08974056 314.90211423 -269.86645508 295.43457031 C-274.04070605 275.77954567 -270.35743938 256.04234567 -260.20214844 238.84570312 C-256.79848287 233.61992902 -252.46715903 229.31222866 -248 225 C-247.29359375 224.26265625 -246.5871875 223.5253125 -245.859375 222.765625 C-233.25487152 210.35355669 -214.68882308 204.72575954 -197.3125 204.5625 C-182.34048004 204.78997072 -168.48592379 209.12562148 -155.9375 217.27734375 C-153.99690482 218.24857243 -153.99690482 218.24857243 -152.0793457 217.23120117 C-149.99471213 215.996869 -148.4951508 214.73904328 -146.79296875 213.0234375 C-146.21015137 212.43933105 -145.62733398 211.85522461 -145.02685547 211.25341797 C-144.41986816 210.63354004 -143.81288086 210.01366211 -143.1875 209.375 C-142.55730957 208.73836426 -141.92711914 208.10172852 -141.27783203 207.44580078 C-137.6587045 203.76662031 -134.16472815 200.03101966 -130.8671875 196.05859375 C-129.26706169 194.29443831 -127.63357007 192.70725706 -125.8828125 191.09765625 C-125.32674316 190.5763916 -124.77067383 190.05512695 -124.19775391 189.51806641 C-123.08874608 188.48560787 -121.96379771 187.46994159 -120.82177734 186.47412109 C-119.0327031 184.87615034 -119.0327031 184.87615034 -117 182 C-117.18883849 180.41109172 -117.39606025 178.82277221 -117.68161011 177.24836731 C-118.3905978 172.24172361 -118.20699477 167.1335327 -118.23828125 162.0859375 C-118.246353 160.83930328 -118.25442474 159.59266907 -118.26274109 158.30825806 C-118.2765407 155.67410658 -118.28728119 153.03993754 -118.29516602 150.40576172 C-118.30400292 147.72890837 -118.32710665 145.05329979 -118.35668945 142.37646484 C-118.39961971 138.48779872 -118.41557099 134.59981197 -118.42578125 130.7109375 C-118.44328934 129.53131439 -118.46079742 128.35169128 -118.47883606 127.13632202 C-118.43614034 110.53378662 -112.2026205 97.8256741 -100.6333313 86.10232544 C-99.8482016 85.32686371 -99.0630719 84.55140198 -98.25415039 83.75244141 C-97.40766434 82.90055237 -96.56117828 82.04866333 -95.68904114 81.17095947 C-93.39467231 78.86632403 -91.09172766 76.57074391 -88.78393483 74.27956438 C-86.35500829 71.86463478 -83.93640094 69.43940486 -81.51622009 67.01571655 C-77.45569274 62.95249982 -73.38721657 58.89738075 -69.3137207 54.84716797 C-64.61967503 50.17976884 -59.93823095 45.500016 -55.26335913 40.81341803 C-50.74204473 36.28128945 -46.21224306 31.75773687 -41.67846489 27.23807907 C-39.75930127 25.32463924 -37.84304135 23.40836142 -35.92912483 21.48967361 C-33.25178277 18.80941092 -30.56490241 16.13908717 -27.87524414 13.47119141 C-27.09213867 12.68358429 -26.3090332 11.89597717 -25.50219727 11.08450317 C-17.84578295 3.5303838 -11.23598409 -2.07882886 0 0 Z M-11 25 C-21.62045568 35.50335126 -32.22635457 46.02123403 -42.81535625 56.55629539 C-47.73300334 61.44822481 -52.65520371 66.33539857 -57.58862305 71.21142578 C-62.35282622 75.92023192 -67.10363341 80.64218075 -71.84668922 85.37230301 C-73.65513338 87.17153429 -75.46796079 88.9663713 -77.28528404 90.75663376 C-79.83706998 93.271935 -82.37258511 95.80264839 -84.9050293 98.33740234 C-85.65381348 99.06821014 -86.40259766 99.79901794 -87.17407227 100.55197144 C-94.20282429 107.65005256 -98.57074392 114.83652017 -98.56648254 124.993927 C-98.5277729 126.39298782 -98.5277729 126.39298782 -98.48828125 127.8203125 C-98.48120651 128.80498505 -98.47413177 129.78965759 -98.46684265 130.8041687 C-98.43912378 133.91192543 -98.37642921 137.0177991 -98.3125 140.125 C-98.28738799 142.24736959 -98.26457995 144.36976777 -98.24414062 146.4921875 C-98.18937113 151.66217049 -98.10325757 156.83076737 -98 162 C-93.59759538 158.30552836 -89.3820564 154.50990257 -85.3125 150.4453125 C-84.80630127 149.9400705 -84.30010254 149.43482849 -83.77856445 148.91427612 C-82.71866181 147.85504767 -81.65999543 146.79458079 -80.60253906 145.73291016 C-79.00696278 144.13198611 -77.4061266 142.53646316 -75.8046875 140.94140625 C-69.5247274 134.67765744 -69.5247274 134.67765744 -63.59375 128.0859375 C-57.72964858 121.22614573 -51.09164669 115.03993064 -44.67919922 108.69970703 C-42.89857851 106.93735897 -41.12041228 105.17258817 -39.34375 103.40625 C-38.77231766 102.8392186 -38.20088531 102.27218719 -37.61213684 101.68797302 C-34.71350525 98.79078044 -31.96427452 95.85709995 -29.35546875 92.69140625 C-26.740016 89.57878111 -23.88130675 87.36816975 -20.58203125 84.99609375 C-10.06324516 77.18259447 -10.06324516 77.18259447 -4.58422852 65.72753906 C-3.6341572 53.32842891 -5.09420981 36.0882916 -11 25 Z M-22.37814331 112.00061035 C-26.99460389 117.69168254 -31.90330524 123.05066396 -37.125 128.1875 C-37.67559082 128.7343042 -38.22618164 129.2811084 -38.79345703 129.84448242 C-41.1077946 132.14274364 -43.4281665 134.43487516 -45.74804688 136.72753906 C-51.46088617 142.37933002 -57.12505112 147.98907775 -62.33642578 154.11376953 C-65.6791257 157.90386339 -69.33498662 161.39672635 -72.9375 164.9375 C-74.46968728 166.44434093 -75.99976519 167.95333087 -77.52734375 169.46484375 C-78.19499756 170.120896 -78.86265137 170.77694824 -79.55053711 171.45288086 C-81.11394996 172.76828917 -81.11394996 172.76828917 -81 174 C-75.44992205 174.09938156 -69.90036982 174.1717096 -64.34960938 174.21972656 C-62.46410084 174.23975767 -60.57865377 174.26699073 -58.69335938 174.30175781 C-55.97250138 174.35065272 -53.25246944 174.37305382 -50.53125 174.390625 C-49.28075867 174.42159271 -49.28075867 174.42159271 -48.00500488 174.45318604 C-47.20477905 174.45348816 -46.40455322 174.45379028 -45.58007812 174.45410156 C-44.54083191 174.46742523 -44.54083191 174.46742523 -43.48059082 174.48101807 C-35.37267737 172.90879067 -30.0746245 167.63652373 -24.47265625 161.92675781 C-23.66194168 161.11662735 -22.85122711 160.30649689 -22.01594543 159.47181702 C-19.35519767 156.80829641 -16.70887668 154.13091816 -14.0625 151.453125 C-12.21392904 149.59708888 -10.36446933 147.74193755 -8.51416016 145.88763428 C-4.15371876 141.51480079 0.19643247 137.13187936 4.54290771 132.74516845 C9.49512716 127.74811352 14.45881999 122.7625219 19.42347145 117.77782297 C29.62838923 107.53118632 39.81894797 97.27034934 50 87 C40.11853087 80.41235392 23.13420777 78.43762479 11.58209229 80.24395752 C-2.51841318 84.37261752 -13.60161854 101.01500554 -22.37814331 112.00061035 Z M-235.625 240.375 C-246.09317188 251.94508471 -252.71406509 265.16835436 -252.3125 281.10546875 C-250.56806431 297.26330437 -244.31141337 311.36070772 -231.6875 321.9375 C-220.34754827 330.3697718 -206.23404728 335.51958072 -192 334 C-181.48709674 332.17878128 -172.88354189 329.1188377 -164 323 C-162.948125 322.278125 -161.89625 321.55625 -160.8125 320.8125 C-149.37316291 309.37316291 -142.6791598 296.26500642 -142 280 C-142.57466311 268.48328207 -144.94846074 257.31810546 -152 248 C-155.97075264 249.57097956 -158.15605255 252.13665926 -160.95703125 255.30078125 C-161.93563262 256.39137577 -162.91566798 257.4806849 -163.89697266 258.56884766 C-164.40552795 259.1341217 -164.91408325 259.69939575 -165.43804932 260.28179932 C-169.54397039 264.7984569 -173.79620843 269.17571099 -178.0715332 273.53149414 C-179.16133027 274.64829328 -180.2438933 275.77219154 -181.31958008 276.90258789 C-182.90859868 278.57073567 -184.51949669 280.21470538 -186.13671875 281.85546875 C-186.60776535 282.35950729 -187.07881195 282.86354584 -187.56413269 283.38285828 C-191.57094504 287.36638455 -194.56483692 287.80527303 -200 288 C-202.66668154 287.22806587 -203.58874394 286.50917417 -205.3125 284.375 C-206.34214557 280.81804258 -205.90454207 277.53250607 -205 274 C-203.12109375 271.21875 -203.12109375 271.21875 -200.4375 268.5 C-199.93879395 267.98445557 -199.44008789 267.46891113 -198.92626953 266.93774414 C-196.97297348 264.93546173 -194.98810358 262.96775191 -193 261 C-192.03732402 260.04308119 -191.07494204 259.08586656 -190.11279297 258.12841797 C-189.59594437 257.61423309 -189.07909576 257.10004822 -188.54658508 256.57028198 C-187.46744485 255.496195 -186.38866101 254.42174984 -185.31022644 253.34695435 C-182.58383162 250.63054018 -179.85120348 247.92119933 -177.10327148 245.2265625 C-176.07658 244.21232072 -175.04996544 243.19800106 -174.0234375 242.18359375 C-173.10481934 241.28181396 -172.18620117 240.38003418 -171.23974609 239.45092773 C-169.29209766 237.31963902 -168.08311271 235.64610989 -167 233 C-190.26838461 219.38270674 -215.66104595 222.3123749 -235.625 240.375 Z " fill="#ffffff" transform="translate(430,0)"/>
<path d="M0 0 C0.66 0.66 1.32 1.32 2 2 C1.48050781 2.49628906 0.96101563 2.99257812 0.42578125 3.50390625 C-3.92840543 7.74541527 -7.62819222 11.94228833 -11 17 C-11.93392578 16.76216797 -11.93392578 16.76216797 -12.88671875 16.51953125 C-14.93578281 16.00226403 -16.98686167 15.49296001 -19.0390625 14.98828125 C-21.87641406 14.28874987 -24.70027365 13.54758802 -27.5234375 12.79296875 C-47.1323867 7.68503297 -67.71155374 4.86779148 -88 6 C-88.81146484 6.04253906 -89.62292969 6.08507812 -90.45898438 6.12890625 C-142.83340734 9.17529327 -190.92497805 31.10332423 -228 68 C-228.53077148 68.52674316 -229.06154297 69.05348633 -229.60839844 69.59619141 C-267.15420053 107.34436466 -286.86640969 160.46706052 -287.3125 213.1875 C-287.16405003 266.05795671 -267.31545219 317.40839901 -230.42724609 355.52148438 C-228.94358254 357.05844409 -227.48227723 358.61501765 -226.01953125 360.171875 C-213.4320441 373.36517704 -198.74451113 383.88616634 -183 393 C-182.33564941 393.38639648 -181.67129883 393.77279297 -180.98681641 394.17089844 C-169.49009642 400.76968937 -157.51821686 405.68168137 -145 410 C-144.26813477 410.25265625 -143.53626953 410.5053125 -142.78222656 410.765625 C-92.27487004 427.78260988 -35.39799399 421.97479152 12.19946289 399.04199219 C31.93277331 389.19647653 49.09930301 376.16214003 65 361 C65.90234375 360.16210938 66.8046875 359.32421875 67.734375 358.4609375 C89.52226153 337.61761253 104.52383465 310.97558954 115 283 C115.37318359 282.02643555 115.37318359 282.02643555 115.75390625 281.03320312 C133.51445479 234.29758825 129.83046826 181.01474843 112 135 C111.63350342 134.32356445 111.26700684 133.64712891 110.8894043 132.95019531 C110 131 110 131 110 127 C111.50390625 125.2890625 111.50390625 125.2890625 113.5625 123.625 C114.22378906 123.08101562 114.88507813 122.53703125 115.56640625 121.9765625 C116.36949219 121.32429687 117.17257812 120.67203125 118 120 C120.3416097 118.00960068 122.67188341 116.00615621 125 114 C132.66916796 131.06223372 138.84348737 147.80995695 142.75 166.125 C143.04825684 167.51779175 143.04825684 167.51779175 143.35253906 168.9387207 C146.2846494 183.45719328 147.384968 197.84510255 147.3125 212.625 C147.30976578 213.79521698 147.30976578 213.79521698 147.30697632 214.98907471 C147.25541828 228.17550368 146.47289819 241.02030025 144 254 C143.82839355 254.90814453 143.65678711 255.81628906 143.47998047 256.75195312 C136.82241528 290.80727319 122.99313747 322.34964276 102 350 C101.33484375 350.87785156 100.6696875 351.75570313 99.984375 352.66015625 C80.97405023 377.04128415 57.80727841 396.71256824 31 412 C30.40638672 412.34272949 29.81277344 412.68545898 29.20117188 413.03857422 C9.67460285 424.23259252 -11.80123196 431.50847003 -33.75 436.25 C-34.44488525 436.40114258 -35.13977051 436.55228516 -35.85571289 436.70800781 C-50.31452815 439.64653524 -64.60370364 440.40794057 -79.3125 440.375 C-80.23075562 440.37445618 -81.14901123 440.37391235 -82.09509277 440.37335205 C-132.58609108 440.23646369 -181.46125037 423.69726577 -221 392 C-221.98484375 391.21882813 -222.9696875 390.43765625 -223.984375 389.6328125 C-238.59909233 377.79222756 -251.99354618 364.26228263 -263 349 C-263.763125 347.9584375 -264.52625 346.916875 -265.3125 345.84375 C-293.03368603 306.95708626 -307.48844548 261.32195006 -307.375 213.625 C-307.37445618 212.75626251 -307.37391235 211.88752502 -307.37335205 210.99246216 C-307.26761492 174.01618922 -298.50301032 138.61394257 -281 106 C-280.66419922 105.35788574 -280.32839844 104.71577148 -279.98242188 104.05419922 C-266.04662288 77.45850693 -245.76880063 53.35441768 -222 35 C-221.07960938 34.27425781 -220.15921875 33.54851562 -219.2109375 32.80078125 C-158.86576524 -13.80000542 -71.52715889 -29.68645993 0 0 Z " fill="#ffffff" transform="translate(313,72)"/>
<path d="M0 0 C1 1 1 1 1.11352539 3.04125977 C1.10828857 3.91580811 1.10305176 4.79035645 1.09765625 5.69140625 C1.09443359 6.63564453 1.09121094 7.57988281 1.08789062 8.55273438 C1.07951172 9.54595703 1.07113281 10.53917969 1.0625 11.5625 C1.05798828 12.55958984 1.05347656 13.55667969 1.04882812 14.58398438 C1.03700007 17.05604849 1.02051849 19.52799518 1 22 C-3.23196353 20.59837657 -7.45920996 19.18890217 -11.66796875 17.71875 C-20.01120355 14.82963873 -28.28985007 12.56444441 -37 11 C-38.01320312 10.814375 -39.02640625 10.62875 -40.0703125 10.4375 C-77.43471211 6.27764637 -113.43875964 16.21641635 -142.8359375 39.66455078 C-165.60256461 58.31771993 -180.13989041 82.77990632 -188 111 C-188.19352051 111.68932617 -188.38704102 112.37865234 -188.58642578 113.08886719 C-197.19021456 145.64685301 -189.79942749 182.04856467 -173.49609375 210.87890625 C-162.24761479 229.886815 -146.88527012 245.59024341 -128 257 C-127.33274902 257.40444336 -126.66549805 257.80888672 -125.97802734 258.22558594 C-114.62640306 264.96279544 -102.69694767 269.46985043 -90 273 C-89.30535645 273.19352051 -88.61071289 273.38704102 -87.89501953 273.58642578 C-68.71366213 278.60589121 -45.08705953 278.31745732 -26 273 C-25.18805176 272.77425293 -24.37610352 272.54850586 -23.53955078 272.31591797 C12.37174215 261.97266535 41.34580721 239.11095422 59.65307617 206.44238281 C66.91824308 193.01683985 71.32315546 178.99070963 74 164 C74.29003906 162.40671875 74.29003906 162.40671875 74.5859375 160.78125 C77.4986043 134.18255697 73.32290456 109.20978666 62.23535156 85.05029297 C60 80.17891362 60 80.17891362 60 78 C67.26 78 74.52 78 82 78 C98.64770099 117.10273952 100.98020146 160.29375075 85.3125 200.1875 C69.75615389 238.04944745 40.44735925 268.34218091 3 285 C-13.27978066 291.64190291 -31.35550289 296.4338664 -49 297 C-49.64130859 297.02578125 -50.28261719 297.0515625 -50.94335938 297.078125 C-92.2094304 298.56653153 -132.15108351 284.48541784 -162.5078125 256.359375 C-163.33023438 255.58078125 -164.15265625 254.8021875 -165 254 C-165.88429687 253.18015625 -166.76859375 252.3603125 -167.6796875 251.515625 C-192.02103228 228.20861498 -206.16193163 195.98682977 -211 163 C-211.13277344 162.14535156 -211.26554687 161.29070312 -211.40234375 160.41015625 C-216.24802766 122.64037347 -205.22234174 81.32931031 -182 51.125 C-177.58212591 45.52601732 -172.89119331 40.18815862 -168 35 C-167.34 34.27554688 -166.68 33.55109375 -166 32.8046875 C-124.0176354 -11.56303873 -55.47443001 -20.9587383 0 0 Z " fill="#ffffff" transform="translate(291,136)"/>
</svg>
